<?xml version="1.0" standalone="no"?>
<!DOCTYPE svg PUBLIC "-//W3C//DTD SVG 1.1//EN" "http://www.w3.org/Graphics/SVG/1.1/DTD/svg11.dtd" >
<svg xmlns="http://www.w3.org/2000/svg">
<metadata>
This is a custom SVG webfont generated by Font Squirrel.
Designer    : Font Monkey PD Magnus
</metadata>
<defs>
<font id="webfontqdGI9bTD" horiz-adv-x="446" >
<font-face units-per-em="1000" ascent="800" descent="-200" />
<missing-glyph horiz-adv-x="300" />
<glyph unicode=" "  horiz-adv-x="300" />
<glyph unicode="&#x09;" horiz-adv-x="300" />
<glyph unicode="&#xa0;" horiz-adv-x="300" />
<glyph unicode="!" horiz-adv-x="199" d="M18 3q1 11 9.5 14t20.5 14q10 16 26 31.5t33 12.5q6 -9 13 -29q13 6 23 5q0 -2 1 -3l1 -2q3 -8 5.5 -13.5t5 -10t4.5 -10t3 -13.5l-18 -5q0 -5 -0.5 -8.5t-0.5 -5.5q-1 -6 -9.5 -18t-19 -23t-21 -16.5t-16.5 0.5q-5 12 -8 26q-9 -8 -18 -12t-14 1q-8 16 -11.5 29.5 t-7.5 30.5q0 2 -0.5 2.5t-0.5 2.5zM18 596q0 6 1 16v4q3 9 12.5 21.5t20.5 22.5t20 14t12 -3l1 1v-19q11 10 20 14.5t12 -3.5l1 1v-7q8 8 15 9t9 -7q0 -38 -0.5 -94.5t0.5 -113.5t4.5 -106.5t10.5 -74.5q5 -17 7.5 -37t16.5 -33q-11 -7 -21 -12.5l-21 -11.5l-1 -1l18 -18 l-1 -1q-3 -3 -8 -7.5t-11 -8t-11.5 -5t-9.5 2.5t-6 7q-7 -5 -13.5 -7t-11.5 3q-3 5 -6 12q-11 -13 -23.5 -22.5t-20.5 -5.5q-1 -2 -3 -4v6q-5 8 -7 21.5t-2 29.5t1.5 32t3.5 30l-4 75t-3 75q-2 47 -1.5 94.5t0.5 95.5q-1 9 -1 15zM29 260q0 1 0.5 2t0.5 3t-0.5 -0.5 t-0.5 -4.5z" />
<glyph unicode="&#x22;" horiz-adv-x="253" d="M12 615l66 57v-13l2 1v-12q0 -5 1 -11q5 3 11 4q1 -1 4 -1q2 0 2.5 -0.5t2.5 -0.5q5 -19 5.5 -50l1 -63t3.5 -59t13 -36l-31 -32.5l-31 -32.5q-9 8 -13.5 21t-6.5 29q-6 -2 -10 1l-1 -1v3q-2 6 -2 12t-1 13l-4 -4q-8 43 -9 87.5t-3 87.5zM149.5 474q1.5 28 6.5 54 q-2 19 -2 37q0 19 5 38l4 2q2 5 6 9q3 4 10.5 12t16 15t17.5 10.5t16 -1.5q3 -2 4 -15t1.5 -32.5t0.5 -42.5v-42q0 -19 1.5 -34t4.5 -19q-11 -6 -21.5 -12.5t-21.5 -12.5l19 -18l-1 -1q-3 -3 -8 -7.5t-11 -8t-11.5 -5t-9.5 2.5q-3 3 -5 20q-7 -2 -10 3q-13 20 -11.5 48z" />
<glyph unicode="#" horiz-adv-x="533" d="M13 330.5q2 4.5 4 9.5q2 4 3 7l55 30q-1 3 -2 5.5t-1 5.5q11 -1 28 4q1 1 5 3l18 6l16.5 8.5l16.5 8.5q0 11 -0.5 26.5t-1.5 32t-2.5 33t-3.5 28.5l-7 -6q0 8 0.5 15t1.5 15q3 8 10 18t16 19t19 14.5t20 3.5l2 -4t2 -5q11 11 22 17t13 -5q5 -37 4 -83t-6 -94 q20 4 40.5 6.5t41.5 4.5q-2 23 -2 48q0 26 7 48q5 26 17.5 49.5t35.5 43.5q2 2 7 6t10.5 7t10.5 3t6 -6q-2 -50 -6 -98.5t-9 -96.5h1q2 0 15.5 1t29 2.5t29.5 2t17 -1.5q2 -8 -1.5 -15.5t-9.5 -14.5t-13 -12.5t-12 -10.5q-12 -10 -26.5 -13.5t-30.5 -5.5q1 -8 1.5 -15 t2.5 -15q1 -11 1 -22q0 -10 1 -21v-6q25 0 50 -3q13 3 32.5 4.5t28.5 -6.5q2 -9 -2.5 -18t-12 -17t-16.5 -14.5l-15 -10.5q-13 -8 -27.5 -9.5t-30.5 0.5q1 -6 1.5 -11.5t1.5 -11.5l-13 -11q-2 -29 -3 -58.5l-2 -58.5v-15l-1 -1q-2 -6 -9 -17t-16.5 -20.5t-19.5 -16t-17 -3.5 l-3 -3v11q-1 46 -5.5 91.5t-4.5 91.5v26l-44.5 -8l-43.5 -8q-1 -35 -1.5 -70t-0.5 -70l-66 -57v19q-2 0 -4 -0.5t-4 -0.5h-3l-3 3q-7 22 -5.5 47.5t3.5 49.5v2q1 7 1.5 13.5t1.5 12.5v18q0 8 1 13q-4 -2 -6 -2q-7 -3 -19.5 -9t-26 -11.5t-26 -8t-20.5 1.5l4 4q-9 0 -12 1 q-6 6 -2 15t12 17.5t17 16t13 10.5q32 22 70 37v10v0q0 20 -0.5 40.5t-1.5 40.5l-1 -2q-33 -8 -58 -16.5t-38 -10.5q-4 -1 -8 1q-26 -8 -39 -7q-4 4 -2 8.5zM239 272q22 8 44 14.5t45 11.5q1 19 2.5 37t3.5 37q-1 3 -1 10l-46 -6l-46 -6q-1 -25 -1 -49t-1 -49z" />
<glyph unicode="$" horiz-adv-x="490" d="M13 398q0 3 0.5 5.5t1.5 5.5q-5 21 6.5 43.5t29.5 43.5t38.5 38t33.5 26q14 10 29.5 17.5t32.5 13.5v1v5q-2 5 -2.5 10t-1.5 10q0 6 3 13v7q1 1 2 1.5t3 2.5q5 10 14.5 20.5t18.5 18t17 10t10 -3.5l1 1v-10q1 -5 1 -15q7 -25 11 -48q57 13 119 7l-14 -16q3 -1 11 -3 q7 -2 13.5 -3.5t10 -4.5t4.5 -8t-4 -14q-3 -5 -11.5 -15.5t-18 -20t-19 -14.5t-15.5 1q-1 3 -1 9l2 1v1q-17 2 -33.5 7.5t-33.5 8.5v-6q4 -16 6 -35q1 -17 1.5 -33.5t1.5 -33.5q17 -2 33.5 -4.5t33.5 -6.5q28 -2 53 -8.5t45 -22.5q27 -23 30 -47t-8 -47.5t-31.5 -44.5 t-38.5 -37q-15 -14 -36 -29t-46 -29q1 -31 0 -62v-3q-1 -1 -2 -1q-2 -5 -5.5 -11t-8.5 -12q2 -12 2.5 -21.5t-0.5 -14.5q-1 -6 -9.5 -18t-19 -23t-21 -16.5t-16.5 0.5q-7 33 -10.5 66t-5.5 66q0 1 -0.5 2t-0.5 2q-39 -14 -69 -14q-15 0 -29 4.5t-29 5.5l10 12 q-18 3 -32.5 15t-31.5 19l-1 -1v3q1 9 7.5 20.5t16 21.5t20.5 16t21 4q14 -6 26 -14.5t26 -14.5q9 -5 24 -4t33 5q-2 41 -2 81v82l-60 -6t-52 -2q-9 0 -23.5 1.5t-28 6.5t-23 13.5t-9.5 23.5zM84 460q6 -13 16.5 -16t23.5 -1.5t26 5t23 3.5q6 -1 12 -1h13q-6 44 -9 87 q-27 -11 -51.5 -25.5t-40.5 -31.5q-5 -5 -7.5 -10t-5.5 -10zM288 363l11.5 -65.5t10.5 -65.5l12.5 5.5t10.5 4.5l14 5.5t19 8t19 9.5t15 9l1 1q1 7 0.5 14t-2.5 14q-6 14 -18.5 24t-27.5 16.5t-30.5 11.5t-27.5 8h-7zM344 538l3 3q-1 -1 -2 -1l-1 -1v-1z" />
<glyph unicode="%" horiz-adv-x="636" d="M13 481q-2 22 12.5 41.5t29.5 37.5q21 26 52 49.5t64 33.5t64 0.5t53 -49.5q6 -11 6 -26q0 -14 -2 -25q-6 -24 -20.5 -47.5t-33.5 -44t-41.5 -36t-46.5 -23.5q-22 -8 -44 -10q-19 -6 -31 0q-27 4 -42 22t-13 53l-3 -3q0 1 -2.5 10t-1.5 17zM23 -57q-3 19 6 44.5t23 50.5 t29.5 47t25.5 35l58.5 75l61.5 74l101.5 149.5t114.5 141.5l21.5 23t26.5 25t29.5 21t31.5 11q5 -1 6 -4t-0.5 -6.5t-3.5 -7t-3 -5.5l-47 -66.5l-50 -64.5v-1q-11 -17 -23.5 -32.5t-26.5 -30.5l-144 -179.5t-128 -189.5h-1q-19 -35 -43 -67t-56 -46q-6 0 -9 3zM99 502 q0 -22 12 -38q7 -9 16 -14q7 -1 14 -1h15q17 5 33 16.5t26 20.5q4 18 -2 32t-17.5 23.5t-27 14t-30.5 3.5q-2 -1 -13 -3l-3 -5q-3 -2 -7 -4l-8 -4q-8 -19 -8 -41zM296 104l43.5 68t46.5 57t60.5 35t84.5 1q30 -6 50.5 -26t34.5 -45q9 -17 7 -39q2 -20 -10 -44t-35 -50l-9 -9 t-9 -8q-18 -18 -38.5 -32.5t-41.5 -24.5t-40.5 -14t-35.5 -1q-37 8 -59.5 22t-33 32t-10.5 39t8 44zM357 411l30.5 39l30.5 39l4 6l4 6q-19 -21 -36 -44zM384 178l6 6q-2 0 0 1q10 11 12 16q-1 0 -5 -2q-7 -8 -13 -21zM389.5 127q0.5 -13 4.5 -25.5t9.5 -23t10.5 -15.5 q9 -8 26 -9.5t36.5 0.5t38 7.5t30.5 10.5q1 2 1.5 2.5t1.5 2.5q12 23 7 45q-10 13 -30.5 19.5t-44.5 9t-47.5 2t-39.5 -3.5q-4 -9 -3.5 -22z" />
<glyph unicode="&#x26;" horiz-adv-x="655" d="M14 98q0 5 2 13q2 12 4 22.5t3 16.5q5 26 21.5 57t39 61.5t48.5 58t48 46.5l21.5 18t24.5 18l4 4q-5 11 -8 20v1q-2 2 -2 5l-22 48t-15 51q-1 10 -1 20v21v2q1 13 0 25.5t2 26.5q2 4 3.5 7.5l3.5 8.5q1 10 1.5 17.5t-0.5 12.5l1 1q1 0 2 1l-5 -3q2 4 2 7q2 4 10 14.5 t18 20.5t19.5 17t14.5 4q38 41 83 59q19 8 39.5 11.5t40.5 7.5q-2 -2 -3 -4t-3 -4q20 5 43 6t34 -11q18 -21 24.5 -42t5.5 -42t-8 -42.5t-16 -45.5q-24 -66 -60 -117.5t-81 -99.5q19 -35 46.5 -74t55.5 -68l43.5 41t52 45t51 32.5t40.5 1.5q0 -3 1 -5q-9 -36 -31 -65 t-42 -58q-9 -3 -18 -5.5t-18 -4.5l-15.5 -13.5t-15.5 -12.5q15 -13 32 -25.5l31.5 -23t25.5 -16.5t15 -5l-42 -63q-5 -2 -15 -2l-18 -20q-10 2 -20 8.5t-19 14.5t-17.5 16.5t-17.5 14.5l-18 12q-1 -1 -2 -1.5t-2 -1.5l1 -2q-31 -28 -62.5 -53.5t-65.5 -47.5t-71 -38.5 t-78 -26.5q-11 -3 -27 -3q-15 0 -30 3.5t-28 10t-21 17.5q-5 7 -9 12t-7 10q-20 9 -23.5 31.5t-0.5 45.5zM138.5 151q-2.5 -15 2.5 -20q8 -8 15 -18.5t18 -15.5q17 -9 39 -7.5t47 10.5q23 14 43 35t41 40q2 -7 3.5 -13t3.5 -13q11 7 20 13.5l19 13.5q-2 2 -4.5 4t-4.5 4 q-35 29 -66 70.5t-54 87.5l-10 10q-2 2 -3 2l-1 -1l-40 -61l-40 -60q-3 -4 -9 -18.5t-11.5 -31t-8 -31.5zM162 278l1.5 3l1.5 3zM281 670l1 -1v2v0q0 -1 -1 -1zM283 668q5 -8 7 -23.5t2 -33.5q12 -15 21 -39q5 -17 7.5 -33.5t5.5 -33.5l14 18.5t19 26.5q17 24 37.5 57.5 t22.5 66.5q-1 5 -1.5 10t-2.5 10t-5 10.5t-5 11.5q-23 8 -40.5 12t-35.5 2q-16 -3 -31 -9l-2 -4q-3 -8 -5 -15.5l-4 -15.5q-2 -4 -2.5 -9t-1.5 -9zM290 712q2 4 5 7q-1 -1 -3 -1q-2 -4 -2 -6zM340 443q9 10 17.5 20.5t16.5 21.5q-8 -11 -16.5 -21l-17.5 -20v-1zM509 237 q1 1 2 1.5t2 1.5t-0.5 0t-3.5 -3z" />
<glyph unicode="'" horiz-adv-x="172" d="M22 540.5q-7 57.5 2 111.5l65 50q-2 -10 -2 -14q9 4 19 3q8 8 17.5 12.5t18.5 2.5q5 -3 7 -25.5t2 -52.5t-1 -61t-1 -49l-12 -11l-3 -12v-2q-1 -1 -2 -1v-1q-2 -4 -7.5 -12t-13.5 -16l-2 -30.5l-2 -30.5v-1v-8q-3 -2 -7 -6q-6 -8 -14 -17.5t-16.5 -16.5t-16 -10t-12.5 1 v1q-1 21 -1 42v44q-11 52 -18 109.5z" />
<glyph unicode="(" horiz-adv-x="236" d="M14.5 210q-4.5 63 2.5 126q2 25 5.5 49t11.5 47q9 36 24 70.5t38 65.5q2 3 10.5 11.5t18.5 16.5q7 9 18 19l6.5 6.5t7.5 6.5q2 3 2.5 6.5t2.5 6.5l5 -5q2 1 2.5 2t2.5 2l-8 9q11 11 21.5 20t24.5 17q10 2 12 0t0 -12q-5 -11 -11.5 -20t-13.5 -17q-3 -11 -8.5 -19 t-13.5 -16q-15 -31 -29.5 -68.5t-26.5 -77t-19.5 -79.5t-9.5 -78q6 -46 21 -88q6 -16 20 -39l28.5 -46.5t26 -44.5t11.5 -35q-5 -20 -21.5 -36t-34.5 -24q-17 -2 -31.5 8.5t-26.5 28.5q-1 1 -2 1v1q-9 15 -23 30.5t-19 32.5q-20 59 -24.5 122z" />
<glyph unicode=")" horiz-adv-x="231" d="M12 602q1 9 7.5 20.5t16 21t20.5 16t21 4.5q2 -2 3.5 -2.5t3.5 -1.5l-6 -6q2 -6 7 -12t10 -11q12 6 22 4t18.5 -11t14.5 -23t11 -31q14 -23 24.5 -48.5t18.5 -51.5q12 -42 14 -98.5t-7.5 -112.5t-31.5 -106.5t-57 -80.5l-16 -16l-2 -2l-4 -4l-1 -1l-1 -2l-2 -2 q-5 -6 -19 -18t-25.5 -19t-15.5 -4t12 26l2 2q2 4 3 5q17 24 27.5 42.5t17 37t12 40.5t12.5 53q4 17 10 36.5t7 39.5q-2 17 -5 34.5t-8 34.5q-1 5 -2 8.5t-2 8.5q-8 29 -17 56t-19 53q-2 4 -4 10q-4 4 -5 7v3q-10 24 -22 42q-4 6 -11.5 13t-14.5 14.5t-12 15.5t-5 16z" />
<glyph unicode="*" horiz-adv-x="341" d="M13 346q-3 13 6 24.5t17 20.5q18 18 34 26q17 15 25 20q11 4 23 1.5t23 -7.5q-2 18 4 35q0 2 2 4v12l4 3q0 4 0.5 7.5t0.5 6.5v3q0 1 0.5 1.5t0.5 1.5q2 5 11 16.5t20 22t20.5 16t12.5 -2.5l1 1v-3q3 -20 2 -39.5t-3 -39.5q1 -16 1 -32v-30l26 17.5t26 19.5l12 10t14 10 q2 1 5.5 3t7 3.5t6.5 0.5t4 -6q-1 -2 -1 -4t-1 -4q11 4 11 -1t-4.5 -13t-11 -17t-10.5 -13q-14 -14 -30.5 -25.5l-33.5 -22.5q-2 -2 -3 -2q2 -4 5 -7l12 -14l12 -14l22 -23t21 -24q0 -1 1 -1l-1 -1q0 -9 -8 -21.5t-19 -23t-22 -16t-16 0.5l-42 45l-15 15.5l-14 15.5 q-4 -6 -7 -12t-7 -12q-6 -9 -9 -19.5t-11 -16.5q-3 -3 -1 4l-23 -29.5l-22 -28.5q-2 -1 -4 -1q-1 0 -3 -1q-7 0 -9 3q-1 1 -1 5q-8 -4 -14.5 -5t-4.5 10q15 35 34 68.5t42 65.5q-7 2 -13.5 4.5t-12.5 4.5q-23 -3 -48.5 -3.5t-40.5 4.5z" />
<glyph unicode="+" horiz-adv-x="438" d="M15 348.5q6 10.5 16 20.5q3 7 10 14.5t14.5 14t14.5 12t11 7.5q16 8 35 8.5t38 -1.5l21 3q1 17 1.5 34.5t2.5 34.5q-3 13 -3.5 25.5t3.5 24.5q5 11 15 25.5t23 23.5q9 9 16 13q14 13 30 18q5 1 8.5 1.5t5.5 -5.5q0 -7 -2.5 -11.5t-4.5 -9.5q-4 -18 -7 -35.5l-6 -35.5v-18 q0 -8 1 -15q0 -6 0.5 -11.5t0.5 -10.5l6 -39q45 5 90 6q5 1 14 1q13 0 25 0.5t25 0.5q1 0 2 -0.5t3 -0.5q0 -1 0.5 -1.5t0.5 -1.5q2 -10 -3.5 -20t-14.5 -18.5t-19 -15.5t-18 -10l-14 -4t-15 -3q-16 -2 -31.5 -1.5t-30.5 -0.5q1 -5 1.5 -11t2.5 -11q4 -22 8.5 -40t5 -34.5 t-5 -32t-22.5 -32.5q-5 -4 -9 -8t-9 -7q-1 -2 -1 -8q0 -3 1 -4q-2 -1 -4 -3q-4 -8 -12.5 -19t-17.5 -20t-18 -13t-15 2q-2 6 -2 10l-8 -8v26v0v25t1 25q-2 29 -1 57.5t1 57.5v37q-6 -1 -11.5 -1.5t-10.5 -1.5q-35 -7 -68.5 -14.5t-68.5 -7.5q-7 7 -1 17.5zM254 214l12 12.5 l12 13.5q-6 -3 -11.5 -6.5l-10.5 -6.5q-2 -8 -2 -13z" />
<glyph unicode="," horiz-adv-x="272" d="M14 55q-2 14 2.5 29.5t9.5 29.5l25 16q18 27 54 43q29 17 59.5 19t50.5 -18h3l1 1v-2q5 -4 7.5 -8.5t3.5 -9.5q8 -9 5 -19q13 -35 17 -67t-4 -62t-28.5 -59t-57.5 -58q-9 -6 -20 -15t-23 -17.5t-25 -15t-25 -8.5q-9 0 -11.5 1.5t-0.5 8.5q1 11 8 20.5t13 18.5 q8 11 13 19.5t3 6.5l-2.5 -7.5l-2.5 -7.5l64 44q13 23 13 49q0 25 -7 51q-8 -5 -15 -8.5t-15 -6.5l-9.5 -5.5t-9.5 -4.5q-1 0 0.5 1t4.5 2t5 2t0 1q-17 -9 -35.5 -12.5t-34 0t-25.5 15.5t-11 33z" />
<glyph unicode="-" d="M13.5 343.5q-1.5 3.5 0 8.5t5 10l5.5 8q9 12 21 26.5t28 19.5h1q7 7 14.5 12.5t15.5 8.5q30 11 66.5 18.5t74 11t74.5 2.5t68 -7q7 -2 6.5 -5t-2.5 -9q-1 -2 -2 -4.5t-2 -4.5q-3 -2 -6 -3.5t-6 -3.5q5 -1 9 -1t8 -1h12l2 -1q1 0 3 -2q5 -1 9.5 -2t9.5 -2h1q1 -1 4 -1 q2 -10 -4 -21t-16 -20.5t-21.5 -16t-20.5 -7.5q-11 1 -21 3t-21 4q-27 0 -57.5 -1l-61 -2t-60 -2.5t-54.5 -2.5q-43 -5 -74 -15q-7 -1 -8.5 2.5z" />
<glyph unicode="." horiz-adv-x="281" d="M22.5 48.5q0.5 22.5 11 44.5t28.5 38q12 16 29 29t36 20t38.5 6t36.5 -13q37 -26 47.5 -54.5t2.5 -54t-30 -47.5t-50 -35.5t-56.5 -16.5t-50.5 9q-23 12 -33 32t-9.5 42.5z" />
<glyph unicode="/" horiz-adv-x="532" d="M13 -31q12 37 27 64.5t32 50.5q3 8 8 15l11 15q3 5 6 11t7 11q3 8 6 11q18 38 41 70.5l47 66.5q8 11 19.5 28.5l24.5 37.5q17 26 32.5 53t32.5 53l40.5 66t44.5 64q2 2 6 6.5t10 9.5q14 23 38 43q2 2 6 5t9 6t9.5 4.5t7.5 -0.5l8 6t9 6t13.5 7t10.5 -5q2 -14 -4.5 -24.5 t-16.5 -19.5q5 -4 -2 -13.5l-15 -19.5q-2 -4 -3.5 -8t-3.5 -8l-28.5 -49t-30.5 -47q-15 -40 -33 -78q-18 -36 -40.5 -69.5l-46.5 -66l-48.5 -65t-45.5 -66.5q-2 -2 -2 -3l17 5l-19.5 -25t-20.5 -23l-6 -12t-7 -11q-10 -14 -24 -27.5t-31 -15.5h-4q-3 2 -3 10q0 3 2 7 q-4 -4 -8 -7.5t-9 -7.5q-5 -8 -8 -16q-1 -1 -1 -3l-1 -1q-3 -4 -13.5 -16.5t-22 -22.5t-20 -13t-7.5 11zM119 72q3 5 6.5 8t6.5 7l22 37.5t24 36.5q5 7 13 17l-22 -23l-22 -22q-8 -18 -18 -32q-2 -4 -3.5 -7.5t-3.5 -7.5q-1 -4 -1.5 -7t-1.5 -7zM427 620q10 10 13.5 14 t-8.5 -5q-3 -2 -3 -3t-2 -6zM486 654q1 0 2 1q-1 -1 -2 -1z" />
<glyph unicode="0" horiz-adv-x="584" d="M13 360q-3 35 19 77.5t56 82t72.5 70.5t67.5 43t58.5 15t60.5 1q8 -1 15 -1.5t14 -2.5q10 -2 16 -4q19 -8 38 -14t36 -17q15 -11 30.5 -28t28 -37t21 -40.5t11.5 -39.5q3 -21 7.5 -44.5t6 -47.5t-1 -47t-11.5 -44q-8 -17 -14.5 -33.5t-14.5 -31.5q-2 -25 -10 -45 l-14.5 -30t-18.5 -28q-19 -22 -49.5 -46t-65.5 -43.5t-72 -30t-69 -4.5q-15 3 -36.5 9t-43 14t-39.5 18t-26 22q-17 26 -20 58t-7 62l-6 51q0 2 -0.5 4t-0.5 4q-2 8 -3 13q-14 27 -23 56t-12 59zM117 312l9.5 -23t9.5 -22q24 -38 52.5 -66t62.5 -45q14 -2 28.5 -4.5t27 -4 l21 -2.5t9.5 0q17 5 31 16.5l28 22.5q-4 -11 -6.5 -21.5t-6.5 -21.5q31 6 60 19q7 2 11 6q3 8 4 21t1 29q-4 28 -9.5 53t-7.5 39q-6 33 -7 59t-2 46.5t-5 36.5t-15.5 30t-33.5 27t-59 27l-23 -24q-18 16 -46 23.5t-54 1.5q-20 -8 -37 -19q-2 -2 -3 -3.5t-3 -3.5 q-13 -16 -19 -32.5t-11 -36.5q-4 -15 -6 -50.5t-1 -77.5zM384 77q2 0 3 1q8 4 12.5 6t9.5 4t11.5 5.5t17.5 10.5q14 10 19 28q-2 -2 -4 -3q-25 -22 -69 -52z" />
<glyph unicode="1" horiz-adv-x="355" d="M13.5 429q2.5 7 9 15.5t14 16l9.5 9.5l38 33.5l51.5 44.5t56 43t50.5 30q28 24 52.5 40.5t40.5 19.5q1 -1 5 -1q5 -9 -0.5 -22t-13.5 -25q10 3 13 -6l-3 -9l1 1q-1 -1 -1 -2l-1 -1v-4l-1 -1q-10 -26 -16.5 -54t-14.5 -54h8q5 -18 4 -36t-4 -37t-7 -37t-6 -36 q-2 -10 -2 -15q-1 -50 -1 -100q0 -49 -13 -97q2 -42 6 -82l2 2q0 -2 -0.5 -3t-0.5 -3v-1l-1 -1q-2 -7 -10.5 -18.5t-18.5 -21.5t-20 -15.5t-16 0.5q-1 2 -1 8l-6 -6q-15 -15 -24 -20q-4 -2 -6 -2q-7 0 -6 11q0 2 0.5 4t0.5 4q-2 -1 -7 -1l-6 -6v36v2q0 91 4.5 186t27.5 186 q8 59 24 114q-39 -35 -83 -63q-5 -3 -14 -10t-19.5 -13t-20.5 -10t-17 -1l-5 -3q0 2 2 6v1q-6 -5 -12 -8t-13 -4q-8 0 -10 3q-1 2 -1 7q-10 -4 -14 -3q-6 2 -3.5 9z" />
<glyph unicode="2" horiz-adv-x="611" d="M13 -55q-3 16 5 36.5t21.5 40t29 37t26.5 28.5l11 -11l26 24l21 19l50.5 42.5l57.5 47.5l40.5 44l40.5 45q28 32 60.5 65.5t61.5 70.5q28 54 28 109q0 2 -0.5 4t-0.5 4q-1 1 -1 2q-11 11 -26 18.5t-32 12.5q-29 -2 -61.5 -8.5t-64.5 -15.5l-32.5 -21t-26.5 -18 q-4 -3 -7 -5.5t-7 -5.5l-29 -52l-35.5 -17t-36.5 -7q-4 4 -2 10q5 18 24 39t45 42q-4 -2 -7 -3l-6 -2q-8 -5 -14.5 -10.5t-13.5 -10.5v3l-6 -8l-23 -35l-12 -4t-11 0q-7 0 -9 3q-1 33 21 62.5t54.5 53.5t68 42t60.5 27q29 11 58.5 13.5t58.5 0.5q16 6 34 11.5t35 7t32 -3 t25 -18.5q1 -2 2 -3.5t2 -3.5q23 -4 37.5 -13.5t12.5 -28.5q-2 -24 -14.5 -48t-27.5 -46q-14 -31 -31 -59.5l-26 -42.5l-58 -87.5t-68 -91.5t-75.5 -86t-81.5 -71q5 2 10 3t9 2l76 15.5t87.5 11.5t85.5 -3.5t70 -29.5q2 -13 -7 -25t-21 -22q-5 -17 -23 -32t-31 -21 q-8 -3 -22 -1t-29.5 6l-30.5 8t-25 5q-20 3 -49 2.5t-61 -4t-63.5 -10t-57.5 -15.5l-8 -16q-19 -8 -38.5 -18.5t-31.5 -8.5q-5 5 -3.5 10.5t5.5 11.5q-5 -2 -10.5 -3t-10.5 -3q-10 0 -9 9q-1 0 -5 -2q-7 0 -10 2zM186 91l26 15.5t25 17.5q31 26 64.5 65t65.5 81l-38.5 -35.5 l-39.5 -34.5q-1 -2 -4 -5l-49.5 -52.5z" />
<glyph unicode="3" horiz-adv-x="571" d="M12 -49q3 2 5.5 5t4.5 5q-5 5 -1.5 14.5t10.5 19t14.5 17.5l10.5 11l4 4l4 4l15 -15q2 2 3 2.5t3 2.5q0 3 1 5q0 -2 1 -2q30 24 64.5 32.5t71.5 16.5l44 33.5l45 33.5q3 3 13 11l23.5 19.5l29 25.5t28.5 28q6 26 6 48t-12 54q-2 5 -7 8.5t-9 7.5h-1q0 1 -1 1l-57 -6 t-57 -8q-5 -2 -9.5 -2.5t-9.5 -1.5q-1 -1 -2 -1q-13 -8 -26 -14t-26 -13q-1 0 -1 -1h-1q-17 -11 -34.5 -19.5t-36.5 -9.5l-2 2q-2 -1 -6 -1q-7 -1 -8.5 2.5t0 8t5 9.5l5.5 8q33 45 82 71t104 39l50 27l50 27q6 20 9 39t-2 39q-3 11 -9.5 18.5t-13.5 14.5q-23 9 -52.5 11 t-60.5 -1t-59.5 -10t-49.5 -16l-3 -7q-23 -15 -33 -19l-9 -9q-6 6 -8 9h-1q-6 7 0 17t15 19l1 1q8 11 17.5 21t19.5 17q30 20 66 33q29 17 63 26t67 12q31 8 56 11.5t45 -2t36.5 -22.5t31.5 -49q11 -26 7 -50t-18 -46.5t-37 -43t-49 -38.5q-4 -4 -7.5 -7t-7.5 -7 q17 0 31.5 -1t28.5 -4q25 2 45.5 -2t21.5 -21q0 -11 -1 -16q11 -15 15 -39q2 -17 1 -35.5t-9 -35.5q-18 -37 -55 -75.5t-81.5 -73.5t-89.5 -64.5t-80 -48.5q-41 -23 -80 -32l-84 -20q-3 0 -13 -3.5t-21.5 -6t-21 -1.5t-11.5 9z" />
<glyph unicode="4" horiz-adv-x="557" d="M14 198.5q5 9.5 14 18.5q-2 6 3 14q-1 0 -1.5 -0.5t-1.5 -0.5q-11 -2 -9.5 6t8.5 17q-3 8 -2.5 19.5t3 23.5t5 21.5l3.5 13.5q0 6 0.5 12.5t1.5 12.5q2 38 8 75t17 74q1 5 1.5 11t2.5 12q2 18 7.5 35.5t10.5 35.5l-2 -1q1 2 1.5 4.5t1.5 4.5q0 1 0.5 1.5t0.5 1.5l1 1 q4 6 13.5 18.5t20.5 22t20 13.5t11 -6q-1 -2 -1 -5q8 3 10 -6q0 -6 -1 -8q5 8 11.5 17.5t15 17.5t17.5 13t19 3q4 -7 3 -19t-4.5 -24.5l-7 -24t-5.5 -17.5q-2 -5 -2.5 -9t-2.5 -8q-4 -32 -6.5 -64t-7.5 -63t-13.5 -59.5t-24.5 -53.5l-8.5 -11t-13.5 -15q17 5 34.5 6t34.5 -2 q21 3 43 5.5t45 4.5q3 21 7.5 42.5t9.5 42.5q1 65 9.5 125t31.5 100l26 11q10 11 21.5 18t22.5 5q5 -20 6 -38q7 5 13 5.5t8 -5.5q-2 -15 -7.5 -26.5t-12.5 -22.5q-2 -42 -9 -83.5t-10 -81.5q-2 -22 -4.5 -43t-4.5 -43q5 0 10 -0.5t10 -0.5q27 1 53 -1.5t52 -10.5 q23 -7 24 -22t-9.5 -30.5t-27.5 -28t-30 -14.5q-23 -5 -45.5 -5.5t-45.5 2.5q-4 -63 -2.5 -124t13.5 -121h1v-6q-2 -6 -10 -18t-18.5 -22.5t-21 -16.5t-16.5 0q-2 10 -3.5 19.5t-3.5 19.5q-5 -6 -11 -11l-4 -4q-2 -1 -3 -2t-3 -2l-4 -2q-9 -3 -15 1v38q-6 -2 -9 -2h-3l-3 3 q-4 29 -2 59t7 60v8q0 23 0.5 46t1.5 46q0 12 0.5 24.5t1.5 24.5q-15 2 -30 3t-30 0q-29 -2 -61 -11t-63 -22l-15 -23l-21 -6.5t-14 -4t-12.5 -2.5t-16.5 -1q-7 6 -2 15.5z" />
<glyph unicode="5" horiz-adv-x="518" d="M12.5 -102q2.5 10 10 21.5t15.5 21t11 12.5l18 -6q32 29 67.5 52.5l73.5 46.5q20 18 44 42t46 49t38.5 49.5t20.5 45.5q4 20 -5.5 37t-25.5 31q-5 4 -10 7t-10 5q-33 -2 -67.5 -10t-63.5 -19q3 -2 7.5 -1t9.5 1l-57 -66h-16q-7 0 -11 7q-9 -8 -17.5 -12t-13.5 -1 q-9 0 -14 9h-11q-1 0 -2 -1t-2 -1q-7 -1 -8.5 0.5t-0.5 8.5q4 11 17 27q-2 17 -2.5 38t-1.5 39q-4 39 -5 78.5t13 76.5v24q0 6 -0.5 12t-0.5 12q-5 -1 -9.5 -1.5t-9.5 -1.5q-10 -1 -11.5 3t3 11t13 16t16.5 16q1 2 1.5 3.5t2.5 3.5q6 20 23 36q10 14 23.5 24t27.5 8 q3 -3 4 -6t5 -5l-3 -3q44 14 93 20q58 20 114.5 33t91.5 13q2 -1 5 -1q0 -1 0.5 -1.5t0.5 -1.5v-2q6 1 12 1.5t12 2.5q11 -2 6.5 -11.5t-15 -20.5t-23 -20.5t-18.5 -12.5h-1q-23 -10 -45 -14q-31 -17 -65 -25.5t-70 -14.5l-23 -30q-23 -3 -46 -4t-46 -3q5 -16 5 -35v-35 q5 -36 9 -72.5t4 -72.5q13 10 28 17.5t32 13.5q35 16 72.5 24t76.5 6l15.5 -2t15.5 -3q22 -2 41.5 -8t36.5 -19q11 -9 17 -20.5t14 -22.5q5 -7 7 -16t2 -19v-20q0 -9 1 -18q2 -15 -5 -30t-18 -29t-23.5 -25.5t-23.5 -19.5q-33 -25 -69 -45q-31 -29 -66.5 -55t-72 -50 t-72 -45l-67.5 -40q-14 -8 -27 -18.5t-27 -18.5q-17 -7 -17.5 -0.5t4.5 15.5q-1 0 -1.5 0.5t-1.5 0.5q-8 4 -5.5 14zM72 -53l4 2h-3zM317 115l20.5 15l20.5 15q-5 -2 -10 -2.5t-10 -2.5q-5 -7 -10.5 -13t-10.5 -12zM381 164q5 4 10 8.5t10 9.5q19 33 23 53q-1 1 -1 3 q-15 -37 -42 -74zM412 258l1 1v1v0q0 -1 -1 -1v-1z" />
<glyph unicode="6" horiz-adv-x="595" d="M12 246q0 64 15.5 126.5t44 116.5t64.5 85q14 12 30 24l24.5 23.5l25.5 24.5q12 12 28.5 24t34.5 21t36.5 14t33.5 3q28 -3 55 -7.5t55 -8.5l-57 -66q-5 1 -11 1.5t-11 2.5l-21 -15l-2 -1q0 3 1 5q0 2 -1.5 1.5t-3.5 0.5q-16 2 -35 -1t-34 -6q-17 -4 -39 -12t-44 -19 l-11 -14q0 -1 -1 -2q-12 -24 -20.5 -53.5t-13.5 -55.5q-9 -40 -14 -79.5t-5 -79.5q38 38 80.5 69t76.5 45q24 10 50.5 11t52.5 5q22 2 46 -8t46 -26q5 -2 10.5 -4t10.5 -4q12 -6 20.5 -12.5t14.5 -17.5q8 -18 10 -40q6 -12 10 -25t10 -25q11 -26 8 -57t-16 -60.5t-33 -54.5 t-43 -39t-45 -29.5t-48 -23.5q-20 -6 -39 -7t-39 0q-8 -1 -17 -1h-16q-23 1 -48 4t-50 8q-12 2 -22.5 4.5t-21.5 7.5q-4 -4 -7 -7.5t-7 -6.5q-3 7 -6.5 14t-5.5 15q-9 6 -19 13.5t-21 18.5q-30 25 -45 65l-1 -1v2q-20 50 -20 114zM139 260h2l9 12v0l-6 -6t-5 -6zM165 216 q0 -62 18 -119q1 -1 2 -1q3 -2 6.5 -4t6.5 -4l1 -1q11 -4 24 -6.5t21 -4.5q7 -2 14 -3.5t15 -3.5q11 -1 22 -1t24 -1q27 -3 55 -3l30 4t29 7l15.5 66.5t8.5 60.5t-8.5 57.5t-34.5 58.5l-1 -1q-1 2 -2 3t-2 3q0 3 2 9q-20 4 -41.5 3t-41.5 -4q-64 -10 -104 -31t-59 -69v-15z M437 77l22.5 8.5t22.5 11.5l6 19q-14 -10 -26 -20t-25 -19z" />
<glyph unicode="7" horiz-adv-x="633" d="M14.5 557.5q4.5 9.5 14.5 19.5t21.5 18t18.5 11q0 1 1 2h3q12 3 24.5 5.5t24.5 4.5q11 5 21.5 10.5t24.5 8.5q27 6 54.5 8.5t54.5 8.5l-10 -13q43 6 86 7.5t86 0.5q23 -2 47.5 -4.5t48.5 -5.5q20 1 39 0.5t39 -2.5q11 -2 6.5 -12t-15.5 -21t-23.5 -21t-17.5 -12h-1v-1h-1 l-2 -2h2q3 -7 0 -15.5t-9 -17t-12.5 -15l-11.5 -11.5q-21 -21 -36 -33.5t-27 -23.5q-31 -51 -56.5 -103.5t-48.5 -106.5q-15 -57 -31.5 -112l-33.5 -110l-1 -1l-13.5 -49.5t-5.5 -49.5l10 8q0 -26 -16 -47.5t-38 -32.5q-5 -2 -9.5 -4t-9.5 3q-3 18 -2 36q-11 -6 -17 0 q-5 5 -3 13t3 14q1 36 5 69.5t11 65.5q-1 11 -0.5 20.5t2.5 20.5q9 47 28 105.5t45 119.5t58 120t68 106q-20 2 -38.5 6.5t-34.5 6.5q-3 0 -5.5 0.5t-5.5 0.5l-55.5 -8t-55.5 -9q-13 -2 -33 -7.5t-42 -10.5t-43.5 -8t-36.5 -1h-1h-1q0 1 -1 1q-6 5 -1.5 14t13.5 19 q-2 2 -3 4q-25 -3 -50 -3q-6 6 -1.5 15.5z" />
<glyph unicode="8" horiz-adv-x="473" d="M22 381q-25 89 10.5 146.5t116.5 99.5l31 16t32.5 14t33 8t32.5 -2q19 -2 43 -8t47 -15t42 -20t29 -23q12 -15 15.5 -40t1 -53t-10 -53t-17.5 -40q-17 -23 -34.5 -38t-36.5 -25q-2 -2 -3 -3.5t-3 -3.5l-6 -2l-6 -2q44 -16 72 -38q27 -22 38.5 -52.5t10.5 -63t-13.5 -65.5 t-33 -61t-47.5 -49t-57 -29q-35 -9 -80 -2.5t-87 24.5q-5 -5 -10 -9.5t-10 -9.5q-12 18 -20 41q-19 14 -33 30.5t-21 36t-4.5 41.5t15.5 46q20 35 45.5 68.5t57.5 62.5l-30 9l-12 3q-2 -3 -5 -6l-5 -5q-6 5 -13 9t-12 9q-22 6 -38.5 17t-24.5 37zM118.5 514 q-0.5 -22 2.5 -44.5t9 -41.5t13 -28q3 -6 7 -9q11 -3 22 -5l22 -4q12 -4 26.5 -7.5t29.5 -8.5q8 4 17 7q15 5 31.5 8l33.5 6q3 16 5.5 39t2.5 45q0 23 -4 42t-14 27l-7 -6q-1 5 -1.5 9.5t1.5 9.5q1 2 3 5.5t4 7.5q-5 2 -10 4.5t-10 4.5q-10 4 -20 7.5l-21 7.5l-11 -12 q-18 17 -39 20h-4q-12 1 -27 -2l-41 -48l-14 2q-6 -14 -6.5 -36zM161 179.5q-6 -46.5 5 -88.5q25 -15 55.5 -26t59.5 -19h-2v0q15 -3 30 -4.5t32 0.5h4q10 26 11.5 53.5t-3 54.5t-14 53t-21.5 50v1q-26 13 -55.5 23.5t-59.5 19.5q-4 -2 -7 -4t-7 -4q-2 -7 -5 -12.5t-5 -11.5 q-12 -39 -18 -85.5z" />
<glyph unicode="9" horiz-adv-x="562" d="M12 437q0 41 16.5 80t45.5 75t65 62t76 41t78 12q20 -2 51.5 -6.5t60.5 -15.5q5 -2 10 -3l10 -2q10 -2 20.5 -3.5t21 -4.5t20 -8t16.5 -13q8 -11 14.5 -39t10.5 -58q5 5 10.5 9t11.5 9q-5 -22 -9 -44.5t-7 -45.5q-1 -8 -1.5 -15t-2.5 -14q-8 -60 -20.5 -118.5 t-43.5 -109.5q-20 -32 -41.5 -62.5t-52.5 -53.5q-3 -5 -6.5 -10t-6.5 -10q-10 -13 -20.5 -23.5l-21.5 -20.5q-3 -2 -7 -6.5t-8 -8t-5.5 -5t0.5 1.5v1q1 0 1 1q-9 -8 -20.5 -16.5t-18.5 -11t-7.5 2.5t12.5 24q0 1 1 1v1q2 2 4 9q-12 -16 -27 -31q-3 -5 -6.5 -8.5t-6.5 -8.5 q-3 -3 -13 -11t-19.5 -13.5t-15.5 -5.5q-5 0 1 14q-1 -2 0.5 3t5 12.5t7.5 14.5t6 10q15 20 32.5 38l34.5 36q27 42 49 88t39 95l-7 -3.5l-7 -3.5l-27.5 -16t-28.5 -11q-22 -5 -40 3t-38 14l-50.5 16t-48.5 19.5t-42.5 28t-33.5 41.5q-21 36 -21 77zM98 570q8 9 18 18 q14 17 33 33q1 2 1.5 2.5t1.5 2.5q-11 -5 -22 -15q-10 -9 -18 -19.5t-14 -21.5zM154 514l13 -50.5t16.5 -50.5t23 -42.5t33.5 -26.5q1 -7 -2 -16q6 -2 11.5 -3t11.5 -3q9 -2 18 -6l18 -8t18 -5.5t18 0.5q8 2 17.5 6.5l20.5 9.5q11 39 18 73l6.5 40t3.5 44q0 23 -6 43.5 t-21 34.5q-7 6 -1 16.5t17 21.5q-16 16 -48 29l-34 3.5t-23 0.5q-45 -6 -79 -26l-29 -43q-1 0 -2 -1l-10 -7q-3 -8 -5 -16.5z" />
<glyph unicode=":" horiz-adv-x="307" d="M13.5 408q-2.5 8 0.5 16q6 16 22 41.5t38 49.5t46.5 42.5t47.5 19.5q13 8 27.5 11t25.5 -11q21 -6 37 -24q26 -30 17.5 -62t-35 -58.5t-62 -43t-62.5 -16.5q-1 0 -15.5 -1t-31.5 0t-32 5.5t-18 14.5q-3 8 -5.5 16zM56.5 147.5q3.5 22.5 16.5 44.5t32 38q14 16 32.5 29 t38 20t39 6t35.5 -13q34 -26 41.5 -54.5t-3.5 -54t-36 -47.5t-54 -35.5t-58.5 -16t-49.5 8.5q-22 12 -29.5 32t-4 42.5z" />
<glyph unicode=";" horiz-adv-x="272" d="M13 438q1 13 15 30q5 10 13 19.5t13 14.5q3 4 6.5 7.5l7.5 7.5q10 15 23.5 27.5t27.5 22t29 15t28 4.5q6 -1 12.5 -4.5t9.5 -5.5q2 -2 3 -3.5t3 -3.5q14 -2 26 -10t9 -24q-3 -14 -10 -25q5 -21 -14 -49t-47.5 -51.5t-60 -34.5t-52.5 2q-21 12 -19 43q-1 1 -2 1l-1 1 q-21 3 -20 16zM57.5 153q5.5 23 19.5 47.5t35 47t42.5 36.5t42.5 16.5t35 -13.5q3 2 6 2t6 1q2 0 2.5 -0.5t2.5 -0.5q4 -11 -4 -27q2 0 2.5 -0.5t2.5 -0.5q2 -1 2.5 -4.5t0.5 -1.5q1 -14 -10 -27l-3 -9v-2h6q3 -1 6.5 -1.5t6.5 -1.5q0 -2 0.5 -2.5t0.5 -2.5 q-5 -42 -24 -89.5t-40 -93.5q-8 -20 -15.5 -37t-14.5 -31q-2 -3 -12.5 -16t-22.5 -23.5t-20.5 -14.5t-7.5 11q1 2 1 3t1 3q0 2 1 2q7 17 16 36.5l18 40.5q5 11 8.5 22t7.5 22q0 25 2 47.5t10 43.5q-17 -14 -35.5 -21t-35.5 -3q-11 -5 -22 -5q-10 0 -14 8q-9 16 -3.5 39z" />
<glyph unicode="&#x3c;" horiz-adv-x="411" d="M12 292q0 11 11.5 27.5t25.5 26.5l32.5 33.5t40.5 38.5l63 61l65 60l24 22l24 22l18.5 24.5t20 23t22 17t24.5 6.5q2 0 2.5 -0.5t2.5 -0.5q0 -2 0.5 -3t0.5 -3q10 2 10 -4t-5 -13.5t-11.5 -15t-8.5 -10.5q-1 0 -1 -1l-6.5 -8t-4.5 -5l-15 -13l-15 -13l-31.5 -32 l-32.5 -32l-51.5 -45.5t-47.5 -48.5q-10 -12 -23 -30.5t-28 -37.5h2l-10 -12l28.5 -16t24.5 -16l112 -97t109 -100q6 -6 10 -9l-2 -2q1 -10 -5.5 -20.5t-16 -19.5t-20.5 -15t-20 -7q-19 18 -39 34t-40 34l-57 53t-60 51q-8 6 -20 11.5l-24 11.5t-22 13.5t-15 16.5l6 6 q-5 3 -10.5 5.5t-10.5 6.5q-6 -2 -8 -2q-7 -1 -8.5 0.5t-0.5 8.5q0 2 2 6q-3 3 -6 5.5t-5 6.5z" />
<glyph unicode="=" horiz-adv-x="426" d="M13.5 246q3.5 9 14 20.5t23.5 22.5t16 13q18 9 37.5 16.5l38.5 14.5l-10 -14l24 6q26 5 55 9t59 6q8 1 16 1q9 0 17 1q12 1 28 2t31.5 0t29 -5.5t21.5 -16.5l-32.5 -31l-32.5 -31q-3 4 -6.5 6.5t-7.5 4.5q-4 -3 -14 -7q-34 -9 -68.5 -10t-69.5 -1q-34 0 -68 -3t-68 -15 q-11 -1 -11 5q-8 -2 -11 -2q-15 -1 -11.5 8zM14 439.5q4 8.5 12 17t17 16t13 10.5q23 17 48 24.5t52 10t54.5 1t54.5 -4.5l2 1l-1 -1h2q27 2 54 2.5t54 -0.5q11 -3 4 -15h13q11 -2 6 -12t-16 -21t-23.5 -20.5t-17.5 -11.5q-25 -5 -50 -7.5t-50 -4.5q-45 -9 -91 -16.5 t-89 3.5q-11 -5 -20.5 -6.5t-14.5 1.5q-8 4 -3 17q-2 0 -8 2q-6 6 -2 14.5z" />
<glyph unicode="&#x3e;" horiz-adv-x="438" d="M15 81q-1 4 3 14q30 47 60 73.5t63 48.5l17.5 16l16.5 16l64.5 60.5t68.5 57.5l-20.5 21t-16.5 16q-36 27 -79 55t-86 42q-9 3 -21 5.5t-24 6.5t-23 9.5t-18 13.5q-12 14 -4.5 30.5t24.5 29.5t40 18.5t42 -1.5l-23 -24q5 -4 11 -5q17 -7 34.5 -11t34.5 -12 q60 -29 116 -66t102 -86q2 2 5 2.5t5 2.5q10 2 12 0t0 -12l-3 -6q2 0 4 -0.5t5 -1.5q2 -10 -3.5 -20t-14.5 -18.5t-19.5 -15.5t-18.5 -10q-9 -2 -12 0q-3 0 -5 1l-3 3h-1q-2 -1 -3.5 -1.5t-3.5 -1.5q-29 -32 -60 -60.5l-60 -56.5l-79 -77.5t-88 -66.5q-19 -8 -18 0t8 19 q-1 0 -2 -1q-6 -4 -12 -7t-10 -3.5t-5 3.5z" />
<glyph unicode="?" horiz-adv-x="431" d="M13.5 473q3.5 13 11 27.5t16.5 27t14 18.5q12 14 27 28.5t32 26.5q29 24 60.5 41.5t51.5 21.5q25 4 35.5 6t17.5 2q8 0 18.5 -2t35.5 -5q13 -2 29 -11.5t21 -14.5q23 -20 30.5 -47t4.5 -56t-14.5 -59.5t-27.5 -58.5t-33.5 -52.5t-32.5 -41.5q-4 -5 -7.5 -8.5l-7.5 -7.5 l-22 -32.5t-17 -29.5q-7 -15 -5 -34.5t2 -35.5l-16 -14l2 -2q4 4 7 6q-3 -23 -17 -41t-35 -29q-11 -6 -15 -4q-9 -5 -15 1q-5 8 -7.5 16.5t-3.5 17.5q-13 8 -13.5 25t5.5 36t14.5 36.5t13.5 25.5q3 5 6 8.5t6 8.5q15 25 34 48l41 48l9.5 21.5l9.5 21.5l-6 -11q2 5 4 9t2 2 l13.5 30.5t13.5 34.5t9 31.5t0 22.5q-7 18 -21.5 27.5t-31.5 13.5t-36 4h-34q-14 0 -29 0.5t-28 -7.5q-2 -2 -4 -2.5t-4 -2.5q0 -9 1 -13l1.5 -6t1.5 -4.5t1 -8.5q1 0 1 -1h1q-5 -2 -9 -3l-8 -2l-20 -46q-1 -1 -1 -2l-1 -2h1q-2 -1 -2.5 -1.5t-2.5 -1.5q-6 -7 -14.5 -15 t-17 -15t-16.5 -10t-13 0h-1q-7 0 -9 3q-5 8 -3 22q-7 8 -3.5 21zM96 470l2 2zM166 -21l40 35q8 6 11 9l15 13v-5q5 2 8 -2l1 1l15.5 11.5t18.5 3.5q4 -5 6.5 -11l4.5 -11q15 9 18 -3v-5q-2 -22 -19.5 -39t-34.5 -28q-5 -2 -9.5 -4t-8.5 3q-3 3 -5 6t-4 7q-3 -2 -5.5 -3 t-5.5 -3q-11 -11 -22 -17.5t-17 -0.5q-6 8 -6 21q0 12 -1 22zM223 148q2 2 4.5 4t5.5 4h-3q-2 -2 -3.5 -4t-3.5 -4zM243 294q5 5 10.5 9.5t10.5 9.5l28 36.5t25 37.5q-4 -5 -7.5 -8.5l-7.5 -7.5q-12 -19 -26.5 -37.5zM269 385q0 1 1 3v-1zM270 388q0 1 1 2zM271 390l2 5v0 q-1 -2 -1 -3t-1 -2z" />
<glyph unicode="@" horiz-adv-x="601" d="M15 196q-6 51 0.5 97.5t23.5 89.5q5 28 9 43q12 35 36.5 69t52.5 58q58 50 113 69q2 1 4 1.5t4 1.5q27 10 54 17.5t56 8.5q48 1 92.5 -19.5t76 -55t45 -79.5t1.5 -95q-8 -27 -15 -53.5t-24 -49.5q-20 -29 -44 -57.5t-56 -45.5q-9 -6 -21 -11t-22 -6.5t-16 2t-4 14.5 q-2 0 -2.5 -0.5t-2.5 -0.5q-8 -7 -15 -9.5t-12 2.5q-2 4 -2 7q-2 0 -2 2q-3 0 -5 3q-4 15 -5 29.5t0 29.5q-18 -10 -37 -16q-15 -5 -36 -8q-26 -6 -50 -3.5t-42 17.5q-17 13 -21 29t0 33q-1 26 12 51.5t34 47t48 37.5t54 23q21 10 44 13q9 0 19 -5q14 14 33 19h3q1 -1 5 -1 q5 -15 6 -30q11 5 14 -3l1 1v-2q0 -2 2 -10t4 -13l-8 -7q0 -9 -1 -13q1 -2 1 -4q0 -1 1 -3q3 5 6 8.5t6 8.5q1 -10 4 -21t1 -21q-2 -14 -7 -26t-12 -24q2 -19 2.5 -37t-1.5 -34q2 0 10 -2l18 9q40 20 54 60t4 83q-9 38 -42 69.5t-77 52t-93 27t-91 -5.5q-24 -14 -43 -37 l-27 -33.5t-22 -36.5q-3 -5 -5 -10.5l-4 -11.5q-4 -20 -5 -40t-1 -40q-1 -49 0 -84t11 -63.5t33 -55t66 -58.5q35 -26 75 -35t82 4q21 6 40 15.5t35 26.5q5 5 8 12t11 10h1l24 25l24 25q6 -5 5.5 -12.5t-4 -15t-8.5 -14.5t-8 -10q-2 -2 -3.5 -4t-3.5 -4l22 16.5l22 17.5 q-9 -37 -38.5 -65t-67 -48.5t-77 -35.5l-67.5 -26q-24 -10 -51.5 -7.5t-52.5 10.5q-22 6 -39.5 20t-36.5 26q-18 11 -32 33.5t-24.5 48.5t-17.5 51.5t-9 43.5zM220 339q6 -14 20.5 -20t30.5 -5.5t32 6.5t25 15q2 8 3 11l-1 -1q0 9 2 14t9 15l-2 2h4v2v0q0 11 -1 22.5 t-4 23.5l-14 -10l-10 -10q-1 0 -2 0.5t-2 0.5l-8 -5l-10 -10q-2 4 -5 7t-5 7q-29 0 -47 -13q-9 -12 -13 -25.5t-2 -26.5zM455 78l1 1v1q0 -1 -1 -1v-1z" />
<glyph unicode="A" horiz-adv-x="713" d="M13.5 9q1.5 16 6 36t11.5 42t14 41.5t12.5 33.5t6.5 17q3 8 6.5 16.5t6.5 16.5q2 5 3 10t3 10q20 82 42.5 165t51.5 164l-2 -1q2 4 3.5 7.5t3.5 7.5q2 6 5 12.5t5 12.5q2 5 10 15t18 20t19.5 17.5t14.5 5.5q18 20 44 24q5 -1 6 -6q-2 -11 -6.5 -19.5t-10.5 -16.5v-3 q-2 -12 -2 -24t-2 -23q3 12 12.5 24t21 21.5t23 14t19.5 1.5q3 -1 11.5 -16.5t19 -36.5l22 -43.5l19.5 -39.5q9 -17 17 -34l67 -124.5t71 -121.5l26.5 -41.5l32 -48.5t31 -50t22.5 -46l3 -3l-3 -3q-2 -9 -10.5 -21t-19 -21.5t-20.5 -14t-15 0.5q-10 10 -18.5 19.5 t-16.5 19.5q-9 -6 -20 -9l-5 -5q-4 4 -6 7q-9 3 -18 11.5t-17 18t-15 19.5l-12 17l-60.5 79.5t-56.5 82.5q-18 -11 -37.5 -21.5t-37.5 -19t-32.5 -14.5t-23.5 -9l39 59q-31 -14 -61 -31t-59 -31l-11.5 -53.5l-10.5 -52.5t-8.5 -48t-13.5 -42v-1h-1l-6.5 -12.5t-8.5 -12.5 l-9.5 -9.5t-14 -12.5t-14.5 -8.5t-12 2.5q-2 23 0 45.5t7 45.5q-13 -21 -38 -33q-5 -2 -9.5 -4t-9.5 3q-4 6 -2.5 22zM198 262q27 15 56.5 26l61.5 22q7 2 13.5 4.5t14.5 4.5q-2 2 -2 4l-18 29.5t-18 34t-13 35.5t-2 35q3 7 9.5 17t14.5 18q-3 9 -5.5 17.5t-4.5 17.5 q0 10 10 25l-6 12v0q-40 -71 -64.5 -147.5t-46.5 -154.5z" />
<glyph unicode="B" horiz-adv-x="562" d="M11.5 23.5q-0.5 7.5 2 16.5t7 17.5t6.5 11.5q17 21 40.5 37t51.5 8q-7 -8 -14 -15t-13 -15q29 -4 75 7q-4 32 -11.5 63t-9.5 51q-8 50 -9.5 99.5t-6.5 100.5q-5 39 -14 79.5t-9 81.5q-6 -2 -12 -3t-14 -3q-11 -14 -25 -26t-30 -10l-4 3q-6 17 5.5 33.5t30.5 30.5t41 24.5 t36 15.5l65 59q1 -11 2.5 -21t4.5 -20q39 7 86.5 10.5t93 1t85.5 -12t65 -28.5q0 -2 0.5 -2.5t0.5 -2.5q-4 -30 -22 -55.5t-43 -48t-54 -41t-57 -34.5q51 5 98 -1t71 -28q11 -10 14 -23.5t1.5 -27.5t-6 -28t-9.5 -25q-17 -42 -51.5 -79t-77.5 -67.5t-89.5 -55t-87.5 -42.5 q-6 -8 -14 -17.5t-16.5 -16.5t-16 -9.5t-12.5 2.5q-1 1 -1 3l26 23l-25 -20q2 8 2 12q-35 -13 -73.5 -23t-74.5 0q-8 3 -8.5 10.5zM223 584l3 -17v0q5 -36 7.5 -72.5t6.5 -73.5q35 21 73.5 38t73.5 37q20 12 39 27t39 29q-21 15 -49.5 23t-61 11t-66 2t-65.5 -4zM245 355 q5 -55 12.5 -108.5t8.5 -107.5v-4v0q-1 -2 -2 -5.5t-3 -6.5q27 12 54 25.5t50.5 28t43 29t32.5 27.5q18 18 26 36.5t7 45.5q0 20 -22 30t-50.5 14.5t-55.5 4.5t-39 -1q-17 -2 -32 -4z" />
<glyph unicode="C" horiz-adv-x="541" d="M12 279.5q-1 57.5 13.5 112.5t44 104.5t71.5 85.5q29 25 62.5 36.5t68.5 11.5t69 -10t63 -30q2 18 9.5 35t22.5 32l16 -17q5 9 10.5 17.5t13.5 16.5q3 3 -0.5 -5.5t-3.5 -13.5q-2 -9 -1.5 -26t1.5 -25q2 -27 6 -53t7 -52q0 -1 1 -1l-1 -1q0 -1 0.5 -1.5t0.5 -1.5 q-1 -6 -9 -18t-18.5 -23t-21 -17t-17.5 0v1q-19 40 -55.5 72t-81.5 46l-31 -29l-3.5 7t-13.5 -4q-33 -26 -49 -61.5t-20.5 -75t-1.5 -81t8 -78.5q2 -10 2 -20q0 -9 2 -18q4 -13 10.5 -24.5t11.5 -24.5q0 -1 2 -3l-1 -1q0 -6 -5 -16q47 -21 102.5 -20.5t110.5 23.5 q11 4 21 15.5t19.5 24l17.5 23t13 12.5q3 1 -0.5 -6t-7.5 -12l54 36q-2 -5 -5 -11t-5 -8q-7 -10 -10.5 -14l-6 -7l-5.5 -6.5l-10 -11.5q-24 -28 -50 -54t-59 -41q-44 -20 -96 -26t-100.5 5t-87.5 40.5t-57 80.5q-19 53 -20 110.5zM524 222q5 11 4 3z" />
<glyph unicode="D" horiz-adv-x="594" d="M16 16q11 20 28.5 37.5t40.5 22.5q23 11 48 18q-5 23 -5.5 49t0.5 52.5t3 52.5t2 48q0 32 -2 65.5t-5 66.5q0 2 -3 22.5l-6.5 46t-6 49.5t-1.5 33q-14 -2 -27.5 -5.5t-25.5 -7.5l-5 -7q-8 -3 -15 -5t-15 -2q-6 6 -2 15t12 17.5t17 16t13 10.5q42 30 101 37.5t120 -0.5 t117 -29.5t93 -49.5q21 -17 41.5 -42t33 -53.5t15 -59t-11.5 -58.5q-26 -54 -64.5 -98t-85.5 -80t-99.5 -63.5t-107.5 -48.5q-47 -17 -93 -29.5t-90 -34.5q-26 -12 -14 14zM223 570q0 -57 3 -114q2 -43 5.5 -86t8.5 -85q3 -26 10 -59.5t9 -58.5q1 -8 -0.5 -17.5t-3.5 -19.5 q38 14 80.5 33t79.5 45v1q2 12 2.5 21t1.5 16.5t1 16.5v21q-2 61 -17 118.5t-34 115.5l17 16q-37 20 -78.5 31t-84.5 16v-11z" />
<glyph unicode="E" horiz-adv-x="483" d="M12 378q0 42 1 83.5t-1 83.5l10 6l10 6q-2 4 -1 7l-16 -7l1 2t6.5 9t13 14.5t16 14.5t14.5 9q5 5 9.5 8l7.5 5q16 9 33.5 15.5t35.5 11.5q1 0 2 -0.5t3 -0.5q1 -3 1.5 -5.5t1.5 -5.5q38 10 81 13.5t84.5 4t79.5 -1t66 -1.5l-22 -25q6 0 14 -2h4q2 -10 -3.5 -20t-14.5 -19 t-19 -16t-18 -10q-17 -3 -34 -2.5t-34 -0.5q-86 -7 -170 -41l8 12q-8 -2 -14 -3t-12 -3q4 -32 7 -63l6 -63q20 10 47.5 19.5t55.5 17t54 12t42 4.5q8 -1 6.5 -8t-7 -14.5t-11.5 -14t-8 -8.5q-13 -13 -26 -19l-8 -11.5l-8 -10.5q-32 -4 -67 -13t-64 -26l-1 -2q2 -26 2.5 -53 t2.5 -54q0 -17 1 -34.5l2 -34.5l1 1l-1 -2v-25q17 2 31.5 6t30.5 9t34.5 10t41.5 8q51 6 103 6h24q7 0 15 -1q6 -2 5.5 -5.5t-1.5 -8.5q-7 -23 -22 -36l-2 -4l-2 -4q-5 -8 -11 -15t-13 -14v8l-10.5 -11l-11.5 -12q3 2 6 3.5t1 -0.5q-21 -14 -24 -10.5t2 14.5q-5 2 -14 2.5 t-19 0t-18.5 -1.5t-13.5 -1q-30 -3 -59 -8.5t-58 -13.5q-12 -3 -28 -9l-33 -12q-17 -9 -36 -10q-10 -3 -21 -3q-4 -2 -9 -3.5t-10 -4.5q-12 -14 -25 -22.5t-20 -1.5q0 102 -1 202.5zM463 622l1 1z" />
<glyph unicode="F" horiz-adv-x="542" d="M14 470q-3 3 2.5 13t15 22.5t13.5 16.5q13 12 31 23q0 1 0.5 2t0.5 2q-11 -5 -20.5 -8.5t-18.5 -7.5h2l-8 -3l6 3q-20 -9 -19.5 -2t10.5 19.5t23.5 25.5t18.5 16l12 6q0 3 2 9l65 50q-5 -18 -6 -34h1q20 17 27 9q2 1 5 2l6 2q44 6 87 13t82 15t71.5 17t55.5 19 q16 -11 28.5 -24.5t21.5 -18.5q-3 -15 -10 -22t-18 -11t-27.5 -8.5t-38.5 -15.5q-40 -14 -78 -24t-74 -18l-46 -12l-46 -12q0 -16 -0.5 -33t-1.5 -33t-1 -29v-21v-1l4 4q1 -10 3.5 -25t5.5 -35q29 14 59 26l60 24l-20 -29q37 9 74 14.5t73 7.5q11 -2 6.5 -12t-15.5 -21 t-23.5 -21t-17.5 -12l-24 -6q-20 -18 -29 -22q-31 -14 -63.5 -21l-65.5 -14h-2l6 -49.5t4 -46t0 -38.5t-5 -26q-3 -5 -9.5 -13.5t-14.5 -16.5q1 -5 1.5 -8.5t1.5 -7.5q2 -10 4.5 -24t4.5 -24q1 -6 3 -17t1 -8q1 -8 -7 -20.5t-19 -23.5t-22 -17t-17 0q-8 17 -13.5 36t-8.5 39 q-7 -9 -16 -17t-16.5 -12.5t-12 -3.5t-3.5 10q0 4 0.5 6.5t0.5 4.5q1 4 1 13v6q0 4 -0.5 11.5t-0.5 19.5v33v40q-6 23 -9 45.5t-5 45.5l-18 -3q-9 -1 -9.5 4.5t3.5 12t9.5 13.5t7.5 9l6 6q-1 20 -0.5 40.5t2.5 40.5q-3 40 -3 79q0 40 5 80q-8 -3 -14.5 -6.5l-12.5 -6.5 q-21 -14 -24 -11zM29 529l3 1v0q-1 0 -1.5 -0.5t-1.5 -0.5zM42 534l2 1q-1 0 -2 -1z" />
<glyph unicode="G" horiz-adv-x="769" d="M14.5 327.5q8.5 65.5 37 124.5t73 110t98.5 90q37 26 83.5 40.5t92.5 11.5q16 -1 28 -3t27 -5q8 -2 12.5 -1t15.5 5q-2 -14 -9.5 -24.5t-16.5 -20.5q-17 -17 -31.5 -21.5t-30.5 -2.5l-8 -8q-19 5 -43 -4t-49 -25l-6 -11q-6 -3 -12.5 -5.5l-11.5 -4.5q-7 -5 -13 -11 t-12 -11q-7 -10 -12 -23.5t-8 -26t-5 -23.5t-2 -16q-5 -40 -3.5 -85t12 -88.5t30.5 -83t52 -67.5h12t12 -1l-9 -11q14 -9 30.5 -14.5t31.5 -12.5q32 8 62 22.5l59 27.5q7 5 13.5 11t12.5 14l-1 -1q-3 -3 1 5q5 41 10.5 80.5t10.5 80.5l4.5 32.5t4.5 35.5l-45 -19t-44 -20 l-57.5 -30t-58.5 -28q-11 -1 -9.5 6t7.5 16t14 17.5l10 10.5l12 9l1 2l2 1q1 0 3 1l1 1q1 0 2 1q-7 0 -12 3q-9 4 -6 14t11 21t17.5 21t14.5 14q41 32 95 49t105 20l-5 -6q6 2 8 -6q0 -2 0.5 -3.5t0.5 -3.5q8 2 15.5 3t15.5 3q47 21 102 34l-25.5 -33l-24.5 -32l-21 -6 q-8 -7 -14 -11.5t-8 -6.5q-9 -5 -22 -10q3 -14 -1 -29.5t-8 -29.5l-14 -10q-2 -6 -2 -12t-1 -12q0 -5 -1 -14.5l-2 -20t-1.5 -20t-0.5 -14.5q-3 -45 -4 -88t-3 -87l-2 -50t-6.5 -48t-18 -43t-36.5 -34q-5 -2 -9.5 -4t-8.5 3q-6 11 -7.5 27.5t-1 34t2 34t1.5 28.5l2 41t3 41 q-25 -20 -49 -35t-41 -22l-48 -20.5t-48.5 -18t-49.5 -10t-52 1.5q-18 3 -34.5 12.5t-33.5 15.5q-34 11 -57 20t-39 23t-26.5 36t-20.5 59q-18 68 -9.5 133.5zM78 360q-2 -32 3.5 -74.5t23.5 -79.5q-20 87 -13 148.5t40 114.5q2 8 4.5 16t4.5 16l32 22l19 19q20 32 49 57 q11 9 24.5 16l27.5 14q3 2 11 8q-12 -1 -23.5 -3.5t-23.5 -6.5q-42 -14 -73.5 -42t-54 -64t-35.5 -77.5t-16 -83.5z" />
<glyph unicode="H" horiz-adv-x="575" d="M14 254q-4 2 0 13q0 103 12 203q3 22 5.5 49.5t8 55t15.5 52.5t27 42q8 8 19.5 17.5t24.5 7.5q6 -7 6 -14q8 8 17 16t16 12t10.5 2t0.5 -14q-2 -4 -4 -7.5t-4 -7.5l-6.5 -14.5t-5.5 -16.5q2 -5 6 -9.5t8 -8.5l-22 -21q-10 -56 -13.5 -126t-4.5 -132q13 6 26 9.5t27 6.5 q58 15 118 20t115 3l-4 -5h8q-2 59 1.5 115.5t16.5 104.5v12q2 9 10.5 20.5t18.5 21.5t20 16t14 2l3 3v-9q1 -1 1 -2t1 -3v-9l27 16q-2 -5 -6 -13q5 -19 5 -40t-2 -42t-4.5 -42t-2.5 -40q-2 -56 -2 -111t1 -110q1 -9 1.5 -17.5t2.5 -16.5q4 -39 9.5 -78t12.5 -77q0 -3 2 -11 q4 -14 7 -28t5 -28l1 -2l-1 -1q0 -1 0.5 -1.5t0.5 -1.5q-1 -6 -9 -17.5t-18 -22t-20 -17t-17 -1.5q-2 0 -2 -2q0 2 -0.5 2.5t-0.5 1.5q-4 13 -7 26l-6 26q-8 22 -16 41q-5 -1 -10 2l-1 -1v2q-13 17 -20 50t-11 69.5t-6 71t-4 55.5l10 8q-1 4 -1 7q0 4 -1 8q-15 -10 -25 -10 q-35 -1 -67.5 -1.5t-65 -3t-66 -7t-69.5 -12.5v-35q0 -14 -2 -41.5t-2.5 -57t3 -56t13.5 -40.5q1 -1 4 -1l-8 -9q2 -8 2.5 -15.5t1.5 -15.5q-2 -6 -10 -18t-18 -22.5t-20.5 -17t-16.5 -1.5h-1v1q-1 2 -2 4.5t-2 4.5q-15 -13 -24 -7l-2 -2v7q-3 34 -11 66.5t-12 67.5 q-5 38 -6.5 76t-2.5 76z" />
<glyph unicode="I" horiz-adv-x="410" d="M15 609q5 10 15.5 20t22 18.5t18.5 10.5l1 1h1v0q8 2 16.5 2.5t16.5 1.5q10 2 19.5 4.5t18.5 4.5q45 9 88 13t88 -5l-8 -9q1 0 2 0.5t2 0.5q12 2 24.5 4.5l26.5 5.5l-2 -2l13.5 6t14.5 3q1 -1 5 -1v-2l-32.5 -31l-31.5 -30l2 -2q-5 0 -10 -3t-11 -5t-12.5 -3l-12.5 -2 q-1 -31 -7 -61.5t-9 -58.5q-2 -20 -4 -36l-4 -32q0 -24 -0.5 -48.5t-1.5 -48.5l-3 -42q1 -7 1 -14q0 -6 1 -13q2 -41 2 -82q0 -40 7 -80l2 1v-7l-1 -1q-2 -4 -4.5 -9.5t-7.5 -11.5q5 2 10.5 2.5t10.5 1.5l1 1h4l1 -1q8 2 16.5 2.5t16.5 1.5q8 2 22 4q2 0 8.5 -0.5t11.5 -0.5 q1 0 2 0.5t2 0.5h4l-1 -1q7 -3 1.5 -13.5t-16 -21.5t-23.5 -20t-22 -10l-26 -2t-26 -3q-8 -2 -14 -2q-13 -6 -27.5 -8.5t-30.5 -6.5t-32.5 -10.5t-34.5 -21.5q-13 -9 -21 -9q-9 -8 -19 -12.5t-19 -4.5q-5 5 -3 9t5 9q13 26 33 44.5t44 32.5q-8 144 -4.5 287t10.5 288 q0 4 5 14q-14 -2 -28 -4.5t-28 -4.5q-20 -4 -39 -9t-39 -5q-6 6 -1 16zM83 -34l13 6q5 6 10.5 11.5l10.5 10.5v3q-2 -1 -6.5 -2.5t-6.5 -3.5l-6 -6v0l-5.5 -5.5t-2.5 -3t-2.5 -3.5t-4.5 -7z" />
<glyph unicode="J" horiz-adv-x="565" d="M12 197l51 44q3 2 7 6l8 7v-1q12 8 25 6q13 -10 22.5 -36.5l20 -56.5t25 -56t36.5 -35q7 -3 22 -2.5t22 1.5q31 5 47.5 22t26.5 43q2 5 2.5 11t2.5 11l-1 1q0 1 -1 2l3 3q5 26 8 51.5t7 51.5q0 -5 -0.5 -11.5t0.5 -2.5v8t1 8h-1q1 0 1 1q1 12 1 24q0 13 1 26v7 q-2 19 -2 37v38q-2 20 -5 41t-4.5 41.5t0 41t7.5 39.5q-5 -1 -9 -1t-9 -1q-8 -2 -16.5 -3.5t-16.5 -2.5q-15 -1 -10 10q-17 -3 -32.5 -5t-31.5 -2q-5 4 -2.5 11t8.5 14.5t14.5 15l15.5 13.5v4q6 5 12.5 9t12.5 9q12 12 27 21t32 18l-7 -13q3 1 11 3l13.5 4l13.5 4 q4 2 7.5 2.5t7.5 2.5q8 6 16.5 10t16.5 2l1 1v-3q35 9 69 11.5t63 -11.5q2 -7 -0.5 -13t-6.5 -11q2 -5 -3 -13t-12 -15.5t-13.5 -13.5t-8.5 -8q-13 -11 -27.5 -18t-31.5 -12v-23q0 -11 1 -22l2 -104.5t-6 -105.5q1 -18 3 -36t7 -32q2 -8 5 -17t4 -17q1 -54 -17.5 -111 t-53.5 -98q-33 -39 -76.5 -61t-89 -24t-88 17.5t-74.5 63.5q-30 42 -39.5 86t-14.5 94zM214 9q24 -8 50 -8q29 -2 53 7q13 5 24 12t23 13q4 7 7 14l5 12q5 14 9.5 30.5t7.5 30.5q4 19 3.5 37t-3.5 37q-4 -14 -11 -31q-6 -18 -15 -42t-22 -45.5t-30.5 -36.5t-39.5 -15 q-3 2 -3 10q0 3 1 5q-14 -10 -29 -17.5t-30 -12.5z" />
<glyph unicode="K" horiz-adv-x="580" d="M12 579l2 12t3 12q3 7 8.5 16t13 17t15.5 14.5t17 8.5l15 16.5t15.5 13.5t13 5.5t6.5 -7.5v-13l-2 -1q-2 -19 -1.5 -38t1.5 -37q8 3 11 -6q-2 -20 -5.5 -39.5t-5.5 -39.5q0 -2 -0.5 -4.5t-0.5 -4.5q-1 -26 -1 -51v-50l3 -51q57 54 117 103.5l123 98.5l44 34t46 31 t49.5 24.5t53.5 13.5q6 -1 6 -6t-3 -10.5t-7 -10.5t-6 -7q-24 -28 -53 -47.5l-60 -38.5q-2 -2 -3.5 -4t-3.5 -4q-10 -14 -26 -29.5t-33 -29.5l-57.5 -55.5l-57.5 -54.5h1q87 -38 162.5 -88t135.5 -125q2 -1 2.5 -1.5t2.5 -1.5q-1 -1 -2 -1.5t-2 -1.5q0 -5 -2 -9t-4 -9 q9 -11 15.5 -22t8.5 -22h1l-1 -1q0 -8 -1 -12q-1 -2 -2 -3.5t-2 -3.5q0 -2 -0.5 -5t-0.5 -6q-5 -20 -21.5 -36t-34.5 -24q-12 -3 -22 2.5t-18 15.5t-15 21l-12 19q3 2 5.5 5t5.5 6q-28 20 -59 35.5l-61 31.5t-56.5 34t-44.5 43q0 6 1 8l-50 21l-50 20q2 -17 3.5 -32.5 t3.5 -32.5l4.5 -42.5t6 -50.5l7 -51.5t7.5 -45.5l5 4q2 -12 3.5 -23.5t2.5 -23.5q-2 -6 -10 -17.5t-18 -22t-20.5 -17t-16.5 -1.5q-1 0 -1 -1v2q-7 13 -11.5 33.5t-8.5 45.5q-5 -2 -9 -3l-8 -2l-2 2q-6 -3 -11 -1l-4 -4q-1 3 -1 7v6q-8 49 -13.5 98.5t-10.5 100.5l7 6l-3 48 q-2 -2 -3 -2q-13 -1 -9 9t11 20q-3 60 -3 121q0 19 1 46t1 55q0 29 -2 56t-7 48z" />
<glyph unicode="L" horiz-adv-x="592" d="M13 38q-1 47 15.5 90.5l32.5 86.5q8 46 21 78v1l2 4l2 4t5 6.5l9 10.5q2 11 3.5 21t3.5 20v25q-7 -5 -13 -7t-11 3q-1 3 -0.5 11.5t2.5 17.5t4.5 18t3.5 14q2 25 1.5 46t0.5 41q-2 14 -3.5 27t0.5 26q-2 8 -5 12q2 2 4 3t4 3l3 9l-8 -4l2 4q5 8 15 20q6 13 18 25 q9 9 19 17t24 10q1 -1 5 -1q4 -11 -0.5 -22t-8.5 -22q11 9 22 14q3 1 6.5 1.5t6.5 -0.5q8 -7 15 -19l-13 -12h1q8 -31 3 -63.5t-13 -64.5q8 2 9 -7q-8 -68 -9.5 -135t0.5 -136q1 -35 3 -72t-2 -73q2 1 3.5 1.5t3.5 1.5q27 10 54 12.5t53 1.5t52 -3t51 -1h2l27 6t27 5 q4 1 7.5 1.5t8.5 1.5q3 2 6.5 3t7.5 3l-2 -4q20 4 41 6.5t33 -0.5t10.5 -14.5t-25.5 -35.5l-10 9q-8 -11 -19.5 -20.5t-19.5 -14.5q-34 -20 -84.5 -22t-103.5 -1q-11 -3 -22 -5.5t-22 -6.5q-19 -5 -40 -13t-42.5 -15t-43.5 -12t-42 -3l-3 3q-7 -2 -13.5 -3t-10.5 0 q-8 1 -7 8.5t5.5 16t10 15.5t6.5 8q-10 -9 -20 -14t-15 0q-6 10 -7 20.5t0 21.5v27q-2 -2 -8 -6q-5 -4 -14 -9.5t-15 0.5z" />
<glyph unicode="M" horiz-adv-x="624" d="M13.5 -15.5q-1.5 32.5 0.5 71t7.5 80.5t13.5 84q-1 26 -1 51v52q0 22 0.5 43t5 39.5t14.5 35t29 30.5q2 11 4.5 21l5.5 21l4 12l4 12q-1 5 -1.5 9t-0.5 9l12 10q2 10 2.5 19t-2.5 19l65 62q5 -15 4 -28.5t-6 -27.5h9q20 -51 31 -104t25 -106l11.5 -38.5l10.5 -35.5 q6 -21 15 -38v2q3 14 6.5 27t8.5 27q5 15 11 30.5l12 30.5q1 1 0.5 1.5t0.5 1.5q3 9 8 21.5t9.5 26t6.5 26.5t-2 23l36 34q2 5 4.5 9.5t4.5 9.5q15 31 32 59.5t41 53.5q7 8 14.5 13.5t16.5 10.5q2 1 4 1q3 0 5 1q3 1 6 1q3 -2 5 -5q2 -11 -3.5 -30.5t-13.5 -38.5 q8 -14 13.5 -48.5t8.5 -73t5 -73.5t3 -51q3 -50 6.5 -100t12.5 -99l1 -1q9 -31 22.5 -59t24.5 -57q2 -2 2.5 -3t2.5 -3q-2 -2 -3 -2.5t-2 -1.5q-2 -7 -6 -13q6 -13 16 -25l-7 -7q7 -19 13 -39t10 -40q-2 -6 -10 -18t-18.5 -22.5t-21 -16.5t-16.5 0v-1v2q-21 45 -36.5 91.5 t-32.5 91.5l-19.5 49t-19 52.5t-14.5 54t-6 53.5q-2 4 -2 6l3 3q5 13 15 26l-2 14t-2 15q-6 32 -11 64.5t-8 65.5q-13 -26 -25 -53t-20 -53.5t-11.5 -52t0.5 -49.5l9 6q-8 -22 -21.5 -38.5t-33.5 -27.5q-5 -2 -9.5 -4t-9.5 3q-3 11 -3 21l-4 -4q0 -2 2 -4l-3 -3q-1 -1 -1 -4 l-11 -14.5t-17.5 -20.5t-19.5 -15t-16 1q-22 50 -41.5 101.5t-35.5 105.5q-5 -33 -8.5 -65.5t-6.5 -65.5q0 -51 1 -100.5t1 -100.5q0 -2 1 -2l-1 -1q-1 -5 -7 -14.5t-14.5 -19t-17.5 -17.5t-17 -9v-1l-9.5 -9.5t-14 -12.5t-14.5 -8.5t-12 2.5q-6 24 -7.5 56.5zM347 243l6 5 h-5v0q0 -1 -0.5 -2t-0.5 -3zM500 698l1 -1v0q-1 0 -1 1z" />
<glyph unicode="N" horiz-adv-x="541" d="M13.5 375q-0.5 88 3.5 178q0 8 -0.5 24.5t-0.5 35.5q0 20 1.5 39.5t5.5 32.5q0 2 -0.5 4.5t-0.5 4.5l7 4q6 8 15.5 19t19 19.5t17 10.5t9.5 -7q2 -11 3 -21.5t3 -21.5q11 6 22 5q1 -1 2 -1t2 -1l-3 -3q2 -5 3.5 -12.5t3.5 -10.5q5 -15 10 -25q3 1 5.5 1.5t5.5 0.5 q1 2 5 6q0 -2 0.5 -3.5t0.5 -3.5q8 -12 12 -28t7 -31q17 -44 38.5 -85l44.5 -83l28 -53t29 -53q20 -28 42 -55.5l44 -53.5q-2 29 -1.5 58t-0.5 58q-1 23 -3.5 55.5t-5 69t-2.5 73.5q0 38 5 72.5t16.5 62.5t31.5 45q7 6 15 11.5t18 3.5q6 -4 6.5 -19.5t-1 -34t-4.5 -36 t-4 -25.5q1 -23 1.5 -40t1.5 -19q5 -59 14.5 -117.5l18.5 -117t16.5 -117t8.5 -117.5q-3 -9 -16 -27q2 -2 3 -2l-2 -2q1 -10 -5.5 -20.5t-16 -19.5t-20.5 -15t-20 -7q-5 5 -10 9.5t-10 9.5q-5 4 -11 11q-3 3 -5.5 6.5t-4.5 7.5q-18 21 -34 42.5l-33 43.5q-13 14 -25 31 q-4 4 -5 7l-45 58t-42 60q-16 24 -29 50l-26 52l-13.5 25t-12.5 25q6 -39 11 -81t8 -82.5t3.5 -79t-2.5 -71.5q-3 -13 -13 -26t-23 -23q-2 -25 -11 -47t-28 -41q-8 -8 -17 -14t-20 -7q-12 3 -13 19t-1 25v109q0 25 0.5 50t0.5 50l-1 -1q-26 88 -26.5 176z" />
<glyph unicode="O" horiz-adv-x="588" d="M15 387.5q4 44.5 18 86t39 74.5q17 23 37 43.5l40 42.5q15 17 45 34t64.5 27.5t68.5 10.5t58 -17l6 6q57 -19 96 -51.5t58 -92.5q5 -16 4 -32t4 -32l16.5 -68t4.5 -87q-7 -62 -40 -122t-83 -104.5t-113 -68t-129 -11.5q-36 6 -65 24t-51 43.5t-37.5 57t-24.5 65.5 q-11 39 -15.5 83t-0.5 88.5zM97 504q30 48 73 82q14 11 40 26.5t58 28.5q-21 0 -44 -7.5t-43.5 -19t-36 -25t-23.5 -27.5q-14 -25 -24 -58zM157.5 369q1.5 -37 9 -74t22.5 -69.5t40 -55.5q8 -8 17 -13l18 -10q23 0 49 4.5t50 13t42.5 19.5t26.5 25q21 38 24.5 89t-6 103 t-31 99.5t-51.5 77.5q-5 5 -12 8l-14 6l-6 -6q-18 17 -49 11t-63 -21l-8 -13q-20 -9 -31 -22t-16.5 -29t-7.5 -35t-3 -40q-2 -31 -0.5 -68zM279 91q45 -6 83.5 5t68.5 35t49.5 59.5t25.5 78.5q-9 -23 -22 -44q-8 -11 -19.5 -23l-23.5 -23.5l-22.5 -21t-17.5 -16.5 q-12 -11 -46 -25.5t-76 -24.5z" />
<glyph unicode="P" horiz-adv-x="516" d="M15.5 525.5q-8.5 36.5 1.5 69.5v1h1q7 20 22 35q8 8 19 17.5t25 7.5q3 -4 6 -7l6 -6q13 10 27 10q6 2 12 4.5l11 4.5q19 9 38.5 15.5t40.5 8.5q35 3 73.5 0t74.5 -14.5t67.5 -31.5t52.5 -50q11 -16 10 -36.5t-8.5 -41.5t-18 -40t-18.5 -32l-26 -43t-25 -39 q-34 -74 -98.5 -120.5t-152.5 -61.5q1 -42 1 -84v-84v-2l-1 -1q-4 -8 -15 -22.5t-23 -24.5q-11 -14 -25 -25t-22 -6q-2 0 -2 -2v3q-1 3 -1.5 5.5t-1.5 5.5q-4 -4 -8 -7.5t-8 -8.5q-7 14 -8 39t0.5 51.5t4 50.5t3.5 36q5 89 0.5 177.5t-19.5 176.5q-7 35 -15.5 71.5zM148 436 q2 -32 3 -62.5l2 -62.5l6 2l-6 -7q0 -4 0.5 -7.5t0.5 -8.5q2 4 4 7.5t3 5.5q1 3 3 -3t6 -8q8 -5 19 -4.5t20 1.5q25 1 49.5 3.5t48.5 10.5q17 5 28 11q3 2 4.5 4t3.5 4q4 5 7.5 10t7.5 10q12 29 16 61t1 64t-14 61t-30 51l16 15q-45 19 -97.5 23.5t-92.5 -1.5 q-2 -45 -4.5 -90t-4.5 -90z" />
<glyph unicode="Q" horiz-adv-x="577" d="M14.5 309q5.5 48 21.5 95.5t40 90.5q13 23 31 43t35 41q10 12 28 27.5t40.5 30.5t47 27t46.5 17q24 12 47 15.5t43 -5.5l21.5 -12l21.5 -12l-10 -10q18 -9 27 -13t15 -11.5t11.5 -22.5t17.5 -45l6 -15.5t5 -15.5q18 -36 26.5 -76.5t9.5 -80.5q15 -50 19 -98.5t-14 -81.5 l-10 -19.5l-15.5 -29t-18.5 -31.5t-19 -27q10 -17 17 -32q8 -18 14.5 -37t15.5 -36q4 -6 5 -7q-1 -1 -2 -1.5t-2 -1.5q-2 -9 -10 -20.5t-18 -20.5t-20 -14t-16 0v-1q-1 2 -1.5 2.5t-1.5 2.5q-11 17 -26.5 45l-32.5 61q-11 -8 -22.5 -15t-24.5 -10q-11 -3 -22 -4t-22 -1 q-44 -9 -87 -7.5t-79 14.5q-26 8 -45.5 29t-34.5 43q-9 13 -16.5 25.5t-12.5 26.5q-21 39 -27.5 84.5t-1 93.5zM111.5 377.5q1.5 -27.5 2.5 -48.5q1 -29 1.5 -56t3.5 -51t10.5 -45.5t21.5 -40.5q23 -20 52 -35.5t67 -25.5q24 -7 57 -6t59 6q-13 28 -24.5 55.5t-19.5 53 t-12 46.5t-1 36q3 8 10 18.5t15.5 19.5t18.5 14.5t20 3.5q7 -3 8.5 -9t1.5 -12v-9t4 -3q4 -45 20.5 -83t37.5 -75q7 20 10 42.5t5 40.5q2 21 -1 59t-10 83q-19 53 -50 100.5t-73 76.5q-14 9 -30.5 13.5l-33.5 9.5q-23 -4 -45.5 -13t-40.5 -17q-29 -14 -49.5 -38.5 t-34.5 -55.5q-2 -27 -0.5 -54.5zM181 557q4 2 7 5t7 5q20 14 52.5 28.5t67.5 22.5l9 10q-20 3 -41 -3l-5 -6q-8 0 -13 -1q-23 -10 -44 -26t-40 -35z" />
<glyph unicode="R" horiz-adv-x="506" d="M12.5 577q3.5 9 14 20.5t23.5 22.5t16 13q1 1 2 1t2 1q11 10 21 16.5t24 9.5l-8 -10q26 10 52.5 16.5t52.5 11.5q15 3 24.5 4t18 2t18 0.5t25.5 -0.5q37 -2 59.5 -15.5t33.5 -35.5q8 -6 11 -9q8 -11 6.5 -25t2.5 -25l10 -21t6 -22q0 -16 -9.5 -31t-17.5 -26 q-11 -17 -25 -30.5t-30 -25.5l3 -5q15 -9 27.5 -21l21.5 -21q31 -33 47 -61.5t23.5 -56.5t8.5 -56.5t2 -60.5q9 -30 14 -59t-3 -46q-5 -11 -12.5 -19l-15.5 -16q-3 -3 -8 -7.5t-11 -8.5t-11.5 -5t-9.5 3q-4 17 -4.5 36.5t-0.5 38.5q-6 27 -15 54l-17 53l12 11.5l12 11.5 q-5 18 -10 32q-6 14 -20 34t-31 40.5t-34.5 37.5t-31.5 25q-15 0 -25 6q-3 2 -3 9q-28 -11 -57 -20.5l-55 -18.5q-1 -1 -4 -1v-38q0 -18 1 -36q1 -9 1.5 -17.5t2.5 -17.5q3 -25 8.5 -49.5t10.5 -49.5q1 -5 2 -11t3 -13q2 -14 3.5 -28t1.5 -28v-3l-2 -2q-3 -7 -11 -18 t-17.5 -20.5t-19 -14.5t-15.5 0h-1v1q-1 11 -1.5 21.5t-2.5 21.5q-10 -10 -19.5 -14.5t-15.5 1.5q-4 10 -5 19.5t-2 20.5q-4 20 -4.5 47t0.5 50q-3 60 -3 118t2 117v31q-2 22 -3 44.5t1 44.5q-1 10 -1 19v20q-2 8 -3 15t-2 15q-13 -4 -22 -5q-15 -1 -11.5 8zM140 392 q4 0 7 0.5t7 0.5q5 3 11.5 6l16.5 8l36 20t36 22l28.5 19t30 24.5t20.5 30t-1 35.5q-4 8 -6 11q-14 6 -32 9.5t-24 5.5q-30 5 -64 6.5t-61 -6.5q1 -2 2 -3.5t2 -3.5l-3 -3q2 -8 4.5 -15.5t3.5 -15.5q2 -17 -1.5 -35t-5.5 -35q-2 -20 -3.5 -40.5t-3.5 -40.5zM268 420 q31 11 58 24t35 30q-2 5 -3.5 10t-3.5 10q-17 -20 -39.5 -38.5t-46.5 -35.5z" />
<glyph unicode="S" horiz-adv-x="583" d="M12 5q8 8 16 15t16 15q-3 9 -9 18q1 9 7.5 20t16 21t20.5 16.5t21 4.5l1 1q0 -2 2 -4q6 -8 12 -8l-7 -8q1 -6 5 -11q4 -8 16 -15l2 2q39 -8 72.5 -9t65.5 4q16 15 31 30.5l32 31.5l1 1l4.5 4.5t5.5 4.5l5 5l16.5 16l17.5 16q3 3 6.5 5.5t6.5 5.5q9 33 8.5 66t-13.5 73h-3 l-2 -2v1q-36 -7 -71 -18t-70.5 -20.5t-70.5 -14.5t-70 1q-11 2 -21 7l-20 10q-12 5 -16.5 16.5t-2.5 25.5q-4 13 -1.5 28t8.5 32q1 15 2.5 30t4 28.5t4.5 23t3 13.5q1 3 4 9t6.5 12t6.5 10.5l3 4.5q15 25 37 44.5t46.5 35t51 29l51.5 26.5q23 12 45 25t49 16q12 1 24 -1 t24 -5q6 -1 12.5 -1.5t13.5 -1.5q17 3 35.5 3.5t37.5 -1.5l-57 -66q-8 0 -12 1l-2 -3l-13.5 -2t-14.5 -3h-3q-27 -5 -59 -14t-65 -22q-39 -26 -78 -62q-13 -35 -21 -71.5t-2 -71.5q28 -1 59 7t62.5 17t63 16t59.5 4l18 -4.5t20 -4.5q27 3 46 1.5t31 -12.5q11 -2 14 -6 q12 -20 13.5 -38.5t-4.5 -35.5q0 -25 -11 -50t-28 -48q-13 -24 -32.5 -46.5t-40.5 -43t-42 -39t-37 -34.5q-32 -35 -58.5 -52.5t-56.5 -22.5q-27 -11 -55 -17q-2 0 -4.5 -0.5t-4.5 -0.5q-8 -6 -11 -9q0 2 1 3.5t1 3.5q-20 -3 -36 -3t-31.5 2t-31.5 7t-37 11l-21.5 8 t-17.5 14zM115 415q2 -10 6 -15l9 42q-9 -13 -15 -27zM124 510q21 26 49 49q2 3 3.5 6t3.5 6q-14 -8 -25 -15.5l-18 -12.5q-7 -7 -13 -33zM322 83l45 26q3 7 5.5 13.5t5.5 13.5q-15 -13 -28.5 -26.5zM459 238l11.5 10l11.5 10q-1 17 -9 36q-2 2 -2.5 4.5t-2.5 4.5 q-1 -32 -9 -65z" />
<glyph unicode="T" horiz-adv-x="662" d="M13 568.5q4 8.5 14.5 20.5t23.5 22.5t16 12.5q2 1 5 1.5t8 2.5l11.5 11t7.5 7q5 4 12 7t15 5l13.5 8t14.5 8q17 8 32 8h34l-13 -15q44 0 88.5 -3t74.5 -1q24 2 47.5 2.5t48.5 2.5q11 0 21.5 1t21.5 -1q1 0 1.5 -0.5t1.5 -0.5h2h4l-1 -1q8 -5 -1 -19q5 0 9 -0.5t9 -1.5 q12 1 30.5 1.5t36.5 -0.5t31.5 -4t16.5 -10q2 -11 -3.5 -18.5l-11.5 -15.5q-26 -32 -49.5 -37.5t-50.5 1.5q-14 -11 -26 -16h-5q1 1 3 5l-4 -5q-9 7 -23.5 10.5t-31 5t-33.5 1t-31 -0.5q-2 -14 -5.5 -27.5t-5.5 -27.5q-1 -2 -1 -5q0 -2 -1 -4q-1 -36 0 -76t3.5 -80t5.5 -77 t6 -66q5 -40 13 -78.5t10 -79.5q-2 -8 -12.5 -22.5t-23.5 -25.5q0 -2 0.5 -4.5t0.5 -4.5q-1 -6 -9 -17t-17.5 -21.5t-20 -17t-17.5 -2.5l-1 -1q0 -1 -1 -2q0 2 -0.5 3t-0.5 2q-16 67 -22 138t-7 143.5t1 144.5t2 140q0 12 11.5 28.5t25.5 29.5q1 2 2 4.5t2 4.5 q-3 0 -6.5 -0.5t-6.5 -0.5q-29 -5 -55 -10t-47 -8q-26 -4 -53 -4q-26 0 -52 -1h-4l-28 -10t-24 -3l-3 3v3q1 12 7.5 22t16.5 19q-11 -3 -21 -6t-21 -4q-15 -1 -11 7.5z" />
<glyph unicode="U" horiz-adv-x="598" d="M15 501q-7 44 1 89q5 11 12 21.5t18 18.5q4 9 13 20.5t19 20.5t18.5 13t11.5 -2h1l2 2q1 1 2 1.5t2 1.5q1 0 1.5 0.5t1.5 0.5q2 1 3 2t3 1l1 1q5 2 8 -1l2 -2q0 -2 1 -3v-17l32 31q7 -21 2 -40t-6 -40q-2 -29 -2.5 -54t-0.5 -54q0 -46 0.5 -91.5t6 -90.5t16.5 -89t31 -85 q7 -6 14 -10.5l15 -9.5l15 10v7q34 -17 71.5 -23t75.5 -6q7 39 9 73t1 67.5t-3 68.5t-3 74q-2 45 2 88.5t0 88.5l55 47q0 1 0.5 2t0.5 2q8 18 24 35t36 22h2q1 0 1.5 -0.5t1.5 -0.5l19 16q2 -49 6.5 -98.5l9 -98.5t7.5 -98t0 -99q-1 -10 2 -18.5l6 -17.5q4 -16 2.5 -33 t-7 -34.5t-13.5 -33t-17 -28.5q-19 -30 -45.5 -55.5t-57 -45t-65 -31.5t-69.5 -15q-35 -8 -68.5 -9t-60.5 6q-34 9 -58 31t-39 52q-17 33 -25.5 83.5t-11.5 109.5q-6 35 -10.5 69.5l-9.5 69.5q-6 44 -13 88z" />
<glyph unicode="V" horiz-adv-x="658" d="M12 625q1 0 1 1q2 9 8.5 20t16 20.5t20.5 15.5t20 4q12 -28 19 -54q6 4 9 5q9 12 22 21t25 12h3q5 -1 6 -6v-12q7 -19 13 -37.5t13 -35.5l19 -52.5t18 -51.5l40.5 -125.5t44.5 -124.5q13 -32 30 -67q5 21 9.5 36t6.5 20q24 82 57 161t71 157q14 30 29.5 60t41.5 53 q7 6 15 11.5t18 3.5q6 -6 6 -19q20 20 38 27q10 2 12 0t0 -12q-11 -32 -30 -58l-39 -52q-2 -5 -3 -9.5t-2 -6.5q-18 -57 -41 -111.5l-46 -109.5l42 13l-45 -58t-41 -61q-9 -16 -15.5 -33l-13.5 -34q-2 -6 -3 -12t-3 -12q-2 -9 -5.5 -16.5t-8.5 -15.5q-1 -1 -1 -2 q-2 -2 -3.5 -5t-3.5 -5l5.5 -14.5l5.5 -14.5l2 -2l-1 -1q1 -8 -7 -20.5t-19 -23t-22 -16.5t-17 -1v-1q0 1 -1 1v1q-5 6 -9 12.5t-9 13.5q-4 -2 -7 -2q-11 -11 -22.5 -17t-17.5 -1v-1q0 1 -1 1v1q-8 8 -10.5 17t-2.5 20l2 2q-12 36 -27.5 72l-32.5 72l-34 71t-31 69 l-34.5 83.5t-30.5 84.5q-8 23 -13.5 46.5t-13.5 46.5l-13.5 26.5t-7.5 29.5zM158 664l1 1v0q-1 0 -1 -1zM583 644l1 1z" />
<glyph unicode="W" horiz-adv-x="615" d="M12 598q2 1 4 3q3 8 9 17.5t14 17.5t17 13.5t18 5.5q1 1 1.5 2t2.5 2q0 -3 1 -4l12 -33l-4 -4l48 -215l46 -216l-1 1q0 1 -1 2l2 -4q0 -2 0.5 -3.5t0.5 -3.5l16 -43l16 -42q2 11 5 22l6 22q2 8 4 12q4 41 17.5 75.5t47.5 48.5q8 8 17 13t19 3q4 -2 5 -4q3 2 6 3.5t6 3.5 q1 0 1.5 0.5t1.5 0.5q3 1 6.5 1.5t6.5 -0.5q6 -12 10 -25.5t9 -25.5q14 -38 30.5 -75t31.5 -74q2 -4 4 -7.5t4 -7.5q2 25 4.5 48.5l4.5 43.5q3 50 5 106t8 112t18 108.5t34 94.5q2 3 11 13.5t19.5 20t19.5 13.5t11 -6q0 -5 -0.5 -10.5t-1.5 -10.5q3 1 11 1q3 -6 4 -12.5 t3 -12.5l-14 -13q-1 -8 -1.5 -15.5t-0.5 -13.5q-4 -32 -9 -63.5t-9 -63.5q-8 -57 -14.5 -114t-14.5 -114l-2 -13.5l-2 -13.5q2 -29 1.5 -60.5t-8.5 -50.5q-3 -7 -8 -13.5l-10 -12.5l-3 -27q-2 -5 -9 -15t-15 -20q-3 -11 -8.5 -21.5t-15.5 -20.5q-8 -7 -18 -15t-21 -8 q-5 0 -12 9t-13.5 20t-11 20.5t-4.5 10.5q-23 43 -42 87.5t-36 90.5l-4 10.5l-4 10.5q-2 -42 -3 -83t-8 -83q-1 -6 -9.5 -18t-19 -23t-21 -16.5t-16.5 0.5q-2 2 -2 4q-2 0 -2 -2q-8 4 -10 18q-17 -15 -27 -12q-11 -8 -19 -6l-2 -2q-2 4 -4 12q-2 5 -3 9t-3 8q-29 92 -54 185 t-45 188q-4 17 -9 41t-8 49.5t-3.5 49.5t5.5 41q-5 18 -8.5 36.5t-8.5 36.5q0 1 -2 5z" />
<glyph unicode="X" horiz-adv-x="534" d="M12.5 -60q1.5 9 12.5 24.5t34 35.5q1 1 1.5 2t1.5 2q13 34 30 70q15 41 37 84q36 76 84 154q-17 26 -32.5 52.5t-29.5 55.5l-10.5 21l-20.5 40l-26 49l-26.5 48.5t-22.5 38.5t-15 18q-6 4 -2 14q-8 22 -0.5 42.5t21 35t29 20.5t23.5 -1q9 -7 16.5 -21.5t14 -31l13 -32 t12.5 -26.5l43.5 -75.5t42.5 -76.5l16 -36l16 -36l37.5 57l38.5 56l32.5 50.5t41.5 51.5q17 23 36 39q4 7 10.5 15.5t14 16t16.5 12t18 2.5q1 -2 1 -5q0 -2 1 -4l-5 -5q1 0 3 2q-5 -9 -9 -17.5t-9 -16.5q0 -2 -1 -4t-1 -5q-38 -66 -78.5 -127.5l-81.5 -124.5l1 -1 q-1 2 -5.5 -13t-15.5 -32q-4 -5 -7 -10.5t-7 -10.5l7.5 -15.5t8.5 -15.5l51.5 -75l51.5 -75l23 -37.5l22 -38.5q14 -17 27 -36t20 -39l1 -1l-1 -1q0 -9 -8 -21.5t-19 -23t-22 -16t-16 -0.5l-25 39.5l-23 38.5q-2 3 -4 5.5t-4 5.5l-51.5 70.5t-48.5 73.5q-11 17 -21 35 t-19 36q-2 2 -6 8q0 -1 -0.5 -1.5t-0.5 -1.5q-9 -17 -22 -39t-25.5 -46t-23.5 -48.5t-17 -46.5l15 9l-12.5 -24t-13.5 -22q-2 -2 -13 -14t-22 -20q-2 -3 -4.5 -5.5t-4.5 -5.5q-4 -10 -5 -15q-2 -3 -12.5 -15.5t-22.5 -23t-20.5 -14.5t-7.5 11v1q-13 -7 -20 -4.5t-5.5 11.5z " />
<glyph unicode="Y" horiz-adv-x="465" d="M12 587q2 15 11.5 26t20.5 21q22 19 30 19q14 9 27 8q35 -64 79 -119.5l91 -111.5q8 -11 17.5 -21t18.5 -21q6 26 19 44q-3 42 -5 84t-2 84q-1 1 -1 2l1 1q1 8 7 18.5t14.5 19.5t19 15.5t19.5 6.5q2 2 3 3.5t3 3.5v-9q4 -7 9 -10l-9 -9q2 -106 12 -208.5t22 -205.5 l5 -34.5t8 -60.5l12 12q2 -9 5.5 -18.5t3.5 -18.5q-1 -11 -5.5 -20.5t-11.5 -18.5q0 -14 -1 -25t-4 -16l-11 -14.5t-17.5 -20.5t-19.5 -15t-16 1q-6 7 -11 19l-3 -3l-17 -10.5t-20 -11.5q-25 -23 -57.5 -48t-66.5 -44.5t-66.5 -29t-58.5 -1.5q-20 7 -28.5 21.5l-17.5 30.5 q2 21 21.5 39.5t38.5 23.5h4h1v-1q7 -2 13.5 -5t14.5 -4q20 -2 47.5 4.5t55.5 16.5t54.5 21t45.5 20q4 8 7 15.5t5 9.5q-5 38 -8.5 75.5t-5.5 75.5q-4 18 -7.5 37t-5.5 38q-2 -3 -5 -6l-5 -5q-19 10 -39 32q-29 24 -52.5 56l-44.5 61q-33 42 -63.5 85l-62.5 85l-3 -2 q-4 4 -8 6t-7 7z" />
<glyph unicode="Z" horiz-adv-x="645" d="M12 205l25 29q2 17 15.5 30t27.5 24q16 10 27.5 9.5t25.5 -1.5l116 32l3 3l48 64.5t52 61.5q24 26 51.5 46l56.5 40l21 24q-66 -5 -132 -15t-127 -21q-9 -2 -23 -4.5l-28.5 -5t-29 -5.5t-25.5 -8q-2 -2 -4.5 -2.5t-4.5 -2.5q-15 -7 -18 -4.5t1 10.5l-6 -5q-4 20 12 36 q-8 -2 -16 -3t-16 -1l-3 3q-1 1 -1 3q1 14 10 25t19 20h-1q-14 -2 -29 -3.5t-29 -1.5l-3 3q0 1 -0.5 1.5t-0.5 1.5q2 20 18.5 36t33.5 25q13 4 29.5 5.5t32.5 -0.5q20 3 40.5 5.5t41.5 4.5q17 1 34 1h34q62 12 121 16t100 1q4 0 14 -1.5t22.5 -3t26.5 -3.5t26 -5 q2 0 4.5 0.5t4.5 0.5l-2 -2q7 -2 12 -4t7 -4q1 -1 -1.5 -0.5t-3.5 0.5l-21 -24q8 1 16 1h17l-57 -66h-20q-15 -22 -34 -41.5t-39 -37.5l-54.5 -69l-54.5 -69q16 2 31.5 3.5t32.5 3.5q17 1 26 1q10 0 18 -0.5t17.5 -1l27.5 -1.5h11q8 0 16 -1.5t13.5 -4.5t5.5 -10 q-1 -9 -6.5 -17.5t-10.5 -15.5q-13 -16 -22.5 -22.5t-19 -8t-21 0.5t-28.5 3q-18 2 -31 3t-25.5 1.5t-25.5 0.5h-30l-33 -3q-12 -16 -21 -30q-29 -42 -49.5 -84.5t-40.5 -88.5q-2 -6 -4.5 -12t-5.5 -11q18 14 36.5 26t40.5 22q31 14 62 19t62 7t63 2t65 3q26 2 52 8t53 7 l-52 -60q12 -1 23 -6t23 -9q2 -8 -1.5 -16t-9.5 -15t-13 -12.5t-12 -10.5q-7 -6 -19 -11v-2h-3q-29 -11 -64 -10t-65 2q-89 -16 -168 -33.5t-161 -43.5l-7 -9q-6 -1 -11.5 -1.5t-10.5 -1.5q-12 -17 -26 -28.5t-28 -8.5q-4 4 -2 9v3q-11 -3 -9.5 3.5t9.5 16.5q1 7 1.5 13 t2.5 12q14 50 46.5 106.5t74.5 113.5l26 37.5l27 38.5q1 2 2 3t2 3q-18 -21 -38 -41l-9 -9q-8 -8 -16.5 -15l-16.5 -14q-20 -14 -25.5 -8.5t8.5 25.5t29.5 39.5t32.5 38.5q-19 -6 -39 -14.5t-40.5 -15.5t-41 -12t-40.5 -5z" />
<glyph unicode="[" horiz-adv-x="330" d="M13 277.5q-1 34.5 0.5 75.5t8 83.5t19.5 74.5q1 20 -0.5 38.5t-0.5 36.5t7.5 35.5t22.5 34.5q11 12 22.5 19t28.5 7l-16 -19q15 5 30.5 9l32.5 8l-9 -11q22 1 43.5 -0.5t43.5 -0.5q23 7 42.5 11.5t28.5 -0.5q2 -10 -3.5 -20t-14.5 -18.5t-19 -15.5t-18 -10 q-17 -8 -34.5 -10.5t-34.5 -2.5q-16 -5 -32 -8.5t-30 -5.5q-1 -11 -2.5 -21t-3.5 -20q-1 -42 -2.5 -82.5t-2.5 -82.5l3 -123q1 -34 -0.5 -69t3.5 -70q0 -2 1 -3l-1 -1v-1q1 0 1 -1q-2 -7 -7 -14v-26q-2 -8 -10 -19q-3 -12 -10 -20q3 3 7 5l1 1h1q4 2 7.5 3t7.5 3 q10 4 18.5 8.5t19.5 8.5q36 13 74.5 17t75.5 -9q2 -10 -3.5 -18t-11.5 -15q-13 -16 -26.5 -24t-28.5 -12t-32 -5.5t-35 -4.5q-31 -5 -61 -12.5l-60 -15.5h-1q-2 0 -3 -1v1q-7 0 -8 4.5t3 10.5t11 13.5l14 14.5q2 3 4.5 5t3.5 4q-13 -7 -24 -11q-6 -2 -10 2q-6 8 -9.5 23.5 t-6 33t-3.5 32.5t-2 22l-2.5 23.5t-2.5 29.5l-2 29.5t-1 24.5q-1 17 -2 51.5z" />
<glyph unicode="\" horiz-adv-x="479" d="M12 649l1 1q1 9 7 19.5t15 20t19.5 15.5t20.5 5l2 2v-2h1q15 -17 30 -36t26 -40q14 -29 23.5 -59t23.5 -59q8 -16 14.5 -31.5t14.5 -31.5q11 -18 18 -31t9 -15q25 -43 51.5 -83.5l54.5 -81.5l62.5 -80t57.5 -83q2 -1 2.5 -2t1.5 -2q0 -7 -2 -11q1 -2 1 -3t1 -3 q-2 -6 -10 -18t-18.5 -22.5t-21 -16.5t-16.5 -1v1q-6 8 -11.5 16.5t-11.5 16.5q-5 5 -7 8h-1q0 1 -1 1l-1 1q-45 48 -87 104q-46 59 -84.5 120.5t-74.5 125.5l-30.5 49.5l-31.5 48.5q-9 12 -17 25t-14 27q-2 5 -2.5 11.5t-1.5 13.5l-3.5 9l-3.5 9q0 7 2.5 12.5t6.5 10.5 q-10 19 -14 38q-1 0 -1 1z" />
<glyph unicode="]" horiz-adv-x="295" d="M15 618.5q5 9.5 14.5 19t20 18t15.5 11.5q21 7 49.5 12.5t58.5 8t58 1t49 -9.5q0 -2 0.5 -2.5t0.5 -2.5q0 -3 1 -4q-3 -12 -11 -23v-6q8 3 11 -6q2 -11 -1 -22t-5 -22q-2 -2 -3 -2q2 -38 3.5 -76t0.5 -76q-4 -88 -10 -175t-8 -176l1 -1v-3q-1 -1 -1 -3l1 1q-1 0 -1 -1v-1 v-15q4 2 7.5 4t7.5 4q-4 -7 -7.5 -12.5t-7.5 -10.5v-1q-1 -4 -6 -12q-1 -1 -1 -2t-1 -2q-1 -2 -1.5 -2.5t-1.5 -2.5q-2 -2 -3.5 -4.5t-3.5 -4.5l-2 -2q-3 -3 -4 -5q-2 -1 -2.5 -2t-1.5 -2q-3 -4 -6.5 -6.5l-6.5 -4.5l-2 -2l-4 -2q-4 -2 -10 -4h-3q-2 1 -3.5 1.5t-2.5 1.5v21 q-26 -6 -51.5 -5.5t-41.5 -4.5q-11 -5 -21.5 -10.5t-21.5 -9.5q-7 0 -10 3q-2 6 -2 9q-9 -1 -14 2q-5 5 -3 9.5t5 9.5q20 34 47 50.5t65 22.5l-14 -18l19.5 7t15.5 6q-4 44 -1 92.5t9 97t13 95.5t9 89q2 39 3.5 72.5t5.5 74.5q0 1 2 5h-12q-19 -1 -40.5 -4.5t-43 -6.5 t-42.5 -4t-40 3q-5 2 -5.5 3t-6.5 3l-1 1q-6 6 -1 15.5zM163 76l4 2z" />
<glyph unicode="^" horiz-adv-x="298" d="M12.5 323.5q-0.5 7.5 2 16.5t6.5 18t8 16q2 7 4 13t5 13l-3 -1q2 4 4.5 8l5.5 9l19.5 41.5l21.5 42.5q5 29 11.5 56.5t29.5 55.5l19 21t25 15q8 6 16 10t17 2q5 -7 3 -18l17 13q-1 -5 -1.5 -9t-0.5 -8q1 -1 1 -2t1 -2q2 -14 4 -26.5t4 -26.5l6 -24q8 -23 17 -45t15 -42 q3 -12 4 -24l2 -24q5 -14 8 -27t1 -26q-1 -6 -9.5 -18t-19 -23t-21 -16.5t-16.5 0.5q-5 11 -6.5 22t-2.5 22q-5 14 -10.5 26.5t-10.5 26.5q-9 26 -14 53t-8 54l-6 21l-14.5 -26l-15.5 -27l-10.5 -25.5t-13.5 -31.5q-5 -11 -8.5 -20t-7.5 -18q0 -1 0.5 -1.5t0.5 -1.5h-2 q-6 -14 -13.5 -27t-20.5 -26q-8 -8 -17 -14t-20 -7q-6 4 -6.5 11.5z" />
<glyph unicode="_" horiz-adv-x="462" d="M13.5 0.5q2.5 8.5 11.5 19.5t19.5 20.5t12.5 11.5q5 3 10.5 6l11.5 6l-3 -5q29 6 54.5 13.5t56.5 5.5q2 0 4 -0.5t4 -0.5q32 8 64.5 9.5t62.5 2.5q22 0 48.5 -0.5t47.5 -10.5q6 -3 9 -12q6 -2 11 -4.5t10 -5.5h1l-1 -1h1q2 -10 -4 -21.5t-16 -21t-21.5 -16t-20.5 -7.5 q-22 0 -45 3q-38 -13 -76.5 -5.5l-76.5 15.5q-1 0 -7 -0.5t-12.5 -1.5l-12.5 -2t-8 -1l-40.5 -15.5t-41.5 -5.5l-1 1v-1q-6 -5 -14 -7.5t-15 0.5l-3 3v3q0 11 7 22q-10 -2 -17 -4q-13 -1 -10.5 7.5z" />
<glyph unicode="`" horiz-adv-x="299" d="M12 626q1 11 7 20t14 17l3 3q8 8 19 17.5t25 7.5q1 -3 4 -4l17 13q-2 -29 19.5 -55.5t52.5 -51.5l62.5 -48.5t49.5 -46.5q1 -1 2 -1l-1 -1q2 -10 -4.5 -21t-16.5 -20t-21 -15.5t-20 -7.5q-4 2 -7 5q-15 -10 -23 -4v1q-15 20 -43.5 44.5l-57 50t-52 50.5t-29.5 47z" />
<glyph unicode="a" horiz-adv-x="481" d="M12 120q1 12 5 25q-6 24 -2 39q6 22 19 41.5t30 37.5q14 24 32.5 46t40 39.5t45.5 29t48 15.5q28 19 59.5 32t53.5 2q28 -16 44 -38q11 -3 20 -9l6 -6t6 -7q11 10 20 14t11 -6q4 -29 5 -57.5t0 -57.5q1 -4 1.5 -7t0.5 -6q0 -19 2.5 -40t-6.5 -37q0 -5 -0.5 -10.5 t-0.5 -10.5q5 -38 6 -70q2 -10 3.5 -19.5t2.5 -18.5q1 -6 5 -11l-4 -4q0 -18 -4 -34.5t-16 -31.5l-9.5 -9.5t-14 -12.5t-14.5 -8.5t-12 2.5q-1 1 -1 2l-1 1q-1 0 -2 -1h-3q-7 0 -9 2q-5 15 -5 35q0 19 -2 33q-2 15 -3.5 30t-3.5 31q-26 -17 -57 -29t-66 -22 q-6 -2 -11.5 -3.5t-11.5 -3.5q-15 -8 -30.5 -14.5t-31 -9.5t-30.5 -1t-30 13q-27 19 -49 45.5t-33 57.5q-4 10 -3 22zM95 222q-2 -30 6 -59l13.5 -21t16.5 -22.5t19.5 -18.5t22.5 -9q12 -2 35 0.5t50 9.5t54 18t46 25q-2 23 -3.5 47t-3.5 48q-1 8 -1 16q0 9 -1 17l-4 -3 q-1 5 -1 11v11q-2 5 -4.5 9.5t-4.5 9.5l-9 -8q-3 5 -3 11q0 7 -2 12q-18 6 -34 9.5t-31 4.5q-14 0 -27.5 -2t-27.5 -5q-40 -16 -79 -70q-14 -17 -27 -41z" />
<glyph unicode="b" horiz-adv-x="423" d="M13.5 91q-2.5 57 1.5 119.5t11 120.5l11 93q2 12 3 24.5t3 25.5q-2 26 -4 56t-7 57q-2 0 -4.5 1.5t-1.5 1.5q-2 2 -2 9q3 13 10.5 22l15.5 19q8 8 19 17.5t24 7.5q6 7 13.5 13.5t14 10.5t11.5 4t6 -7v-10q5 2 7 2q3 0 5 -6q-2 -51 -10 -99.5l-16 -97.5q0 -5 0.5 -9.5 t0.5 -9.5l2 -57.5t3 -57.5q35 26 73 45.5t85 19.5q19 -1 35.5 -13l30.5 -23q24 -21 38 -46t17.5 -52t-5 -54.5t-30.5 -53.5q-28 -32 -55.5 -60t-64.5 -50q-3 -2 -6.5 -4t-6.5 -4q-20 -17 -40 -30t-37 -23q-14 -8 -30 -11.5t-31 -7.5q-13 -3 -26 0t-26 5l-9 19h-3q-7 0 -9 3 q-14 33 -16.5 90zM136 263q3 -38 6.5 -75.5t7.5 -75.5q2 -6 8 -12t0 -14q-2 -4 -4 -7q0 -3 0.5 -6t0.5 -6l58 21t57 24q2 1 4.5 2t4.5 2q4 5 7.5 10.5l6.5 10.5q6 10 10 20q0 15 -1.5 30.5t-6.5 29.5q-14 44 -50 56t-77 1q-9 -2 -16.5 -5z" />
<glyph unicode="c" horiz-adv-x="516" d="M13.5 178q-4.5 36 14 74.5t61.5 81.5q30 41 73 67.5t106 46.5q13 4 30 6t35 1q15 4 34 5t37 -2q5 8 15 19.5t19.5 20.5t18 12t10.5 -7q2 -19 1 -38t-5 -38q2 -5 4 -9t3 -9q-5 -19 -19 -33q-2 -16 -5 -31t-10 -30l-6 -9v-2q5 -8 11 -12t12 -10l-32.5 -31l-32.5 -31 q-6 6 -13.5 10.5t-9.5 12.5q-3 8 5 39q-1 10 0.5 23t3.5 27q-2 6 -3.5 12t-5.5 11q-2 2 -3.5 3t-3.5 3q-12 5 -23 10.5t-22 7.5q-19 4 -44 4q-27 -14 -52 -31.5t-46 -37.5q-37 -33 -51.5 -54t-6.5 -44q8 -10 18 -21l23 -26q5 -6 9.5 -13t10.5 -15q11 -11 29 -22q8 -6 17 -10 t18 -7q23 -5 46.5 -4t46.5 4q51 12 99 40l6.5 4.5t7.5 4.5q4 4 5 5.5t2 2.5l3 3l6 6q3 3 12.5 10.5t18.5 12.5l4 4l2 -2q9 1 6 -13q-12 -33 -36.5 -59t-57.5 -45q-22 -19 -47 -37.5t-49.5 -31.5t-47 -19.5t-40.5 -3.5q-29 6 -54 19t-48 30q-50 38 -77.5 73.5t-32 71.5z" />
<glyph unicode="d" horiz-adv-x="509" d="M16 60q-8 20 1.5 46t26.5 51q5 11 10 20.5l9 16.5q17 34 45.5 65t62 57t71 46.5t72.5 33.5q13 5 32 5.5t38 -3.5l2 34t3 34l4 50.5t8 47.5q-1 35 7 66.5t39 56.5q6 5 13 10t15 5q8 3 15 2q6 -5 6.5 -19t-1.5 -33q1 -10 -0.5 -23t-4.5 -27t-7 -28l-8 -27q0 -5 -0.5 -10 t-1.5 -10q-1 -11 -1 -23v-21q-2 -51 -3 -100t-3 -99q1 -15 2.5 -29.5t3.5 -28.5l2 1q-2 -2 -2 -3q0 -8 1 -12q1 -11 1.5 -21.5t2.5 -21.5l6 -42q2 -12 1 -25t0 -25q4 -15 4 -22q-1 -6 -8.5 -16.5t-16.5 -21t-19 -17t-18 -4.5q-3 -2 -7 0q-1 -2 -2 -2.5t-2 -2.5v7 q-1 3 -2 6.5t-2 7.5q-4 -1 -8 1l-1 -1v3q-9 30 -12 65q-27 -29 -57 -43q-46 -23 -88.5 -33.5t-93.5 -15.5q-21 -2 -41.5 1.5t-38.5 12.5t-32.5 23.5t-22.5 34.5zM95 167q25 35 61.5 72t79.5 67q-21 -6 -44.5 -23.5t-58.5 -56.5l-15.5 -18t-16.5 -21q-4 -10 -6 -20z M133 148.5q-2 -22.5 12 -45.5q10 -16 28 -16.5t33 2.5q13 3 35 10.5t47.5 19t51 25t45.5 26.5q-5 36 -7 71.5t0 71.5h-5l-6 -4q-1 0 -1 -1q-2 1 -5 4q-5 -1 -10 -1.5t-10 -0.5q-24 -5 -52 -16t-54.5 -26.5t-49 -34.5t-36.5 -40.5t-16 -44z" />
<glyph unicode="e" horiz-adv-x="504" d="M14 177q-5 18 0.5 37t8.5 39q3 21 15.5 42t26.5 39q25 33 51 55t54.5 36t62 21.5t73.5 11.5q6 0 23 -2t36.5 -7t36 -14t19.5 -22q10 -11 17 -26q21 -44 9 -78q5 -1 9.5 -2t8.5 -3q2 -9 -2.5 -18t-12 -17t-16.5 -14.5l-15 -10.5q-17 -10 -41 -11.5t-47 -1.5 q-42 -5 -81.5 -14l-79.5 -19q-19 -5 -37.5 -11t-37.5 -11q18 -47 57 -78q35 -20 79 -25t85 -2l33 9q2 1 -1.5 0t-8.5 -2t-8.5 -2t-0.5 0q27 7 55.5 13t55.5 16l16.5 12.5t19.5 10.5q3 1 6.5 1.5t6.5 -0.5q2 -8 2 -12q-5 -18 -19 -31.5t-28 -23.5q-19 -10 -39 -18 q-1 -1 -2 -1q-23 -14 -50 -21.5t-53 -11.5q-24 -4 -52 -6q-53 -9 -93.5 -2.5t-70.5 33.5q-20 12 -34.5 29.5t-21.5 41.5q-3 7 -3 13q0 7 1 14q-7 19 -13 44zM92 263q0 -7 1 -13t3 -13q17 8 35 14t37 11q38 12 76.5 20.5t64.5 15.5q17 5 34 9t34 7q-1 3 -2 5.5t-2 5.5 q-12 26 -34 39.5t-51 15.5q-30 3 -59.5 -5.5t-55.5 -25t-47 -38.5t-34 -48zM105 334q13 12 26 22.5t27 20.5q-32 -13 -48 -36q-2 -2 -2.5 -3.5t-2.5 -3.5z" />
<glyph unicode="f" horiz-adv-x="519" d="M16 293q2 18 15.5 31.5t27.5 24.5q18 12 40.5 20t47.5 13q0 6 0.5 12t0.5 13q1 20 -2.5 40.5t2.5 40.5q5 13 17 28l-2 2q-2 11 1 21t9 19t14 17l15 15l1 1q20 28 48 47t60 33q27 11 61.5 11.5t61.5 -14.5q6 -4 17.5 -17.5t22 -30.5t16 -34.5t-0.5 -28.5q-9 -16 -25 -33 t-36 -19q-9 5 -15.5 15t-14.5 18q-5 3 -9 6.5t-9 5.5q-11 -2 -23.5 4.5t-23.5 10.5q-11 -7 -22.5 -13l-23.5 -12q-4 -5 -6.5 -11t-4.5 -12q4 -10 3.5 -26.5t-2.5 -34.5t-5 -35l-5 -29q18 1 35.5 0.5t33.5 -0.5h14q12 0 24 -1t22 -5t10 -12l-66 -57v1q-9 -8 -18.5 -12.5 t-17.5 -4.5q-11 1 -21 2t-21 3q-1 -38 0 -76t4 -76q2 -22 8 -42.5t6 -42.5q-2 -6 -5 -12.5t-8 -13.5q2 -14 3.5 -28.5t3.5 -28.5q-2 -6 -10 -18t-18.5 -22.5t-21 -16.5t-16.5 0q-3 5 -4.5 10t-3.5 10q1 2 2 2.5t2 2.5l-2 12t-3 13q-11 -15 -26 -26t-23 -4q0 1 -0.5 1.5 t-0.5 1.5q-1 0 -2 1q0 1 -0.5 1.5t-0.5 1.5q0 2 2 2q-5 23 -4 47.5t-1 47.5q-2 29 -3 57.5t1 57.5l3 2q-1 33 -0.5 66.5t1.5 66.5q-8 -2 -15.5 -3.5t-15.5 -3.5q-14 -4 -27 -5.5t-26 -7.5l-2 -2q-1 1 -2 1t-2 1q-3 2 -3 5q-9 -2 -17 -2.5t-15 1.5l-3 3q-1 1 -1 3z" />
<glyph unicode="g" horiz-adv-x="560" d="M12 -213q6 14 12.5 27t12.5 27q44 30 79.5 43t71.5 18.5t76 7t93 9.5q12 2 24 4.5t25 4.5q0 14 1 27.5t2 24.5v55t2 58q-23 -16 -48 -30t-51 -23.5t-53 -13t-54 1.5q-11 2 -21 10t-18 16q-2 0 -4 0.5t-4 0.5q-10 0 -24.5 3t-29 8t-27 13t-18.5 20l-24 -18l6 32t7 32v8 t2 9q14 50 52 88.5t88 64.5q26 18 50 32.5t44 22.5q22 9 50.5 17.5t58 11t57.5 -2.5t49 -23q12 -10 18.5 -24t14.5 -27q4 -10 5 -15h4q7 -2 6.5 -5t-2.5 -9q-2 -5 -5 -9.5t-5 -9.5l-3 -2q-1 -1 -1 -2q2 -5 2.5 -9t1.5 -9q1 -18 -6.5 -36t-18.5 -34q-2 -9 -3 -18.5l-2 -18.5 q-3 -27 -7.5 -58t-6 -61.5t2.5 -60.5t16 -56l1 -1h-1q2 -11 -6.5 -23.5t-20.5 -22.5q-10 -12 -22 -22t-27 -12q-60 -1 -118.5 -4t-117.5 -5q-23 0 -45 0.5t-44 -2.5q-11 -2 -21.5 -3.5t-20.5 -4.5h-2q-2 -3 -5 -6l-6 -6q-2 1 -3 2t-3 2q-3 3 -3 7q-16 -9 -33 -21zM148 215 q-3 -19 1.5 -30.5t14 -19.5t21.5 -14.5t24 -15.5q3 -3 6.5 -6t7.5 -7q27 1 56.5 7t55.5 14t48 17.5t34 16.5q3 1 9 5q5 14 11 27.5t11 27.5q-17 16 -37 27.5t-26 14.5q-12 4 -32 6l-9 -8q-4 6 -5 10q-29 2 -64 -1t-67 -11l-18 -11.5t-19 -14t-15.5 -16.5t-7.5 -18z" />
<glyph unicode="h" horiz-adv-x="458" d="M40 335q0 44 1.5 89.5t5 90.5t7.5 86q-1 5 -2 8.5t-2 6.5l-4 -2q1 2 1.5 5t2.5 5q3 8 10 18.5t15.5 19.5t18.5 14.5t20 3.5q2 -4 2.5 -7.5t2.5 -8.5q11 12 22.5 19.5t16.5 2.5l2 2v-9h-1q-2 -23 -5 -43t-5 -43t-0.5 -46t1.5 -46l-2 -51l-2 -51h1q6 -15 9.5 -31.5 t5.5 -34.5q27 18 57 30q25 12 51 21t53 12q18 3 29 2h1q1 0 1.5 -0.5t2.5 -0.5q1 -5 0 -8.5t-3 -8.5q8 2 18.5 3.5t20.5 2.5q15 10 19 1h5q10 -2 5.5 -10.5t-6.5 -13.5q-1 -1 -1.5 -2t-1.5 -2t-3 -1q-3 -45 1.5 -89t6.5 -89v-24q1 -3 1 -6q0 -2 1 -5q3 -21 8.5 -47t1.5 -49 v-8q-1 -6 -9.5 -18t-19 -23t-21 -16.5t-16.5 0.5q-7 13 -9 29q-1 0 -2 -1q0 14 -6 29q-1 3 -1.5 5.5t-1.5 5.5q-2 0 -4 0.5t-3 2.5v16q-1 3 -1.5 5.5t-1.5 5.5q-5 18 -11.5 47.5t-11.5 61t-7.5 62t-1.5 50.5v1q0 1 0.5 2t0.5 2q-12 3 -23 3l-36 -9q-20 -10 -40 -22.5 l-41 -24.5l-2 -49t-1 -46q1 -6 1.5 -11.5t2.5 -11.5q-1 2 -1 4t1 0q6 -23 10.5 -52.5t-6.5 -52.5q-9 -16 -25 -33t-36 -19q-7 3 -10 17q-11 -16 -27.5 -28.5t-24.5 -4.5q-2 13 0 26.5l4 26.5q0 115 -6 232q-3 39 -3 82z" />
<glyph unicode="i" horiz-adv-x="203" d="M37 267q0 17 0.5 31.5t3.5 27t10 24t21 23.5l11.5 9t14.5 8l23 22q2 -6 3.5 -12.5t2.5 -12.5q10 8 18 10.5t10 -6.5q-1 -8 -1.5 -15.5t-0.5 -15.5q-1 -40 -1.5 -80t0.5 -80q3 -39 8.5 -78t14.5 -80q1 0 3 2q0 -2 -0.5 -4.5t-0.5 -4.5q-2 -6 -9.5 -17t-17.5 -21.5t-20 -17 t-17 -3.5q-8 -7 -16 -10t-13 2q-1 3 -1.5 5.5t-1.5 5.5q-15 -10 -22 -3q-1 5 -1 11q0 5 -1 11q-3 7 -5.5 20t-3.5 27.5t-2 27.5t-1 19q-1 14 -1 27v27q-1 11 -1.5 23t-0.5 23q-5 40 -2 78zM51 476q0 36 13 68l5 4q1 2 1 4q0 3 1 5q8 18 24 35t36 22h2q5 -1 6 -6v-13 q8 6 13.5 7t7.5 -7q2 -16 2 -30t5 -15l-17 -20q-2 -14 -6 -27.5t-12 -24.5l-5 -7.5t-8 -9.5q-1 -1 -1 -2v-1l-1 -1q0 -1 -1 -1v-1l-11 -14.5t-17.5 -20.5t-19.5 -15t-16 1q-1 34 -1 70z" />
<glyph unicode="j" horiz-adv-x="369" d="M14 -117.5q4 12.5 14 24.5q2 10 8 17.5t13 14.5q15 16 24 23t14.5 7.5t10 -5l10.5 -13.5q5 -2 10 -3.5t9 -3.5q23 -12 43 -28t43 -19q0 1 1 1q13 11 19.5 33t10.5 46q-8 66 -6 133.5t9 134.5q-4 46 -9.5 92t-13.5 91q0 1 -0.5 1.5t-0.5 1.5l1 1q1 9 7.5 20t16 20.5 t20.5 15.5t21 4q3 -9 8 -19l1 1q1 0 2 1q2 2 7 6t10.5 7t10.5 3t6 -6q2 -89 8 -176.5t4 -176.5q-1 -14 -1 -30t-1 -33q1 -1 1 -2l1 -1q8 -25 10 -45t-2.5 -38t-16.5 -35t-32 -36q-10 -8 -22.5 -19.5t-26.5 -22.5q-16 -18 -34.5 -33t-38.5 -24.5t-42.5 -12.5t-47.5 4 q-22 6 -43 20.5t-33 34.5q-7 11 -3 23.5zM209.5 582q2.5 21 3.5 37l66 57q0 -2 -0.5 -3.5t-0.5 -3.5q8 8 18.5 16t22.5 6q7 -3 5 -13l-3 -15q-2 -8 -2 -13h3q3 -2 4.5 -4.5t3.5 -4.5q-5 -4 -8.5 -7.5l-7.5 -7.5q-1 -2 -7 -10l1 1q-2 -2 -2 -3l-1 -1q-7 -8 -15 -16t-16 -15 q-5 -5 -11 -10t-11 -7q-11 -11 -22.5 -18.5t-17.5 -0.5q-5 15 -2.5 36z" />
<glyph unicode="k" horiz-adv-x="422" d="M13 232q-1 7 10 24l1 1q0 1 1 2q1 93 9 188q2 28 5.5 55.5t8.5 55.5q1 6 2.5 13t3.5 14l-6 -4q2 24 10 44l4 8q2 11 6.5 21.5t12.5 21.5l10 10.5t17.5 16t17.5 10.5t10 -6v-9t-1 -9l14.5 14t18.5 15t14.5 5.5t2.5 -14.5l-6 -12l-3 -2q0 -1 -1 -1l1 1l-3 -4l1 2 q-8 -17 -12.5 -42t-7.5 -51t-4 -50.5t-3 -41.5q-7 -72 -12 -144l2 2q5 3 9.5 6.5l9.5 7.5v-1l86 60t90 53l31.5 19.5t32.5 17.5q6 2 9 2.5t5 -6.5q-5 -23 -23 -40.5t-38 -27.5q-22 -27 -45.5 -47.5t-52.5 -38.5l-8 -12q8 8 17.5 14t20.5 4q7 -14 11.5 -33.5t8.5 -41l8 -42.5 t10 -38q5 -11 8.5 -21l7.5 -21l40.5 -88.5t25.5 -92.5v-3q-1 -6 -9 -17t-17.5 -21.5t-20 -17t-17.5 -2.5l-2 -3q0 2 -0.5 3t-0.5 2q-21 42 -34 86.5t-29 89.5q-5 11 -9 21.5l-8 21.5q-1 1 -1 2q-2 4 -2 5q-9 19 -22 38.5l-25 39t-22 40t-13 42.5v1q-21 -13 -37 -26 q-2 -62 2.5 -122.5t18.5 -120.5l2 2q0 -2 -0.5 -4.5t-0.5 -4.5q-2 -6 -9.5 -17.5t-17.5 -22.5l-1 -1q-5 -8 -13 -17.5t-16 -16.5t-16 -10t-13 2v-1q0 1 -1 2v1l-1 -1q0 -1 -1 -2q-1 4 -3 10q-13 36 -21 75q-5 -1 -10 2q0 -1 -1 -1v2q-3 44 -4 87t-1 88q-11 -5 -12 2z" />
<glyph unicode="l" horiz-adv-x="208" d="M41 327.5q1 52.5 5 106.5v17t1 17q2 35 1.5 75t6.5 75q2 5 12 17.5t21 23.5q2 5 4 9.5t5 9.5q10 14 23.5 28t31.5 19h5q5 -2 6 -6q4 -24 -0.5 -50l-8.5 -49q-7 -45 -15 -89t-15 -89q-1 -90 7.5 -178t24.5 -175l5 4q0 -4 -0.5 -7t-0.5 -7q-2 -6 -9 -16.5t-17 -21.5 q1 -5 1 -11v-10q0 -4 1 -6q-2 -1 -2.5 -2t-2.5 -2q-4 -7 -12 -17.5t-17 -19.5t-17.5 -13.5t-14.5 0.5q-1 0 -1 -1v2q-5 30 -9 60t-7 60q-1 5 -1.5 9.5t-1.5 9.5q-5 30 -6.5 60t-0.5 61q-3 54 -2 106.5z" />
<glyph unicode="m" horiz-adv-x="619" d="M29.5 245q-5.5 64 6.5 131l65 50q-1 -2 -1 -5q0 -2 -1 -4q9 10 20 16.5t22 4.5q6 -6 5.5 -18t-3.5 -26.5t-7 -28.5t-6 -24q1 2 5 6q12 14 23.5 26t25.5 23q44 32 69.5 35t39.5 -20q17 4 29.5 5t16.5 -4q18 -23 26 -54q23 12 51 25t58 22t59.5 10.5t55.5 -10.5v-2 q5 -2 2 -15q-10 -31 -11.5 -63.5t0 -65t2.5 -65.5t-4 -65q-2 -12 -2.5 -19.5t-2 -13t-4 -11t-8.5 -13.5q-3 -5 -12.5 -13.5l-17.5 -15.5v1v-1q0 -1 -0.5 -1.5t-0.5 -1.5q-5 -4 -7 -4q5 4 7 7l-7 -7l-11.5 -11t-11.5 -10t-6.5 -5.5t3.5 1.5q-5 -5 -13.5 -9t-13.5 1 q0 10 0.5 36t3 59.5l5.5 71t7.5 71.5t10.5 60.5t12 38.5h-4q-22 -2 -43 -8t-41 -11q-7 -2 -21 -6.5t-27 -9.5q2 -28 1 -57.5t-4 -59t-5.5 -56.5t-3.5 -50l5 4q0 -26 -19.5 -46.5t-41.5 -29.5q-8 0 -10 2q-11 -14 -25 -24.5t-22 -3.5q-5 40 -4.5 80t2 80t2 80.5t-4.5 80.5 q-4 26 -11 41q-22 -5 -43 -13t-35 -15l-16 -21.5l-16 -20.5q-5 -60 -4 -124t12 -119q1 1 2 1.5t2 1.5q0 -4 -0.5 -7.5t-0.5 -6.5q-2 -6 -10 -18.5t-18.5 -23t-21 -16.5t-16.5 0q-3 10 -4.5 21t-3.5 22q-10 -4 -16 1q-2 26 -2 53t-2 54q-4 66 -9.5 130zM365 357 q-1 -7 0.5 -7.5t3 1.5t1.5 4q0 3 -5 2zM377 361q1 0 1.5 0.5t-0.5 0.5z" />
<glyph unicode="n" horiz-adv-x="484" d="M45 210q-1 52 2 103t10 96v8l2 1q3 6 13 18.5t20.5 22t19.5 13.5t11 -6q0 -17 -0.5 -33.5t-1.5 -33.5q10 11 22 19.5t25 6.5q4 -18 1.5 -38.5t-4.5 -40.5q20 18 42.5 34.5t47.5 29t51 19.5t52 6q8 0 17.5 -0.5t17.5 -5.5q20 -15 27.5 -39.5t10.5 -47.5q5 -33 8 -66.5 t4 -66.5q0 -15 -2 -32.5t0 -31.5q2 -19 6.5 -39t1.5 -39q-10 -8 -19 -14.5t-18 -14.5q-6 -8 -13.5 -16t-14.5 -13t-13.5 -6.5t-10.5 2.5q-1 2 -1 7l1 1q0 5 0.5 9t1.5 9q-8 -8 -16.5 -11t-13.5 3q-1 1 -1 4l2 2q-4 -1 -3.5 3t3 9.5t5.5 11.5t4 10q3 14 7.5 29t7.5 29 q7 38 0.5 79t-20.5 77q-11 26 -24 41.5t-29 23.5q-30 0 -62 -16.5t-59 -32.5q0 -56 5.5 -110.5t23.5 -107.5l2 2q0 -5 0.5 -7.5t1.5 -5.5q2 -2 2 -5q1 -1 1 -2l1 -1q2 -7 -5.5 -19.5t-18 -23t-22 -17t-17.5 -3.5l-1 -1q0 1 -1 1v1q-10 21 -18 47q-5 -7 -12 -15t-14 -13.5 t-13.5 -8t-11.5 -0.5l-2 -2q-1 3 -1 10q-7 45 -12 95.5t-6 102.5z" />
<glyph unicode="o" horiz-adv-x="502" d="M13.5 133.5q-1.5 33.5 8 67t28.5 65.5t44 58q2 2 4 4.5t4 4.5q12 13 28 27.5t34 26.5t37.5 19.5t38.5 5.5q12 -2 22.5 -4l21.5 -4q38 5 70 -14l28.5 -17.5t26.5 -19.5q21 -22 36 -47t22 -52q2 -4 4 -7t4 -7q9 -18 13 -41.5t-3 -43.5q-12 -36 -19 -55t-17.5 -32.5 t-26.5 -27.5l-46 -41q-11 -11 -25 -18.5t-29 -10.5q-19 -4 -39 -3l-39 2q-23 1 -41 1.5t-34 2.5t-32.5 8t-36.5 18q-1 0 -2 1q-49 25 -68 70q-15 30 -16.5 63.5zM97 182q1 -40 24.5 -68t66 -40t97.5 -3l24 5t29 8.5t28.5 13t22.5 16.5q17 19 13.5 43.5t-18.5 44.5 q-18 24 -45 47t-58.5 38.5t-64.5 21t-63 -5.5q-17 -14 -29 -35q-28 -46 -27 -86zM361 31q11 2 17 6q7 6 15 12t13 14q1 1 1 2t1 3q-11 -11 -23.5 -20z" />
<glyph unicode="p" horiz-adv-x="466" d="M13 309q-2 18 2 30q1 5 6.5 14t13 19t16 19t17.5 13q3 4 6 7.5t8 7.5q3 2 8 6.5t10.5 7.5t11.5 4.5t10 -2.5q1 -1 1 -2l1 -1q17 8 34 13.5t35 10.5q38 11 70 12t62 -26q2 -1 4 -1t4 -1q38 -13 64.5 -43t40.5 -67.5t15.5 -79t-10.5 -77.5q-5 -15 -15 -29t-23 -27.5 t-26.5 -24.5l-24.5 -20q-38 -30 -85 -49l-92 -37q0 -20 -0.5 -41.5t0 -43t4.5 -42.5t13 -39l-19.5 -18l-18.5 -18v-10v-1h-1q-2 -7 -10 -18.5t-18 -22t-20.5 -16t-16.5 0.5q-1 2 -1 4t-1 4q-4 -2 -8 2q-5 5 -5 14v17q-5 11 -7.5 19.5t-6.5 24.5q-11 38 -15 77.5t-5 78.5 q-1 17 -1.5 33t-0.5 33q-2 15 -3 30.5t-3 31.5q-2 19 -2.5 38t-1.5 39q-4 29 -7.5 58t-5.5 58q-1 12 -3 30zM162 221q3 -70 8 -141q9 4 14 5.5t9.5 2.5t9.5 1.5t13 3.5q20 17 41 33t38 33.5t27 36t9 40.5q-2 22 -14.5 55.5t-32.5 62.5q-2 2 -4 3t-4 3q-7 5 -13.5 8.5 l-13.5 7.5q-12 1 -25 -0.5t-28 -3.5q-20 -4 -23.5 -5t-7.5 -4q-6 -72 -3 -142zM240 59l37.5 14.5t44 18.5t38.5 21.5t21 23.5q5 11 6.5 23t1.5 23q-12 -18 -28.5 -33.5t-36.5 -29.5q-15 -11 -29.5 -19.5l-29.5 -17.5q-3 -2 -6.5 -3.5t-6.5 -3.5q-3 -5 -6 -8.5t-6 -8.5z" />
<glyph unicode="q" horiz-adv-x="586" d="M15 146q-7 19 2 43.5t25 48.5t35 45t32 32l12.5 10.5t13.5 10.5q17 21 35.5 40.5t37 34t36 23t31.5 6.5t28 -5t28 -5l-17 -19q42 8 84 3.5t77 -25.5q17 -11 32.5 -26t26.5 -32q3 -6 6.5 -11.5t5.5 -10.5q7 3 10 1t0 -14q-1 -1 -1 -2t-1 -2q6 -14 9 -25q4 1 6 0.5t4 -5.5 q1 -8 -2 -28q5 -31 -1.5 -58.5t-21.5 -51.5q-5 -33 -10.5 -75t-8 -85t-1.5 -84t8 -72l-19.5 -18l-19.5 -19q-2 -6 -2 -11v-8l-6 -3q-5 -9 -13 -19t-16.5 -18t-17 -11t-13.5 2v18q0 8 -1 17l-1 1v11t1 11q-2 26 -3 53t1 53q0 16 1.5 31t3.5 30q0 29 1 56t4 54q-10 -5 -25 -10 q-35 -12 -72 -16.5l-72 -8.5q-32 -5 -65 -5t-64 8q-35 8 -54 24.5t-27 39.5q-11 9 -15 16q-14 19 -17 42q-7 9 -10 18zM114 166l15 -11t12 -7q42 -32 79 -42t73.5 -4.5t75.5 23.5l84 40q-2 12 -3.5 24.5t-2.5 24.5q-16 33 -47 56t-68.5 35t-76.5 12.5t-71 -10.5 q-22 -8 -33.5 -19t-22.5 -25q-17 -51 -14 -97z" />
<glyph unicode="r" horiz-adv-x="460" d="M23 305l26 22v15l2 1q4 9 13 20.5t19 20.5t19 13t12 -1l1 1v-19q6 9 14.5 16.5t17.5 14.5l-3 -34l13.5 17t14.5 15q3 2 0 -4.5t-3 -10.5q-3 -15 -3 -29q-1 -9 -1.5 -17.5t-0.5 -16.5q20 22 44 40.5t50 29.5t53.5 12.5t53.5 -11.5q6 -4 10 -8q13 -3 24.5 -9.5t19.5 -18.5 q11 -17 14.5 -36.5t6.5 -39.5q-6 0 -11.5 -0.5t-11.5 0.5l-23 -52l6 4q-6 -5 -13.5 -8.5t-12.5 1.5q-2 5 -2.5 11t-1.5 11q-3 -1 -9 -1q-6 2 -12 7q-3 0 -5 3l-2 4q-5 5 -10 9.5t-13 8.5q-16 6 -37 7t-42.5 -3.5t-41 -13.5t-33.5 -22q0 -29 6 -67q7 -25 15 -49l16 -47 l-10 -10q5 -22 10.5 -40.5t10.5 -32.5q-2 -2 -2.5 -3t-2.5 -2q2 -4 4 -5v-1l6 -6q2 2 4 3q-1 -2 -1 -4q0 -3 -1 -5q-1 -6 -9.5 -18t-19 -22.5t-21 -16.5t-16.5 0q-10 10 -17 24t-13 31q-11 -14 -24 -25.5t-23 -8.5q-1 -2 -2 -2.5t-2 -2.5q0 2 -0.5 4t-0.5 4q-10 17 -12 39 t-4 41q-3 23 -5 45.5t-3 45.5q-9 45 -16 90t-9 92z" />
<glyph unicode="s" horiz-adv-x="513" d="M15.5 -14.5q1.5 5.5 5 11.5t8 11t7.5 8l21 18q-9 6 -2 21.5t21.5 30t33 23t33.5 -0.5l-7.5 -7.5t-6.5 -7.5q8 -3 18 -3h18q18 -1 36.5 -0.5t36.5 1.5q10 5 20 5t20 1.5t20.5 6.5t21.5 18l19 13q-1 1 -7.5 9.5t-6.5 9.5q-22 5 -45 9.5t-42 9l-31.5 7.5t-14.5 4 q-5 4 -3.5 10t6.5 13l-28 2t-28 3l-1 -2q-4 1 -7 1.5t-7 1.5l-21.5 2t-21.5 3q-6 5 -2 14t13 18q-7 1 -13 1.5t-12 -0.5q-13 -3 -29 -3q-2 0 -4.5 1.5t-1.5 0.5q-5 5 -3 9.5t4 9.5q8 16 19 26.5t25 18.5q-3 5 -2 9l-15 -3q-11 -2 -10 4t5 14q21 36 58.5 57.5t82 33t90 14 t83.5 -0.5q14 -1 26 -6q11 0 20.5 -1.5t16.5 -5.5q11 -1 21.5 -2.5t18.5 -6.5q2 -8 -2 -15.5t-10 -14.5t-12.5 -12.5t-11.5 -10.5q-16 -11 -33.5 -15t-35.5 -5l-12 -11q-3 4 -7 12q-17 1 -33.5 2.5t-32.5 2.5q-22 -4 -42 -9q0 -6 0.5 -11.5t1.5 -11.5q23 -5 45 -10.5 t41 -9.5q24 -8 46.5 -12.5t41.5 -9.5t33.5 -11.5t23.5 -18.5q18 -17 22.5 -43t-3.5 -50q8 -5 -1 -17.5t-23 -23.5q-13 -17 -29.5 -29t-36.5 -21q-36 -25 -82 -42q-35 -16 -71 -27q-46 -18 -89 -28t-69 1q-4 4 -2 9q3 12 7 18l-34 -10.5t-29 -7.5q-5 -3 -5 -1q-3 -1 -6 -1h-4 q-4 4 -2.5 9.5z" />
<glyph unicode="t" horiz-adv-x="488" d="M44 289q8 32 29 44.5t47 17.5q18 6 36.5 11t37.5 9v25q0 13 2 25q1 8 10 21.5t21 24.5q5 19 23.5 34.5t35.5 20.5q7 -1 10.5 -7.5t5 -16t1.5 -19.5v-19q1 -2 1 -6q0 -6 0.5 -11.5t0.5 -11.5q2 -12 3 -24.5t3 -24.5q17 2 33.5 3t33.5 0q8 1 14 1q7 0 15 1l-3 -3 q9 -1 18 -1.5t18 -2.5h6l-2 -2h1h1q10 -3 5 -12.5t-16 -20.5t-23 -20.5t-17 -11.5q-1 0 -2 -0.5t-2 -0.5h-5q-10 -1 -19 -1.5t-18 -0.5q-8 -1 -15 -1.5t-14 -1.5q3 -31 5 -61.5t1 -60.5q-1 -24 -1.5 -55t-0.5 -60q2 -16 3 -31.5t1 -30.5q-1 -6 -9 -17.5t-18 -22t-20.5 -17 t-17.5 -1.5l-1 -1v2q-1 5 -1.5 8.5t-1.5 7.5q-6 -7 -12.5 -13.5t-13 -10.5t-12 -5.5t-9.5 2.5q-12 32 -12.5 66.5t-1.5 68.5q-3 54 -4.5 106.5t-0.5 106.5q-8 -2 -14.5 -3t-14.5 -2h-1l-18 -21q-20 0 -41 -2t-40 3q-5 4 -2 14h-1q0 1 1 1q-3 2 -3 4q-2 0 -3 -1t-3 -1 q-7 -1 -8.5 0.5t-0.5 8.5z" />
<glyph unicode="u" horiz-adv-x="463" d="M33 282q-2 26 0 54v1q0 2 0.5 3t0.5 3q3 8 9.5 18t15 19t18 14.5t19.5 4.5q17 20 42 30q5 2 8.5 2.5t5.5 -6.5q1 -9 -1.5 -19.5t-5.5 -21.5q12 10 21 12t5 -15q-9 -25 -11.5 -55.5t-0.5 -63t7 -64t10 -58.5l2 -6.5t5.5 -15.5l7.5 -19.5t8 -19.5q32 4 66.5 3.5t63.5 1.5 q5 22 8.5 43.5t4.5 43.5q-2 16 -3 31.5t-3 29.5q-2 9 -5 18.5t-8 19.5l8 8q-2 19 -7 41.5t-1 41.5v2l1 1q0 2 1 3q3 8 10 18t15.5 19t18.5 14.5t20 3.5q6 -14 10 -29t7 -31q5 3 9 3q5 0 7 -5l1 1q0 -1 -1 -1v-1l1 -1q2 -26 1 -51.5t-1 -51.5q8 -58 12.5 -115t-3.5 -115v-1 v-1q-1 0 -1 -1q-3 -7 -11 -18.5t-18 -21.5t-20 -15t-16 1q-2 11 -2.5 21t-1.5 20q-2 0 -3 -0.5t-2 -0.5l-1 -1q-10 2 -14 3q-11 -8 -18.5 -10t-5.5 11v1q-9 -1 -36.5 -5.5t-60.5 -8.5t-64 -5t-45 4q-5 -1 -11 -1.5t-11 -0.5q-4 4 -2 10q1 2 1.5 4t1.5 4q-15 4 -24 17 t-15 28.5t-8.5 32t-3.5 28.5q-6 55 0 111q-5 26 -7 52z" />
<glyph unicode="v" horiz-adv-x="481" d="M13 362q3 7 9 16.5t14 18t17.5 15t18.5 6.5q2 2 3 2q9 9 19.5 15t20.5 4q-1 2 -1 3q0 2 1 1q0 -3 1 -4q2 -9 4.5 -18.5t5.5 -19.5q17 -31 28 -65.5t19 -69.5q1 -1 1 -2l1 -1l43 -70t39 -70q5 -8 8.5 -16t8.5 -16q11 42 24 83.5t30 80.5v2q2 5 8.5 13.5t14.5 16.5 q12 42 28 80.5t40 62.5q8 8 19.5 17.5t24.5 7.5q7 -6 5 -21.5t-8 -22.5q-2 -7 -3 -14t-3 -14q-5 -20 -11 -38t-14 -37l-27 -65.5l-28 -65.5q-13 -32 -24 -66.5t-30 -62.5q-2 -2 -10.5 -11.5t-18.5 -18.5t-18.5 -13t-10.5 3q-3 -3 -8 -5q-11 -14 -24 -23t-21 -1 q-12 12 -24 29q0 1 -1 1v1q-23 29 -37 63t-23 69q-4 9 -7 20l-22.5 42.5t-19.5 44.5q-2 3 -3.5 5.5t-2.5 4.5q-7 11 -17.5 23t-19.5 25.5t-14.5 27.5t-4.5 27z" />
<glyph unicode="w" horiz-adv-x="605" d="M12 326l22 21q-1 5 -1 10v10v5l1 1q2 9 9 19.5t16 19t19.5 14t19.5 3.5v-1l1 1v-8l4 -21l4 -21q6 7 13.5 14t14 12t11.5 6.5t8 -2.5q1 0 3 2q-1 -3 -1 -8q3 -26 5.5 -52.5t5.5 -52.5q2 -10 3.5 -20t3.5 -21q8 -31 17 -61t14 -60l22 47.5t24 46.5q13 27 29 52t39 46 q0 1 2 3t10 8.5t16 11.5t14 5t4 -10l20 16q-2 -19 -2 -38q0 -18 1 -38h5v-2l1 1v-2q11 -23 17.5 -49l12.5 -49q4 -16 7.5 -31.5t8.5 -31.5q5 28 12 55.5t16 54.5q6 26 15.5 50.5t24.5 48.5q11 29 26 52t34 34q6 3 10.5 5.5t12.5 0.5q3 -3 5 -4q0 -2 0.5 -2.5t0.5 -2.5 q-3 -32 -14 -63l-21 -61q-8 -20 -14 -41t-13 -41q-4 -23 -9 -48t-13 -48q-3 -26 -9.5 -50.5t-18.5 -47.5q-2 -2 -6.5 -8.5t-12.5 -14.5q-3 -7 -10.5 -17.5t-17 -19.5t-19 -14.5t-15.5 -2.5q0 -1 -1 -1v-1q0 1 -0.5 1.5t-0.5 1.5q-36 63 -56 140.5t-24 154.5l-12 -37.5 l-12 -36.5l6 4q-6 -25 -12 -53t-15.5 -54t-24.5 -48.5t-40 -36.5q-8 -3 -14 -4.5t-4 9.5q0 6 1 9q-11 -12 -23.5 -21t-20.5 -1q-2 11 0.5 22t6.5 22q-5 0 -7 1l-3 -3v5q-1 2 -1 6q-1 0 -1 1q-14 -13 -32 -21q-2 0 -3 -1q-7 0 -10 3q-11 22 -19.5 51t-15 61t-11.5 66.5 t-9 67.5q-6 23 -13 44t-17 38z" />
<glyph unicode="x" horiz-adv-x="473" d="M13 -76q-2 11 3 24.5t12.5 26.5t16 24.5t14.5 18.5q18 25 37.5 48l39.5 46l22 25.5l22 25.5l-41.5 53.5t-40 55.5t-32 51.5t-16.5 40.5l65 62q2 -8 6 -17.5l9 -20.5q9 5 18 3q14 -3 29 -16.5t30 -33t29.5 -44l27.5 -48.5l30 33l38 43t41 40q16 17 33.5 30.5t36.5 17.5 q7 -2 6.5 -5t-2.5 -9q-1 -1 -1 -4q7 3 11.5 1.5t1.5 -12.5q-14 -33 -37.5 -62t-50.5 -55q-17 -20 -35.5 -39.5l-36.5 -38.5q14 -17 26.5 -34.5t26.5 -34.5q13 -18 27.5 -40.5t31.5 -42.5l2 2q5 -6 9.5 -12l9.5 -13q2 -8 -6 -20.5t-19.5 -24t-23 -17.5t-16.5 0 q-13 13 -25 28.5l-23 30.5q-7 -3 -15 -3q-9 5 -19.5 17.5t-21 27t-19.5 28.5t-15 22q-2 2 -3.5 4t-3.5 4q-17 -18 -32 -36.5l-29 -37.5q-2 -2 -7 -10t-10 -17l6 4q-17 -29 -34 -50t-37 -25h-3l-2 1q-3 0 -5 2v6q0 1 1 2v1q-3 -2 -5.5 -2.5t-4.5 -2.5h-3q-14 -16 -35 -24 q-7 0 -9 2z" />
<glyph unicode="y" horiz-adv-x="509" d="M12 334l1 1q2 12 13 27.5t25 24.5q8 10 19 17.5t22 5.5q2 -5 2 -9v-8l-5 -4v-2q0 -2 0.5 -3t0.5 -3q13 6 22 5q26 -21 45 -46t34 -52t28.5 -55.5l26.5 -57.5q3 -3 5 -7l17.5 -19l16.5 -17q8 16 16.5 31t17.5 29q9 20 19 38.5t21 36.5q11 26 24 51q6 12 18.5 26t23.5 25 l18 24l11.5 12t20 17.5t17.5 8.5t3 -15q-16 -36 -35 -70t-34 -70q-23 -53 -42.5 -106.5l-39.5 -107.5q2 -6 4 -14h1l-1 -1q0 -7 -1 -11q-8 -14 -21 -29q-2 -5 -4 -11q-5 -11 -8.5 -20t-7.5 -17l-9 -23l-8 -19.5t-8.5 -21.5t-11.5 -29q-8 -21 -12.5 -42.5t-18.5 -41.5 q-2 -2 -11.5 -12.5t-20.5 -19.5t-19 -11.5t-7 10.5q0 2 0.5 3t0.5 2q-10 -5 -20 -5q-3 2 -3 9q4 23 12 45t19 43q0 14 5 34t11 40t12.5 37.5t10.5 26.5l3 9q-8 8 -20.5 26t-27 41l-29.5 48l-28 48l-15.5 21.5t-14.5 21.5q-30 32 -52.5 65t-30.5 67q0 1 -0.5 1.5t-0.5 1.5z " />
<glyph unicode="z" horiz-adv-x="549" d="M12 3q1 13 11 26q-3 -2 -8 -7l-2 2q2 20 19 36t34 25q10 5 19 9l20 9l9 9l27 22l28 22l94.5 97t100.5 87q-11 1 -21 2t-21 2l-91 -15.5t-91 -8.5q-5 5 -3 11q-29 -8 -57.5 -14t-56.5 -3q-6 6 -2 15t12 17.5t17 16t13 10.5q48 32 112 40t132 5q14 2 28.5 3.5t29.5 3.5 q14 3 28.5 5.5t29.5 5.5q23 4 47 9.5t47 3.5q5 -2 5.5 -4t-0.5 -6q0 -2 -1 -3q-6 -21 -24 -37q2 -5 -3.5 -14t-14.5 -18q4 -1 1 -13q-5 -13 -15 -24.5t-21 -19.5q-6 -4 -11 -7q-7 -5 -15 -10l-8 -6q-5 -3 -10.5 -7l-9.5 -7l-30 -21.5t-29 -21.5l-45 -32.5l-45 -31.5 l-21 -17.5l-20 -17.5q32 8 65 12t66 6q26 8 54 14.5t55 10.5t52 5t44 -4q0 -2 0.5 -2.5t0.5 -2.5v-4q-5 -20 -21.5 -35.5t-34.5 -23.5q-40 -16 -92.5 -19t-103.5 -5q-28 -8 -55 -17t-54 -20q-9 -3 -24.5 -11t-32 -15t-31 -11t-21.5 0q-3 2 -3 4q-13 -11 -25 -18 q-6 -2 -11 -3.5t-7 2.5q-5 -2 -7 -0.5t-2 9.5z" />
<glyph unicode="|" horiz-adv-x="152" d="M12.5 296.5q0.5 42.5 2.5 85.5q0 9 0.5 18t0.5 19q0 40 0.5 80.5t5.5 81.5q-1 4 -1 7t-1 7l4 2q2 15 6 30v33v3l1 2q0 1 1 3q2 5 6 11q2 4 8 10q6 8 11 13l2 2q17 15 26 18q4 1 7 0h1v0q10 2 15 1q6 -11 4 -42q0 -1 0.5 -1.5t0.5 -2.5h7q2 -3 1.5 -17t-1.5 -33.5t-3 -41 t-4 -40.5l-3.5 -32.5t-1.5 -15.5q-7 -119 3 -239q2 -27 6 -54t8 -48.5t7 -34.5t3 -11q3 -12 4.5 -24.5t-4.5 -23.5q-1 -2 -1.5 -2.5t-1.5 -2.5q3 -13 1 -27v-1h-1q-2 -10 -6 -17q-3 -4 -10 -12.5t-16 -16.5t-17.5 -12.5t-14.5 0.5q-15 -10 -22 -3q-13 20 -18.5 44.5t-7 50.5 t-0.5 51.5t0 47.5q0 4 -0.5 7.5t-0.5 7.5q-1 8 -1.5 17t-1.5 17q-4 43 -3.5 85.5z" />
<glyph unicode="~" horiz-adv-x="564" d="M13 203q2 11 10.5 26t21.5 32l23.5 57.5t28 57t35 52t44.5 43.5q9 7 18.5 13.5t20 10t21.5 2.5t22 -10l10 -10.5l10 -10.5q12 -12 22 -26t19 -30l23 -34t23 -33v-1l27 28l31.5 30.5l33 30l31.5 26.5l6 6h3q14 11 25 17t19 6q-4 -6 -2 -7t5.5 -1.5t6 -3t0.5 -11.5 q-4 -12 -13 -24.5t-20 -24.5t-23.5 -23.5l-23.5 -22.5l-8 -10l-8 -10l-22.5 -39l-22.5 -37q-11 -14 -24.5 -27.5t-31.5 -15.5q-1 0 -5 2q-14 -9 -23 -9q-1 0 -2 1l-3 -3l-15 9v0q-40 18 -75 50t-60 69q-5 -8 -11 -14.5t-11 -14.5l-15 -18l5 2q0 -12 -11 -28.5t-27 -33 t-32 -29.5t-27 -17q-6 -2 -10 2q0 1 -1 1v1q-8 -5 -14 -5.5t-4 9.5z" />
<glyph unicode="&#xad;" d="M13.5 343.5q-1.5 3.5 0 8.5t5 10l5.5 8q9 12 21 26.5t28 19.5h1q7 7 14.5 12.5t15.5 8.5q30 11 66.5 18.5t74 11t74.5 2.5t68 -7q7 -2 6.5 -5t-2.5 -9q-1 -2 -2 -4.5t-2 -4.5q-3 -2 -6 -3.5t-6 -3.5q5 -1 9 -1t8 -1h12l2 -1q1 0 3 -2q5 -1 9.5 -2t9.5 -2h1q1 -1 4 -1 q2 -10 -4 -21t-16 -20.5t-21.5 -16t-20.5 -7.5q-11 1 -21 3t-21 4q-27 0 -57.5 -1l-61 -2t-60 -2.5t-54.5 -2.5q-43 -5 -74 -15q-7 -1 -8.5 2.5z" />
<glyph unicode="&#x2000;" horiz-adv-x="409" />
<glyph unicode="&#x2001;" horiz-adv-x="819" />
<glyph unicode="&#x2002;" horiz-adv-x="409" />
<glyph unicode="&#x2003;" horiz-adv-x="819" />
<glyph unicode="&#x2004;" horiz-adv-x="273" />
<glyph unicode="&#x2005;" horiz-adv-x="204" />
<glyph unicode="&#x2006;" horiz-adv-x="136" />
<glyph unicode="&#x2007;" horiz-adv-x="136" />
<glyph unicode="&#x2008;" horiz-adv-x="102" />
<glyph unicode="&#x2009;" horiz-adv-x="163" />
<glyph unicode="&#x200a;" horiz-adv-x="45" />
<glyph unicode="&#x2010;" d="M13.5 343.5q-1.5 3.5 0 8.5t5 10l5.5 8q9 12 21 26.5t28 19.5h1q7 7 14.5 12.5t15.5 8.5q30 11 66.5 18.5t74 11t74.5 2.5t68 -7q7 -2 6.5 -5t-2.5 -9q-1 -2 -2 -4.5t-2 -4.5q-3 -2 -6 -3.5t-6 -3.5q5 -1 9 -1t8 -1h12l2 -1q1 0 3 -2q5 -1 9.5 -2t9.5 -2h1q1 -1 4 -1 q2 -10 -4 -21t-16 -20.5t-21.5 -16t-20.5 -7.5q-11 1 -21 3t-21 4q-27 0 -57.5 -1l-61 -2t-60 -2.5t-54.5 -2.5q-43 -5 -74 -15q-7 -1 -8.5 2.5z" />
<glyph unicode="&#x2011;" d="M13.5 343.5q-1.5 3.5 0 8.5t5 10l5.5 8q9 12 21 26.5t28 19.5h1q7 7 14.5 12.5t15.5 8.5q30 11 66.5 18.5t74 11t74.5 2.5t68 -7q7 -2 6.5 -5t-2.5 -9q-1 -2 -2 -4.5t-2 -4.5q-3 -2 -6 -3.5t-6 -3.5q5 -1 9 -1t8 -1h12l2 -1q1 0 3 -2q5 -1 9.5 -2t9.5 -2h1q1 -1 4 -1 q2 -10 -4 -21t-16 -20.5t-21.5 -16t-20.5 -7.5q-11 1 -21 3t-21 4q-27 0 -57.5 -1l-61 -2t-60 -2.5t-54.5 -2.5q-43 -5 -74 -15q-7 -1 -8.5 2.5z" />
<glyph unicode="&#x2012;" d="M13.5 343.5q-1.5 3.5 0 8.5t5 10l5.5 8q9 12 21 26.5t28 19.5h1q7 7 14.5 12.5t15.5 8.5q30 11 66.5 18.5t74 11t74.5 2.5t68 -7q7 -2 6.5 -5t-2.5 -9q-1 -2 -2 -4.5t-2 -4.5q-3 -2 -6 -3.5t-6 -3.5q5 -1 9 -1t8 -1h12l2 -1q1 0 3 -2q5 -1 9.5 -2t9.5 -2h1q1 -1 4 -1 q2 -10 -4 -21t-16 -20.5t-21.5 -16t-20.5 -7.5q-11 1 -21 3t-21 4q-27 0 -57.5 -1l-61 -2t-60 -2.5t-54.5 -2.5q-43 -5 -74 -15q-7 -1 -8.5 2.5z" />
<glyph unicode="&#x2013;" horiz-adv-x="500" d="M13 341v128h475v-128h-475z" />
<glyph unicode="&#x2014;" horiz-adv-x="1000" d="M13 341v128h975v-128h-975z" />
<glyph unicode="&#x2018;" horiz-adv-x="183" d="M15.5 509.5q8.5 37.5 29.5 72.5q17 41 47 71.5t68 35.5l4 -9q9 -2 7 -9t-9.5 -16t-17 -17.5t-15.5 -14.5l-13 -11.5t-13 -10.5q-2 -8 -2 -12q1 -12 5.5 -22.5t10 -21.5l11 -22t6.5 -23q3 -2 6 -2.5t6 -2.5l-6 -6t-5 -6q-2 -17 -17 -34.5t-33.5 -27t-37 -6.5t-27.5 27 q-13 30 -4.5 67.5z" />
<glyph unicode="&#x2019;" horiz-adv-x="188" d="M13 609q1 6 6 16q5 8 13 18t18 18q9 16 25 29.5t30 11.5l2 2v-3q46 -19 60 -58t4 -81q-1 -12 -5 -22.5t-9 -20.5q-3 -22 -11 -43t-19.5 -37.5t-27.5 -27t-36 -10.5q-3 2 -3 10q0 3 1 6q1 2 2 4.5t2 4.5q5 11 11 22q-8 -2 -10 -2q-9 0 -12.5 9t-4.5 20.5t0.5 23t2.5 17.5 q0 -2 -0.5 -4.5t-0.5 -4.5q1 12 1 25q0 14 -2 27t-8 24.5t-17 18.5l-9 -9q-4 10 -3 16z" />
<glyph unicode="&#x201c;" horiz-adv-x="372" d="M12.5 487q0.5 12 1.5 20q5 50 21 84.5t51 69.5l14 12t15 10q19 17 39.5 24t40.5 -1q0 -9 -1 -13q-7 -18 -23 -34q-11 -21 -26.5 -36.5t-29.5 -25.5q0 -1 -0.5 -1.5t-0.5 -1.5q-5 -11 -4 -24.5t3 -24.5q3 -28 12 -50t5 -44l-1 -5q-3 -13 -14 -27q-10 -11 -21 -20.5 t-26 -11.5q-8 6 -16 10.5t-13 12.5q-4 5 -7 13q-8 6 -12 17t-6 23t-1.5 24zM191.5 431.5q0.5 19.5 2.5 32.5q3 23 9 46q0 67 51 120q12 17 26 31t31 24q6 3 10.5 5.5t12.5 0.5q3 -2 4 -7l15 3q7 -2 6.5 -5.5t-2.5 -8.5q-8 -20 -25.5 -34.5t-34.5 -25.5q-2 -2 -3 -2.5 t-2 -1.5q-15 -23 -15.5 -48.5t1.5 -51.5q3 -9 8 -19l-6 -6q1 -14 0 -28t-5 -28q-5 -13 -15.5 -24.5t-21.5 -19.5q-20 -15 -30 -9.5t-13.5 21.5t-3 35.5z" />
<glyph unicode="&#x201d;" horiz-adv-x="332" d="M13 611q-2 5 2 13t11 16q10 12 20 19q18 13 28 13q3 1 5.5 0.5t4.5 0.5q5 2 10.5 2.5t10.5 -1.5q2 -1 2.5 -1.5t2.5 -1.5q29 -8 46 -38q9 -16 12 -41t2.5 -52t-5 -51.5t-11.5 -41.5q-10 -16 -25.5 -33t-35.5 -19h-3l-3 3q-2 9 -1 17.5t4 17.5l9 6q1 3 1.5 5.5t0.5 5.5 q-13 -16 -33 -23q-5 -2 -9 2q0 29 2.5 51t1 42t-11.5 40t-34 43h-1q-3 2 -3 6zM203 624q0 6 4 16q5 8 10.5 16t13.5 16q11 12 24 20.5t24 6.5q13 -15 21 -29l1 -1q17 -34 18.5 -75.5t-5.5 -76.5q-4 -20 -9.5 -35.5t-7.5 -32.5v-30v-1l-1 -1q-2 -6 -9 -17t-16.5 -20.5 t-19.5 -16t-17 -3.5l-3 -3v5q-2 12 -1.5 22.5t2.5 21.5q1 28 1.5 56.5t-1.5 57t-8.5 55t-20.5 49.5z" />
<glyph unicode="&#x2026;" horiz-adv-x="715" d="M15.5 26.5q-5.5 17.5 1 36.5t23.5 36t39 26q8 3 17 4t18 3l22 13q20 13 38.5 15t31.5 -14q3 -5 4.5 -8.5t3.5 -7.5q11 -15 5 -33.5t-23 -36.5q-16 -21 -38 -38t-39 -27q-12 -7 -27 -10q-14 -4 -25.5 -2.5t-19.5 11.5q-1 2 -1.5 2.5t-1.5 2.5q-23 10 -28.5 27.5zM275 48 q5 19 17.5 37t31 32.5t37.5 20.5q8 6 12 8q11 6 24.5 7t26.5 3l15 -4q9 0 16 -4q2 -2 4 -3q6 1 11.5 -0.5t8.5 -6.5q11 -23 -1.5 -48.5t-37.5 -45.5q-12 -18 -28.5 -33.5t-33 -25t-31.5 -12.5t-25 4q-10 3 -10 15q0 1 -1 1q-11 1 -20 5.5t-14 15.5q-7 15 -2 34zM516.5 45 q5.5 19 19 38.5t30 35.5t25.5 22q11 8 22 11.5t24 5.5l24 -10q16 0 28 -12q17 -19 9 -46q0 -2 3 -4l-8 -8q-10 -21 -30 -40.5t-43.5 -32.5t-46 -16t-38.5 10q-7 6 -9 15q-15 12 -9.5 31z" />
<glyph unicode="&#x202f;" horiz-adv-x="163" />
<glyph unicode="&#x205f;" horiz-adv-x="204" />
<glyph unicode="&#x20ac;" horiz-adv-x="619" d="M14 334q4 9 12 17.5t16.5 16t12.5 10.5q7 4 14 7l14 6q28 13 61.5 17.5t71.5 4.5q2 1 8 1q22 40 55.5 75t68.5 52q18 9 42.5 17.5t50.5 13.5t53 5.5t49 -6.5q13 -2 23 -7t15 -13q-1 -1 -2 -1q5 -5 8.5 -10t7.5 -10l-65 -62q-3 5 -5 10.5t-6 10.5h-1q0 1 -1 1l-1 -1 l-3.5 3.5l-3.5 3.5q-2 1 -3.5 2t-3.5 2q-10 4 -23.5 6t-26.5 2q-12 0 -22.5 -0.5t-13.5 -0.5q-12 -2 -23 -6t-22 -9q-15 -7 -27 -18q-12 -19 -17 -49q27 2 54 3.5t54 1.5q24 0 26.5 -9t-7.5 -22h4l-1 -1q9 -3 4 -12.5t-15.5 -20.5t-22.5 -20t-17 -11l-1 -1h-6 q-19 -3 -37.5 -4.5t-37.5 -2.5q1 -11 1.5 -21t2.5 -21q37 2 73.5 3t73.5 1l-2 -2q8 -1 13.5 -1.5t11.5 -5.5q-1 -1 0 -2l2 -2t1 -3t-2 -6q2 -6 -5 -16t-17.5 -20t-21.5 -17.5t-19 -7.5q-23 -1 -45 -1q-21 0 -43 -1q3 -8 6 -15t6 -12q4 -7 9 -12.5l10 -10.5q26 -6 52.5 -7.5 t52.5 0.5q11 1 25 4.5t28.5 8.5t27.5 10t20 8q2 1 3 1t3 1l1 1l2 1l-1 -1q16 4 14 -4t-12 -19.5t-21.5 -22.5t-14.5 -13q-37 -18 -71.5 -31t-76.5 -15q-46 -2 -90.5 2.5t-84.5 28.5q-9 5 -16.5 20t-12.5 35q-5 9 -6 18t-2 20q-9 -1 -19 -1h-19q-9 -1 -19 -1h-20l-24.5 -6 t-26.5 -3l-1 1q0 1 -1 2q-8 0 -11 1q-2 2 -4 3.5t-12 -6.5q-14 2 -18 13q2 20 19 36t33 25q17 5 35.5 5.5t36.5 -1.5q4 2 6.5 2.5t4.5 1.5q5 1 9 1q5 0 10 1t9.5 1.5t9.5 1.5q1 13 1 26v27h-1q-10 0 -21 1l-23 2q-4 -1 -12 -1q-5 -1 -22.5 -4t-37.5 -6t-38.5 -4t-26.5 2 q-6 6 -2 15z" />
<glyph unicode="&#x2122;" horiz-adv-x="1286" d="M675.5 -15.5q-1.5 32.5 0.5 71t7.5 80.5t13.5 84q-1 26 -1 51v52q0 22 0.5 43t5 39.5t14.5 35t29 30.5q2 11 4.5 21l5.5 21l4 12l4 12q-1 5 -1.5 9t-0.5 9l12 10q2 10 2.5 19t-2.5 19l65 62q5 -15 4 -28.5t-6 -27.5h9q20 -51 31 -104t25 -106l11.5 -38.5l10.5 -35.5 q6 -21 15 -38v2q3 14 6.5 27t8.5 27q5 15 11 30.5l12 30.5q1 1 0.5 1.5t0.5 1.5q3 9 8 21.5t9.5 26t6.5 26.5t-2 23l36 34q2 5 4.5 9.5t4.5 9.5q15 31 32 59.5t41 53.5q7 8 14.5 13.5t16.5 10.5q2 1 4 1q3 0 5 1q3 1 6 1q3 -2 5 -5q2 -11 -3.5 -30.5t-13.5 -38.5 q8 -14 13.5 -48.5t8.5 -73t5 -73.5t3 -51q3 -50 6.5 -100t12.5 -99l1 -1q9 -31 22.5 -59t24.5 -57q2 -2 2.5 -3t2.5 -3q-2 -2 -3 -2.5t-2 -1.5q-2 -7 -6 -13q6 -13 16 -25l-7 -7q7 -19 13 -39t10 -40q-2 -6 -10 -18t-18.5 -22.5t-21 -16.5t-16.5 0v-1v2q-21 45 -36.5 91.5 t-32.5 91.5l-19.5 49t-19 52.5t-14.5 54t-6 53.5q-2 4 -2 6l3 3q5 13 15 26l-2 14t-2 15q-6 32 -11 64.5t-8 65.5q-13 -26 -25 -53t-20 -53.5t-11.5 -52t0.5 -49.5l9 6q-8 -22 -21.5 -38.5t-33.5 -27.5q-5 -2 -9.5 -4t-9.5 3q-3 11 -3 21l-4 -4q0 -2 2 -4l-3 -3q-1 -1 -1 -4 l-11 -14.5t-17.5 -20.5t-19.5 -15t-16 1q-22 50 -41.5 101.5t-35.5 105.5q-5 -33 -8.5 -65.5t-6.5 -65.5q0 -51 1 -100.5t1 -100.5q0 -2 1 -2l-1 -1q-1 -5 -7 -14.5t-14.5 -19t-17.5 -17.5t-17 -9v-1l-9.5 -9.5t-14 -12.5t-14.5 -8.5t-12 2.5q-6 24 -7.5 56.5zM1009 243l6 5 h-5v0q0 -1 -0.5 -2t-0.5 -3zM1162 698l1 -1v0q-1 0 -1 1zM13 568.5q4 8.5 14.5 20.5t23.5 22.5t16 12.5q2 1 5 1.5t8 2.5l11.5 11t7.5 7q5 4 12 7t15 5l13.5 8t14.5 8q17 8 32 8h34l-13 -15q44 0 88.5 -3t74.5 -1q24 2 47.5 2.5t48.5 2.5q11 0 21.5 1t21.5 -1q1 0 1.5 -0.5 t1.5 -0.5h2h4l-1 -1q8 -5 -1 -19q5 0 9 -0.5t9 -1.5q12 1 30.5 1.5t36.5 -0.5t31.5 -4t16.5 -10q2 -11 -3.5 -18.5l-11.5 -15.5q-26 -32 -49.5 -37.5t-50.5 1.5q-14 -11 -26 -16h-5q1 1 3 5l-4 -5q-9 7 -23.5 10.5t-31 5t-33.5 1t-31 -0.5q-2 -14 -5.5 -27.5t-5.5 -27.5 q-1 -2 -1 -5q0 -2 -1 -4q-1 -36 0 -76t3.5 -80t5.5 -77t6 -66q5 -40 13 -78.5t10 -79.5q-2 -8 -12.5 -22.5t-23.5 -25.5q0 -2 0.5 -4.5t0.5 -4.5q-1 -6 -9 -17t-17.5 -21.5t-20 -17t-17.5 -2.5l-1 -1q0 -1 -1 -2q0 2 -0.5 3t-0.5 2q-16 67 -22 138t-7 143.5t1 144.5t2 140 q0 12 11.5 28.5t25.5 29.5q1 2 2 4.5t2 4.5q-3 0 -6.5 -0.5t-6.5 -0.5q-29 -5 -55 -10t-47 -8q-26 -4 -53 -4q-26 0 -52 -1h-4l-28 -10t-24 -3l-3 3v3q1 12 7.5 22t16.5 19q-11 -3 -21 -6t-21 -4q-15 -1 -11 7.5z" />
<glyph unicode="&#xe000;" horiz-adv-x="425" d="M0 425h425v-425h-425v425z" />
<glyph unicode="&#xfb01;" horiz-adv-x="722" d="M556 267q0 17 0.5 31.5t3.5 27t10 24t21 23.5l11.5 9t14.5 8l23 22q2 -6 3.5 -12.5t2.5 -12.5q10 8 18 10.5t10 -6.5q-1 -8 -1.5 -15.5t-0.5 -15.5q-1 -40 -1.5 -80t0.5 -80q3 -39 8.5 -78t14.5 -80q1 0 3 2q0 -2 -0.5 -4.5t-0.5 -4.5q-2 -6 -9.5 -17t-17.5 -21.5 t-20 -17t-17 -3.5q-8 -7 -16 -10t-13 2q-1 3 -1.5 5.5t-1.5 5.5q-15 -10 -22 -3q-1 5 -1 11q0 5 -1 11q-3 7 -5.5 20t-3.5 27.5t-2 27.5t-1 19q-1 14 -1 27v27q-1 11 -1.5 23t-0.5 23q-5 40 -2 78zM570 476q0 36 13 68l5 4q1 2 1 4q0 3 1 5q8 18 24 35t36 22h2q5 -1 6 -6 v-13q8 6 13.5 7t7.5 -7q2 -16 2 -30t5 -15l-17 -20q-2 -14 -6 -27.5t-12 -24.5l-5 -7.5t-8 -9.5q-1 -1 -1 -2v-1l-1 -1q0 -1 -1 -1v-1l-11 -14.5t-17.5 -20.5t-19.5 -15t-16 1q-1 34 -1 70zM16 293q2 18 15.5 31.5t27.5 24.5q18 12 40.5 20t47.5 13q0 6 0.5 12t0.5 13 q1 20 -2.5 40.5t2.5 40.5q5 13 17 28l-2 2q-2 11 1 21t9 19t14 17l15 15l1 1q20 28 48 47t60 33q27 11 61.5 11.5t61.5 -14.5q6 -4 17.5 -17.5t22 -30.5t16 -34.5t-0.5 -28.5q-9 -16 -25 -33t-36 -19q-9 5 -15.5 15t-14.5 18q-5 3 -9 6.5t-9 5.5q-11 -2 -23.5 4.5 t-23.5 10.5q-11 -7 -22.5 -13l-23.5 -12q-4 -5 -6.5 -11t-4.5 -12q4 -10 3.5 -26.5t-2.5 -34.5t-5 -35l-5 -29q18 1 35.5 0.5t33.5 -0.5h14q12 0 24 -1t22 -5t10 -12l-66 -57v1q-9 -8 -18.5 -12.5t-17.5 -4.5q-11 1 -21 2t-21 3q-1 -38 0 -76t4 -76q2 -22 8 -42.5t6 -42.5 q-2 -6 -5 -12.5t-8 -13.5q2 -14 3.5 -28.5t3.5 -28.5q-2 -6 -10 -18t-18.5 -22.5t-21 -16.5t-16.5 0q-3 5 -4.5 10t-3.5 10q1 2 2 2.5t2 2.5l-2 12t-3 13q-11 -15 -26 -26t-23 -4q0 1 -0.5 1.5t-0.5 1.5q-1 0 -2 1q0 1 -0.5 1.5t-0.5 1.5q0 2 2 2q-5 23 -4 47.5t-1 47.5 q-2 29 -3 57.5t1 57.5l3 2q-1 33 -0.5 66.5t1.5 66.5q-8 -2 -15.5 -3.5t-15.5 -3.5q-14 -4 -27 -5.5t-26 -7.5l-2 -2q-1 1 -2 1t-2 1q-3 2 -3 5q-9 -2 -17 -2.5t-15 1.5l-3 3q-1 1 -1 3z" />
<glyph unicode="&#xfb02;" horiz-adv-x="727" d="M560 327.5q1 52.5 5 106.5v17t1 17q2 35 1.5 75t6.5 75q2 5 12 17.5t21 23.5q2 5 4 9.5t5 9.5q10 14 23.5 28t31.5 19h5q5 -2 6 -6q4 -24 -0.5 -50l-8.5 -49q-7 -45 -15 -89t-15 -89q-1 -90 7.5 -178t24.5 -175l5 4q0 -4 -0.5 -7t-0.5 -7q-2 -6 -9 -16.5t-17 -21.5 q1 -5 1 -11v-10q0 -4 1 -6q-2 -1 -2.5 -2t-2.5 -2q-4 -7 -12 -17.5t-17 -19.5t-17.5 -13.5t-14.5 0.5q-1 0 -1 -1v2q-5 30 -9 60t-7 60q-1 5 -1.5 9.5t-1.5 9.5q-5 30 -6.5 60t-0.5 61q-3 54 -2 106.5zM16 293q2 18 15.5 31.5t27.5 24.5q18 12 40.5 20t47.5 13q0 6 0.5 12 t0.5 13q1 20 -2.5 40.5t2.5 40.5q5 13 17 28l-2 2q-2 11 1 21t9 19t14 17l15 15l1 1q20 28 48 47t60 33q27 11 61.5 11.5t61.5 -14.5q6 -4 17.5 -17.5t22 -30.5t16 -34.5t-0.5 -28.5q-9 -16 -25 -33t-36 -19q-9 5 -15.5 15t-14.5 18q-5 3 -9 6.5t-9 5.5q-11 -2 -23.5 4.5 t-23.5 10.5q-11 -7 -22.5 -13l-23.5 -12q-4 -5 -6.5 -11t-4.5 -12q4 -10 3.5 -26.5t-2.5 -34.5t-5 -35l-5 -29q18 1 35.5 0.5t33.5 -0.5h14q12 0 24 -1t22 -5t10 -12l-66 -57v1q-9 -8 -18.5 -12.5t-17.5 -4.5q-11 1 -21 2t-21 3q-1 -38 0 -76t4 -76q2 -22 8 -42.5t6 -42.5 q-2 -6 -5 -12.5t-8 -13.5q2 -14 3.5 -28.5t3.5 -28.5q-2 -6 -10 -18t-18.5 -22.5t-21 -16.5t-16.5 0q-3 5 -4.5 10t-3.5 10q1 2 2 2.5t2 2.5l-2 12t-3 13q-11 -15 -26 -26t-23 -4q0 1 -0.5 1.5t-0.5 1.5q-1 0 -2 1q0 1 -0.5 1.5t-0.5 1.5q0 2 2 2q-5 23 -4 47.5t-1 47.5 q-2 29 -3 57.5t1 57.5l3 2q-1 33 -0.5 66.5t1.5 66.5q-8 -2 -15.5 -3.5t-15.5 -3.5q-14 -4 -27 -5.5t-26 -7.5l-2 -2q-1 1 -2 1t-2 1q-3 2 -3 5q-9 -2 -17 -2.5t-15 1.5l-3 3q-1 1 -1 3z" />
<glyph unicode="&#xfb03;" horiz-adv-x="1241" d="M1075 267q0 17 0.5 31.5t3.5 27t10 24t21 23.5l11.5 9t14.5 8l23 22q2 -6 3.5 -12.5t2.5 -12.5q10 8 18 10.5t10 -6.5q-1 -8 -1.5 -15.5t-0.5 -15.5q-1 -40 -1.5 -80t0.5 -80q3 -39 8.5 -78t14.5 -80q1 0 3 2q0 -2 -0.5 -4.5t-0.5 -4.5q-2 -6 -9.5 -17t-17.5 -21.5 t-20 -17t-17 -3.5q-8 -7 -16 -10t-13 2q-1 3 -1.5 5.5t-1.5 5.5q-15 -10 -22 -3q-1 5 -1 11q0 5 -1 11q-3 7 -5.5 20t-3.5 27.5t-2 27.5t-1 19q-1 14 -1 27v27q-1 11 -1.5 23t-0.5 23q-5 40 -2 78zM1089 476q0 36 13 68l5 4q1 2 1 4q0 3 1 5q8 18 24 35t36 22h2q5 -1 6 -6 v-13q8 6 13.5 7t7.5 -7q2 -16 2 -30t5 -15l-17 -20q-2 -14 -6 -27.5t-12 -24.5l-5 -7.5t-8 -9.5q-1 -1 -1 -2v-1l-1 -1q0 -1 -1 -1v-1l-11 -14.5t-17.5 -20.5t-19.5 -15t-16 1q-1 34 -1 70zM535 293q2 18 15.5 31.5t27.5 24.5q18 12 40.5 20t47.5 13q0 6 0.5 12t0.5 13 q1 20 -2.5 40.5t2.5 40.5q5 13 17 28l-2 2q-2 11 1 21t9 19t14 17l15 15l1 1q20 28 48 47t60 33q27 11 61.5 11.5t61.5 -14.5q6 -4 17.5 -17.5t22 -30.5t16 -34.5t-0.5 -28.5q-9 -16 -25 -33t-36 -19q-9 5 -15.5 15t-14.5 18q-5 3 -9 6.5t-9 5.5q-11 -2 -23.5 4.5 t-23.5 10.5q-11 -7 -22.5 -13l-23.5 -12q-4 -5 -6.5 -11t-4.5 -12q4 -10 3.5 -26.5t-2.5 -34.5t-5 -35l-5 -29q18 1 35.5 0.5t33.5 -0.5h14q12 0 24 -1t22 -5t10 -12l-66 -57v1q-9 -8 -18.5 -12.5t-17.5 -4.5q-11 1 -21 2t-21 3q-1 -38 0 -76t4 -76q2 -22 8 -42.5t6 -42.5 q-2 -6 -5 -12.5t-8 -13.5q2 -14 3.5 -28.5t3.5 -28.5q-2 -6 -10 -18t-18.5 -22.5t-21 -16.5t-16.5 0q-3 5 -4.5 10t-3.5 10q1 2 2 2.5t2 2.5l-2 12t-3 13q-11 -15 -26 -26t-23 -4q0 1 -0.5 1.5t-0.5 1.5q-1 0 -2 1q0 1 -0.5 1.5t-0.5 1.5q0 2 2 2q-5 23 -4 47.5t-1 47.5 q-2 29 -3 57.5t1 57.5l3 2q-1 33 -0.5 66.5t1.5 66.5q-8 -2 -15.5 -3.5t-15.5 -3.5q-14 -4 -27 -5.5t-26 -7.5l-2 -2q-1 1 -2 1t-2 1q-3 2 -3 5q-9 -2 -17 -2.5t-15 1.5l-3 3q-1 1 -1 3zM16 293q2 18 15.5 31.5t27.5 24.5q18 12 40.5 20t47.5 13q0 6 0.5 12t0.5 13 q1 20 -2.5 40.5t2.5 40.5q5 13 17 28l-2 2q-2 11 1 21t9 19t14 17l15 15l1 1q20 28 48 47t60 33q27 11 61.5 11.5t61.5 -14.5q6 -4 17.5 -17.5t22 -30.5t16 -34.5t-0.5 -28.5q-9 -16 -25 -33t-36 -19q-9 5 -15.5 15t-14.5 18q-5 3 -9 6.5t-9 5.5q-11 -2 -23.5 4.5 t-23.5 10.5q-11 -7 -22.5 -13l-23.5 -12q-4 -5 -6.5 -11t-4.5 -12q4 -10 3.5 -26.5t-2.5 -34.5t-5 -35l-5 -29q18 1 35.5 0.5t33.5 -0.5h14q12 0 24 -1t22 -5t10 -12l-66 -57v1q-9 -8 -18.5 -12.5t-17.5 -4.5q-11 1 -21 2t-21 3q-1 -38 0 -76t4 -76q2 -22 8 -42.5t6 -42.5 q-2 -6 -5 -12.5t-8 -13.5q2 -14 3.5 -28.5t3.5 -28.5q-2 -6 -10 -18t-18.5 -22.5t-21 -16.5t-16.5 0q-3 5 -4.5 10t-3.5 10q1 2 2 2.5t2 2.5l-2 12t-3 13q-11 -15 -26 -26t-23 -4q0 1 -0.5 1.5t-0.5 1.5q-1 0 -2 1q0 1 -0.5 1.5t-0.5 1.5q0 2 2 2q-5 23 -4 47.5t-1 47.5 q-2 29 -3 57.5t1 57.5l3 2q-1 33 -0.5 66.5t1.5 66.5q-8 -2 -15.5 -3.5t-15.5 -3.5q-14 -4 -27 -5.5t-26 -7.5l-2 -2q-1 1 -2 1t-2 1q-3 2 -3 5q-9 -2 -17 -2.5t-15 1.5l-3 3q-1 1 -1 3z" />
<glyph unicode="&#xfb04;" horiz-adv-x="1246" d="M1079 327.5q1 52.5 5 106.5v17t1 17q2 35 1.5 75t6.5 75q2 5 12 17.5t21 23.5q2 5 4 9.5t5 9.5q10 14 23.5 28t31.5 19h5q5 -2 6 -6q4 -24 -0.5 -50l-8.5 -49q-7 -45 -15 -89t-15 -89q-1 -90 7.5 -178t24.5 -175l5 4q0 -4 -0.5 -7t-0.5 -7q-2 -6 -9 -16.5t-17 -21.5 q1 -5 1 -11v-10q0 -4 1 -6q-2 -1 -2.5 -2t-2.5 -2q-4 -7 -12 -17.5t-17 -19.5t-17.5 -13.5t-14.5 0.5q-1 0 -1 -1v2q-5 30 -9 60t-7 60q-1 5 -1.5 9.5t-1.5 9.5q-5 30 -6.5 60t-0.5 61q-3 54 -2 106.5zM535 293q2 18 15.5 31.5t27.5 24.5q18 12 40.5 20t47.5 13q0 6 0.5 12 t0.5 13q1 20 -2.5 40.5t2.5 40.5q5 13 17 28l-2 2q-2 11 1 21t9 19t14 17l15 15l1 1q20 28 48 47t60 33q27 11 61.5 11.5t61.5 -14.5q6 -4 17.5 -17.5t22 -30.5t16 -34.5t-0.5 -28.5q-9 -16 -25 -33t-36 -19q-9 5 -15.5 15t-14.5 18q-5 3 -9 6.5t-9 5.5q-11 -2 -23.5 4.5 t-23.5 10.5q-11 -7 -22.5 -13l-23.5 -12q-4 -5 -6.5 -11t-4.5 -12q4 -10 3.5 -26.5t-2.5 -34.5t-5 -35l-5 -29q18 1 35.5 0.5t33.5 -0.5h14q12 0 24 -1t22 -5t10 -12l-66 -57v1q-9 -8 -18.5 -12.5t-17.5 -4.5q-11 1 -21 2t-21 3q-1 -38 0 -76t4 -76q2 -22 8 -42.5t6 -42.5 q-2 -6 -5 -12.5t-8 -13.5q2 -14 3.5 -28.5t3.5 -28.5q-2 -6 -10 -18t-18.5 -22.5t-21 -16.5t-16.5 0q-3 5 -4.5 10t-3.5 10q1 2 2 2.5t2 2.5l-2 12t-3 13q-11 -15 -26 -26t-23 -4q0 1 -0.5 1.5t-0.5 1.5q-1 0 -2 1q0 1 -0.5 1.5t-0.5 1.5q0 2 2 2q-5 23 -4 47.5t-1 47.5 q-2 29 -3 57.5t1 57.5l3 2q-1 33 -0.5 66.5t1.5 66.5q-8 -2 -15.5 -3.5t-15.5 -3.5q-14 -4 -27 -5.5t-26 -7.5l-2 -2q-1 1 -2 1t-2 1q-3 2 -3 5q-9 -2 -17 -2.5t-15 1.5l-3 3q-1 1 -1 3zM16 293q2 18 15.5 31.5t27.5 24.5q18 12 40.5 20t47.5 13q0 6 0.5 12t0.5 13 q1 20 -2.5 40.5t2.5 40.5q5 13 17 28l-2 2q-2 11 1 21t9 19t14 17l15 15l1 1q20 28 48 47t60 33q27 11 61.5 11.5t61.5 -14.5q6 -4 17.5 -17.5t22 -30.5t16 -34.5t-0.5 -28.5q-9 -16 -25 -33t-36 -19q-9 5 -15.5 15t-14.5 18q-5 3 -9 6.5t-9 5.5q-11 -2 -23.5 4.5 t-23.5 10.5q-11 -7 -22.5 -13l-23.5 -12q-4 -5 -6.5 -11t-4.5 -12q4 -10 3.5 -26.5t-2.5 -34.5t-5 -35l-5 -29q18 1 35.5 0.5t33.5 -0.5h14q12 0 24 -1t22 -5t10 -12l-66 -57v1q-9 -8 -18.5 -12.5t-17.5 -4.5q-11 1 -21 2t-21 3q-1 -38 0 -76t4 -76q2 -22 8 -42.5t6 -42.5 q-2 -6 -5 -12.5t-8 -13.5q2 -14 3.5 -28.5t3.5 -28.5q-2 -6 -10 -18t-18.5 -22.5t-21 -16.5t-16.5 0q-3 5 -4.5 10t-3.5 10q1 2 2 2.5t2 2.5l-2 12t-3 13q-11 -15 -26 -26t-23 -4q0 1 -0.5 1.5t-0.5 1.5q-1 0 -2 1q0 1 -0.5 1.5t-0.5 1.5q0 2 2 2q-5 23 -4 47.5t-1 47.5 q-2 29 -3 57.5t1 57.5l3 2q-1 33 -0.5 66.5t1.5 66.5q-8 -2 -15.5 -3.5t-15.5 -3.5q-14 -4 -27 -5.5t-26 -7.5l-2 -2q-1 1 -2 1t-2 1q-3 2 -3 5q-9 -2 -17 -2.5t-15 1.5l-3 3q-1 1 -1 3z" />
</font>
</defs>
</svg>
