<?xml version="1.0" encoding="UTF-8" standalone="no"?>
<svg
   xmlns:dc="http://purl.org/dc/elements/1.1/"
   xmlns:cc="http://creativecommons.org/ns#"
   xmlns:rdf="http://www.w3.org/1999/02/22-rdf-syntax-ns#"
   xmlns:svg="http://www.w3.org/2000/svg"
   xmlns="http://www.w3.org/2000/svg"
   id="svg8271"
   version="1.1"
   viewBox="0 0 8.4666665 8.4666669"
   height="32"
   width="32">
  <defs
     id="defs8265" />
  <metadata
     id="metadata8268">
    <rdf:RDF>
      <cc:Work
         rdf:about="">
        <dc:format>image/svg+xml</dc:format>
        <dc:type
           rdf:resource="http://purl.org/dc/dcmitype/StillImage" />
        <dc:title></dc:title>
      </cc:Work>
    </rdf:RDF>
  </metadata>
  <g
     style="fill:#000000"
     id="g8215"
     transform="matrix(0.26458333,0,0,0.26458333,-10395.752,-2099.5903)">
    <g
       style="fill:#000000"
       id="g6816"
       transform="matrix(0.11989824,0,0,-0.11989824,39321.264,7967.5553)">
      <path
         style="fill:#000000;fill-opacity:1;fill-rule:nonzero;stroke:none;stroke-width:0.11989824"
         d="M 1.7636719,0 C 0.78805991,0 -0.00195313,0.79001304 -0.00195313,1.765625 v 28.46875 C -0.00195313,31.209627 0.78805991,32 1.7636719,32 H 17.091797 V 19.607422 h -4.169922 v -4.830078 h 4.169922 v -3.560547 c 0,-4.1332521 2.523707,-6.3847658 6.210937,-6.3847658 1.766101,0 3.284138,0.1326562 3.726563,0.1914063 v 4.3183594 l -2.556641,0.00195 c -2.005178,0 -2.394531,0.953309 -2.394531,2.351562 v 3.082032 h 4.783203 l -0.623047,4.830078 H 22.078125 V 32 h 8.154297 c 0.975252,0 1.765625,-0.790373 1.765625,-1.765625 V 1.765625 C 31.998047,0.79001304 31.207674,0 30.232422,0 Z"
         transform="matrix(8.3404061,0,0,-8.3404061,-252.14986,266.89214)"
         id="path6814" />
    </g>
    <g
       style="fill:#000000"
       id="g6820"
       transform="matrix(0.11989824,0,0,-0.11989824,39313.11,7967.4594)" />
  </g>
</svg>
