<?xml version="1.0" encoding="UTF-8" standalone="no"?>
<svg
   xmlns:dc="http://purl.org/dc/elements/1.1/"
   xmlns:cc="http://creativecommons.org/ns#"
   xmlns:rdf="http://www.w3.org/1999/02/22-rdf-syntax-ns#"
   xmlns:svg="http://www.w3.org/2000/svg"
   xmlns="http://www.w3.org/2000/svg"
   id="svg8271"
   version="1.1"
   viewBox="0 0 8.4666665 8.4666669"
   height="32"
   width="32">
  <defs
     id="defs8265" />
  <metadata
     id="metadata8268">
    <rdf:RDF>
      <cc:Work
         rdf:about="">
        <dc:format>image/svg+xml</dc:format>
        <dc:type
           rdf:resource="http://purl.org/dc/dcmitype/StillImage" />
        <dc:title></dc:title>
      </cc:Work>
    </rdf:RDF>
  </metadata>
  <path
     id="path40311-7"
     style="fill:#000000;fill-opacity:1;fill-rule:evenodd;stroke:none;stroke-width:0.0352777"
     d="m 4.2318715,-1.5423387e-5 c -2.3965001,0 -4.34010013,1.943100023387 -4.34010013,4.340600223387 0,1.9174 1.24360003,3.5442999 2.96840013,4.1184999 0.2170898,0.04 0.29629,-0.094 0.29629,-0.2093999 0,-0.1031 0,-0.3760002 -0.010001,-0.7381 -1.2074004,0.2622 -1.4621004,-0.5818002 -1.4621004,-0.5818002 -0.1975,-0.5014 -0.482,-0.635 -0.482,-0.635 -0.39410003,-0.2691 0.03,-0.2638999 0.03,-0.2638999 0.4356,0.031 0.6648,0.4475001 0.6648,0.4475001 0.3872,0.6630998 1.016,0.4713999 1.2633,0.3602998 0.039,-0.2800998 0.1515999,-0.4713999 0.2755,-0.5799 -0.9638,-0.1098 -1.9771,-0.4820999 -1.9771,-2.1451999 0,-0.4742 0.1692,-0.8612999 0.4468,-1.1648001 -0.045,-0.1097999 -0.1937,-0.5511 0.043,-1.1486 0,0 0.3643,-0.117 1.1935001,0.4446 0.3460999,-0.096 0.7176,-0.1442 1.0865998,-0.146 0.3688001,0 0.7400002,0.05 1.0866001,0.146 0.8287002,-0.5616 1.1924004,-0.4446 1.1924004,-0.4446 0.2369,0.5975 0.088,1.0388001 0.043,1.1486 0.2782,0.3035002 0.4461,0.6906001 0.4461,1.1648001 0,1.6673 -1.0150002,2.0343001 -1.9817001,2.1417 0.1555998,0.1342001 0.2945,0.3987001 0.2945,0.8037999 0,0.5802001 0,1.0483001 0,1.1906002 0,0.1161999 0.078,0.2511999 0.2984,0.2088999 1.7234011,-0.5753 2.9660011,-2.2009 2.9660011,-4.1179999 0,-2.3975002 -1.9436,-4.340600223387 -4.3409001,-4.340600223387" />
</svg>
