<?xml version="1.0" encoding="UTF-8" standalone="no"?>
<svg
   xmlns:dc="http://purl.org/dc/elements/1.1/"
   xmlns:cc="http://creativecommons.org/ns#"
   xmlns:rdf="http://www.w3.org/1999/02/22-rdf-syntax-ns#"
   xmlns:svg="http://www.w3.org/2000/svg"
   xmlns="http://www.w3.org/2000/svg"
   id="svg8271"
   version="1.1"
   viewBox="0 0 8.4666665 8.4666669"
   height="32"
   width="32">
  <defs
     id="defs8265" />
  <metadata
     id="metadata8268">
    <rdf:RDF>
      <cc:Work
         rdf:about="">
        <dc:format>image/svg+xml</dc:format>
        <dc:type
           rdf:resource="http://purl.org/dc/dcmitype/StillImage" />
        <dc:title></dc:title>
      </cc:Work>
    </rdf:RDF>
  </metadata>
  <g
     style="fill:#000000"
     transform="translate(0,-288.53332)"
     id="layer1">
    <g
       style="fill:#000000"
       transform="matrix(0.26458333,0,0,0.26458333,-10406.594,-1811.063)"
       id="g8219">
      <path
         style="color:#000000;clip-rule:nonzero;display:inline;overflow:visible;visibility:visible;opacity:1;isolation:auto;mix-blend-mode:normal;color-interpolation:sRGB;color-interpolation-filters:linearRGB;solid-color:#000000;solid-opacity:1;fill:#000000;fill-opacity:1;fill-rule:nonzero;stroke:none;stroke-width:1;stroke-linecap:butt;stroke-linejoin:miter;stroke-miterlimit:4;stroke-dasharray:none;stroke-dashoffset:0;stroke-opacity:1;color-rendering:auto;image-rendering:auto;shape-rendering:auto;text-rendering:auto;enable-background:accumulate"
         d="M 1.9980469 0 C 0.89004689 0 -0.001953125 0.89200002 -0.001953125 2 L -0.001953125 30 C -0.001953125 31.108 0.89004689 32 1.9980469 32 L 29.998047 32 C 31.106047 32 31.998047 31.108 31.998047 30 L 31.998047 2 C 31.998047 0.89200002 31.106047 0 29.998047 0 L 1.9980469 0 z M 19.84375 7.8730469 C 21.02375 7.8730469 22.091844 8.3724219 22.839844 9.1699219 C 23.774844 8.9858219 24.652313 8.6438281 25.445312 8.1738281 C 25.138313 9.1319281 24.489578 9.9355594 23.642578 10.443359 C 24.472578 10.344159 25.263047 10.123375 25.998047 9.796875 C 25.449047 10.619575 24.752172 11.342775 23.951172 11.921875 C 23.961172 12.097775 23.960938 12.273472 23.960938 12.451172 C 23.960938 17.872212 19.833515 24.124739 12.289062 24.126953 C 12.289062 24.126953 12.287109 24.126953 12.287109 24.126953 C 9.9706051 24.126184 7.8130187 23.446344 5.9980469 22.283203 C 6.3190469 22.321203 6.6475156 22.341797 6.9785156 22.341797 C 8.9005156 22.341797 10.669219 21.684584 12.074219 20.583984 C 10.278219 20.550584 8.7622344 19.364675 8.2402344 17.734375 C 8.4902344 17.782375 8.7477188 17.808594 9.0117188 17.808594 C 9.3867187 17.808594 9.74875 17.758062 10.09375 17.664062 C 8.21575 17.287863 6.8007812 15.630078 6.8007812 13.642578 L 6.8007812 13.587891 C 7.3537812 13.895691 7.9871563 14.080563 8.6601562 14.101562 C 7.5591563 13.366463 6.8339844 12.109147 6.8339844 10.685547 C 6.8339844 9.9340469 7.037625 9.2313 7.390625 8.625 C 9.414625 11.1078 12.437656 12.740809 15.847656 12.912109 C 15.780656 12.611809 15.740234 12.296709 15.740234 11.974609 C 15.740234 9.7093094 17.57775 7.8730469 19.84375 7.8730469 z "
         id="rect6810"
         transform="translate(39332.009,7935.4823)" />
    </g>
  </g>
</svg>
