<?xml version="1.0" encoding="UTF-8" standalone="no"?>
<svg
   xmlns:dc="http://purl.org/dc/elements/1.1/"
   xmlns:cc="http://creativecommons.org/ns#"
   xmlns:rdf="http://www.w3.org/1999/02/22-rdf-syntax-ns#"
   xmlns:svg="http://www.w3.org/2000/svg"
   xmlns="http://www.w3.org/2000/svg"
   id="svg12909"
   version="1.1"
   viewBox="0 0 50.863876 11.1125"
   height="42"
   width="192.24142">
  <defs
     id="defs12903" />
  <metadata
     id="metadata12906">
    <rdf:RDF>
      <cc:Work
         rdf:about="">
        <dc:format>image/svg+xml</dc:format>
        <dc:type
           rdf:resource="http://purl.org/dc/dcmitype/StillImage" />
        <dc:title></dc:title>
      </cc:Work>
    </rdf:RDF>
  </metadata>
  <g
     transform="translate(229.53909,8.6693452)"
     id="layer1">
    <g
       id="text10691"
       style="font-style:normal;font-weight:normal;font-size:4.00183201px;line-height:0%;font-family:sans-serif;letter-spacing:0px;word-spacing:0px;fill:#ffffff;fill-opacity:1;stroke:none;stroke-width:0.23987347px;stroke-linecap:butt;stroke-linejoin:miter;stroke-opacity:1"
       aria-label="webian">
      <path
         id="path12921"
         style="font-style:normal;font-variant:normal;font-weight:bold;font-stretch:normal;font-size:15.01213741px;line-height:1.25;font-family:'Arial Rounded MT Bold';-inkscape-font-specification:'Arial Rounded MT Bold, Bold';fill:#ffffff;stroke-width:0.23987347px"
         d="m -227.60393,-4.4471816 1.30477,4.47138859 1.18748,-4.15619229 q 0.19058,-0.652383 0.27854,-0.8869476 0.0953,-0.2418948 0.34452,-0.454469 0.25656,-0.2199044 0.69636,-0.2199044 0.44714,0 0.69637,0.2199044 0.25655,0.2125742 0.35918,0.4691293 0.10262,0.2492249 0.28587,0.8722873 l 1.18748,4.15619229 1.31943,-4.47138859 q 0.13194,-0.4837896 0.21258,-0.6963638 0.0806,-0.2199043 0.27121,-0.3811675 0.19058,-0.1685934 0.54976,-0.1685934 0.35918,0 0.62306,0.249225 0.26389,0.2492249 0.26389,0.5864116 0,0.3078661 -0.22724,0.9309284 l -1.63462,4.79391499 q -0.21257,0.60840201 -0.32985,0.87961741 -0.11729,0.2712154 -0.37384,0.4837896 -0.24923,0.2125742 -0.68904,0.2125742 -0.45446,0 -0.71835,-0.2272345 -0.25655,-0.2272345 -0.38117,-0.557091 -0.12461,-0.3298566 -0.27121,-0.85762701 l -1.14351,-3.89963729 -1.10685,3.89963729 q -0.2199,0.81364611 -0.47646,1.23146441 -0.25655,0.4104881 -0.9016,0.4104881 -0.32986,0 -0.56443,-0.1319426 -0.22723,-0.1246125 -0.38116,-0.3591771 -0.15394,-0.2418948 -0.27122,-0.5644212 -0.11728,-0.3298565 -0.18325,-0.52044031 l -1.61996,-4.79391499 q -0.2419,-0.6743733 -0.2419,-0.9309284 0,-0.3225264 0.25656,-0.5790815 0.25655,-0.2565551 0.63039,-0.2565551 0.49845,0 0.67437,0.2858757 0.17593,0.2785455 0.37384,0.960249 z" />
      <path
         id="path12923"
         style="font-style:normal;font-variant:normal;font-weight:bold;font-stretch:normal;font-size:15.01213741px;line-height:1.25;font-family:'Arial Rounded MT Bold';-inkscape-font-specification:'Arial Rounded MT Bold, Bold';fill:#ffffff;stroke-width:0.23987347px"
         d="m -211.25771,-1.133956 h -3.91429 q 0.007,0.68170355 0.27121,1.20214386 0.27122,0.52044031 0.71102,0.78432554 0.44714,0.2638852 0.98224,0.2638852 0.35918,0 0.65239,-0.080632 0.30053,-0.0879617 0.57908,-0.26388519 0.27854,-0.18325364 0.51311,-0.3884977 0.23456,-0.20524407 0.6084,-0.55709104 0.15393,-0.13194261 0.43981,-0.13194261 0.30787,0 0.49845,0.16859334 0.19058,0.16859334 0.19058,0.47645944 0,0.27121537 -0.21257,0.63772263 -0.21258,0.35917713 -0.64505,0.69636383 -0.42515,0.3298565 -1.07754,0.5497609 -0.64505,0.2199043 -1.48801,0.2199043 -1.92783,0 -2.99803,-1.0995218 -1.07021,-1.09952175 -1.07021,-2.9833691 0,-0.8869475 0.26389,-1.6419525 0.26389,-0.7623351 0.76967,-1.3047659 0.50578,-0.5424307 1.24612,-0.8283064 0.74034,-0.2932058 1.64195,-0.2932058 1.17283,0 2.00846,0.4984499 0.84297,0.4911197 1.26079,1.2754453 0.41782,0.7843255 0.41782,1.5979716 0,0.755005 -0.43248,0.9822395 -0.43248,0.2199043 -1.21681,0.2199043 z m -3.91429,-1.1361725 h 3.62842 q -0.0733,-1.0262203 -0.55709,-1.5320003 -0.47646,-0.5131102 -1.26079,-0.5131102 -0.74767,0 -1.23146,0.5204403 -0.47646,0.5131102 -0.57908,1.5246702 z" />
      <path
         id="path12925"
         style="font-style:normal;font-variant:normal;font-weight:bold;font-stretch:normal;font-size:15.01213741px;line-height:1.25;font-family:'Arial Rounded MT Bold';-inkscape-font-specification:'Arial Rounded MT Bold, Bold';fill:#ffffff;stroke-width:0.23987347px"
         d="m -206.28787,-7.5258426 v 3.0566706 q 0.56442,-0.5864116 1.15083,-0.8942777 0.58642,-0.3151963 1.45137,-0.3151963 0.9969,0 1.74458,0.4764594 0.755,0.4691293 1.16549,1.3707372 0.41782,0.8942777 0.41782,2.1257421 0,0.90893803 -0.23457,1.67127313 -0.22723,0.75500496 -0.66704,1.31209597 -0.43981,0.5570911 -1.0702,0.8649572 -0.62306,0.3005359 -1.37807,0.3005359 -0.4618,0 -0.87228,-0.1099522 -0.40316,-0.1099521 -0.68904,-0.2858756 -0.28587,-0.1832537 -0.49112,-0.3738374 -0.19791,-0.1905838 -0.52777,-0.5717514 v 0.197914 q 0,0.5644211 -0.27121,0.857627 -0.27122,0.2858756 -0.68904,0.2858756 -0.42515,0 -0.6817,-0.2858756 -0.24923,-0.2932059 -0.24923,-0.857627 v -8.7375331 q 0,-0.6084021 0.2419,-0.9162682 0.24922,-0.3151962 0.68903,-0.3151962 0.4618,0 0.71103,0.3005359 0.24922,0.2932058 0.24922,0.8429667 z m 0.0953,5.9447478 q 0,1.19481366 0.54243,1.83986644 0.54977,0.63772263 1.43671,0.63772263 0.75501,0 1.29744,-0.65238292 0.54976,-0.65971307 0.54976,-1.88384735 0,-0.7916557 -0.22724,-1.363407 -0.22723,-0.5717513 -0.64505,-0.8796174 -0.41782,-0.3151963 -0.97491,-0.3151963 -0.57175,0 -1.01889,0.3151963 -0.44714,0.3078661 -0.70369,0.9016079 -0.25656,0.5864116 -0.25656,1.4000577 z" />
      <path
         id="path12927"
         style="font-style:normal;font-variant:normal;font-weight:bold;font-stretch:normal;font-size:15.01213741px;line-height:1.25;font-family:'Arial Rounded MT Bold';-inkscape-font-specification:'Arial Rounded MT Bold, Bold';fill:#ffffff;stroke-width:0.23987347px"
         d="m -196.73669,-4.5571338 v 5.7834846 q 0,0.6010719 -0.28588,0.908938 -0.28587,0.3078661 -0.72568,0.3078661 -0.43981,0 -0.71835,-0.3151962 -0.27122,-0.3151963 -0.27122,-0.9016079 v -5.7248434 q 0,-0.5937418 0.27122,-0.8942777 0.27854,-0.300536 0.71835,-0.300536 0.43981,0 0.72568,0.300536 0.28588,0.3005359 0.28588,0.8356365 z m -0.98957,-2.0671009 q -0.41782,0 -0.71835,-0.2565551 -0.29321,-0.2565551 -0.29321,-0.7256844 0,-0.4251484 0.30054,-0.6963638 0.30786,-0.2785455 0.71102,-0.2785455 0.3885,0 0.68903,0.2492249 0.30054,0.249225 0.30054,0.7256844 0,0.4617992 -0.29321,0.7256844 -0.2932,0.2565551 -0.69636,0.2565551 z" />
      <path
         id="path12929"
         style="font-style:normal;font-variant:normal;font-weight:bold;font-stretch:normal;font-size:15.01213741px;line-height:1.25;font-family:'Arial Rounded MT Bold';-inkscape-font-specification:'Arial Rounded MT Bold, Bold';fill:#ffffff;stroke-width:0.23987347px"
         d="m -189.60446,1.3143126 q -0.72568,0.5644211 -1.40739,0.8502968 -0.67437,0.2785455 -1.51734,0.2785455 -0.76966,0 -1.35607,-0.3005359 -0.57908,-0.3078661 -0.89428,-0.8283064 -0.3152,-0.52044036 -0.3152,-1.12884241 0,-0.82097627 0.52044,-1.40005769 0.52044,-0.5790815 1.42938,-0.7769954 0.19059,-0.043981 0.94559,-0.197914 0.75501,-0.153933 1.29011,-0.2785455 0.54243,-0.1319426 1.17282,-0.3151962 -0.0367,-0.7916557 -0.32253,-1.158163 -0.27854,-0.3738374 -1.16549,-0.3738374 -0.76233,0 -1.15083,0.2125742 -0.38117,0.2125742 -0.65972,0.6377227 -0.27121,0.4251484 -0.38849,0.5644211 -0.10996,0.1319427 -0.48379,0.1319427 -0.33719,0 -0.58641,-0.2125742 -0.2419,-0.2199044 -0.2419,-0.5570911 0,-0.5277704 0.37384,-1.0262203 0.37384,-0.4984499 1.16549,-0.8209763 0.79166,-0.3225264 1.97181,-0.3225264 1.31943,0 2.07443,0.3151963 0.75501,0.3078661 1.06287,0.9822394 0.3152,0.6743734 0.3152,1.7885555 0,0.7036939 -0.007,1.1948136 0,0.49111977 -0.007,1.09219168 0,0.56442118 0.18325,1.18015338 0.19059,0.60840204 0.19059,0.78432554 0,0.3078661 -0.29321,0.5644212 -0.28588,0.2492249 -0.65238,0.2492249 -0.30787,0 -0.60841,-0.2858756 -0.30053,-0.2932059 -0.63772,-0.8429667 z m -0.13194,-2.8954074 q -0.43981,0.1612632 -1.28278,0.3445168 -0.83563,0.1759235 -1.15816,0.26388524 -0.32253,0.0806316 -0.61573,0.32985654 -0.29321,0.24189479 -0.29321,0.6817035 0,0.45446901 0.34452,0.7769954 0.34452,0.31519622 0.90161,0.31519622 0.59374,0 1.09219,-0.25655506 0.50578,-0.26388523 0.74034,-0.67437336 0.27122,-0.45446901 0.27122,-1.49534958 z" />
      <path
         id="path12931"
         style="font-style:normal;font-variant:normal;font-weight:bold;font-stretch:normal;font-size:15.01213741px;line-height:1.25;font-family:'Arial Rounded MT Bold';-inkscape-font-specification:'Arial Rounded MT Bold, Bold';fill:#ffffff;stroke-width:0.23987347px"
         d="m -183.93093,-4.5864544 v 0.2418948 q 0.52777,-0.6963638 1.15084,-1.0188901 0.63039,-0.3298566 1.44404,-0.3298566 0.79165,0 1.41471,0.3445168 0.62307,0.3445169 0.93093,0.9749094 0.19792,0.3665072 0.25656,0.7916556 0.0586,0.4251485 0.0586,1.0848615 v 3.7237138 q 0,0.6010719 -0.27855,0.908938 -0.27121,0.3078661 -0.71102,0.3078661 -0.44714,0 -0.72569,-0.3151962 -0.27854,-0.3151963 -0.27854,-0.9016079 v -3.3352161 q 0,-0.9895696 -0.27855,-1.5100099 -0.27121,-0.5277704 -1.09219,-0.5277704 -0.5351,0 -0.97491,0.3225264 -0.43981,0.3151962 -0.64505,0.8722872 -0.1466,0.4471389 -0.1466,1.6712731 v 2.5069097 q 0,0.6084021 -0.28588,0.9162682 -0.27854,0.3005359 -0.72568,0.3005359 -0.43248,0 -0.71103,-0.3151962 -0.27854,-0.3151963 -0.27854,-0.9016079 v -5.7834846 q 0,-0.5717513 0.24922,-0.8502968 0.24923,-0.2858757 0.68171,-0.2858757 0.26388,0 0.47645,0.1246125 0.21258,0.1246125 0.33719,0.3738374 0.13194,0.2492249 0.13194,0.608402 z" />
    </g>
  </g>
</svg>
