<?xml version="1.0" encoding="UTF-8" standalone="no"?>
<svg
   xmlns:dc="http://purl.org/dc/elements/1.1/"
   xmlns:cc="http://creativecommons.org/ns#"
   xmlns:rdf="http://www.w3.org/1999/02/22-rdf-syntax-ns#"
   xmlns:svg="http://www.w3.org/2000/svg"
   xmlns="http://www.w3.org/2000/svg"
   id="svg10337"
   version="1.1"
   viewBox="0 0 39.6875 39.6875"
   height="150"
   width="150">
  <defs
     id="defs10331" />
  <metadata
     id="metadata10334">
    <rdf:RDF>
      <cc:Work
         rdf:about="">
        <dc:format>image/svg+xml</dc:format>
        <dc:type
           rdf:resource="http://purl.org/dc/dcmitype/StillImage" />
        <dc:title></dc:title>
      </cc:Work>
    </rdf:RDF>
  </metadata>
  <g
     transform="translate(208.83184,109.89107)"
     id="layer1">
    <g
       id="g38546"
       transform="matrix(0.28222223,0,0,0.28222223,-1342.4517,-15096.672)">
      <circle
         style="opacity:1;vector-effect:none;fill:#76a142;fill-opacity:1;stroke:none;stroke-width:0.9375;stroke-linecap:butt;stroke-linejoin:miter;stroke-miterlimit:4;stroke-dasharray:none;stroke-dashoffset:0;stroke-opacity:1;paint-order:fill markers stroke"
         id="path34235"
         cx="4087.0757"
         cy="53173.078"
         r="70.3125" />
      <g
         style="fill:#ffffff;fill-opacity:1;stroke-width:6.08056307"
         transform="matrix(0.1541798,0,0,0.1541798,4056.8422,53142.843)"
         id="g34193">
        <g
           style="fill:#ffffff;fill-opacity:1;stroke-width:6.08056307"
           id="g34161">
          <g
             style="fill:#ffffff;fill-opacity:1;stroke-width:6.08056307"
             id="g34159">
            <g
               style="fill:#ffffff;fill-opacity:1;stroke-width:6.08056307"
               id="g34157">
              <path
                 style="fill:#ffffff;fill-opacity:1;stroke-width:6.08056307"
                 d="M 368.62,17.951 H 23.568 C 10.57,17.951 0,28.524 0,41.52 v 309.146 c 0,12.996 10.57,23.568 23.568,23.568 h 345.053 c 12.994,0 23.564,-10.572 23.564,-23.568 V 41.52 C 392.188,28.525 381.614,17.951 368.62,17.951 Z m -71.06,39.577 c 0,-4.806 3.896,-8.703 8.701,-8.703 h 8.703 c 4.808,0 8.701,3.896 8.701,8.703 v 9.863 c 0,4.806 -3.896,8.702 -8.701,8.702 h -8.703 c -4.805,0 -8.701,-3.896 -8.701,-8.702 z m -40.467,0 c 0,-4.806 3.898,-8.703 8.703,-8.703 h 8.701 c 4.805,0 8.703,3.896 8.703,8.703 v 9.863 c 0,4.806 -3.898,8.702 -8.703,8.702 h -8.701 c -4.805,0 -8.703,-3.896 -8.703,-8.702 z m 106.81,288.423 H 28.282 V 102.235 h 335.621 z m 0.229,-278.56 c 0,4.806 -3.896,8.702 -8.701,8.702 h -8.703 c -4.809,0 -8.702,-3.896 -8.702,-8.702 v -9.863 c 0,-4.806 3.896,-8.703 8.702,-8.703 h 8.703 c 4.806,0 8.701,3.896 8.701,8.703 z"
                 id="path34149" />
              <path
                 style="fill:#ffffff;fill-opacity:1;stroke-width:6.08056307"
                 d="m 84.185,233.284 63.084,29.336 c 1.631,0.755 3.367,1.138 5.162,1.138 2.338,0 4.617,-0.664 6.598,-1.924 3.547,-2.267 5.666,-6.13 5.666,-10.334 v -0.322 c 0,-4.752 -2.785,-9.116 -7.096,-11.118 l -39.455,-18.332 39.455,-18.334 c 4.311,-2.004 7.096,-6.367 7.096,-11.117 v -0.319 c 0,-4.21 -2.119,-8.075 -5.666,-10.334 -1.961,-1.253 -4.246,-1.916 -6.605,-1.916 -1.779,0 -3.563,0.391 -5.16,1.133 l -63.08,29.333 c -4.307,2.004 -7.09,6.369 -7.09,11.117 v 0.877 c -10e-4,4.741 2.78,9.104 7.091,11.116 z"
                 id="path34151" />
              <path
                 style="fill:#ffffff;fill-opacity:1;stroke-width:6.08056307"
                 d="m 165.257,293.036 c 2.301,3.149 6.002,5.03 9.9,5.03 h 0.316 c 5.352,0 10.041,-3.426 11.672,-8.517 L 228.7,160.788 c 1.192,-3.716 0.531,-7.818 -1.771,-10.973 -2.301,-3.15 -6.002,-5.03 -9.901,-5.03 h -0.315 c -5.354,0 -10.048,3.425 -11.679,8.516 l -41.559,128.771 c -1.183,3.721 -0.517,7.817 1.782,10.964 z"
                 id="path34153" />
              <path
                 style="fill:#ffffff;fill-opacity:1;stroke-width:6.08056307"
                 d="m 227.49,192.276 c 0,4.745 2.783,9.109 7.095,11.123 l 39.455,18.329 -39.455,18.33 c -4.31,2.004 -7.095,6.368 -7.095,11.118 v 0.322 c 0,4.205 2.117,8.068 5.668,10.336 1.974,1.258 4.254,1.924 6.595,1.924 1.793,0 3.528,-0.383 5.17,-1.142 l 63.08,-29.335 c 4.307,-2.009 7.09,-6.372 7.09,-11.115 v -0.877 c 0,-4.748 -2.783,-9.113 -7.094,-11.117 l -63.08,-29.333 c -1.591,-0.74 -3.373,-1.131 -5.152,-1.131 -2.355,0 -4.643,0.661 -6.604,1.912 -3.551,2.263 -5.67,6.127 -5.67,10.337 v 0.318 h -0.003 z"
                 id="path34155" />
            </g>
          </g>
        </g>
        <g
           style="fill:#ffffff;fill-opacity:1;stroke-width:6.08056307"
           id="g34163" />
        <g
           style="fill:#ffffff;fill-opacity:1;stroke-width:6.08056307"
           id="g34165" />
        <g
           style="fill:#ffffff;fill-opacity:1;stroke-width:6.08056307"
           id="g34167" />
        <g
           style="fill:#ffffff;fill-opacity:1;stroke-width:6.08056307"
           id="g34169" />
        <g
           style="fill:#ffffff;fill-opacity:1;stroke-width:6.08056307"
           id="g34171" />
        <g
           style="fill:#ffffff;fill-opacity:1;stroke-width:6.08056307"
           id="g34173" />
        <g
           style="fill:#ffffff;fill-opacity:1;stroke-width:6.08056307"
           id="g34175" />
        <g
           style="fill:#ffffff;fill-opacity:1;stroke-width:6.08056307"
           id="g34177" />
        <g
           style="fill:#ffffff;fill-opacity:1;stroke-width:6.08056307"
           id="g34179" />
        <g
           style="fill:#ffffff;fill-opacity:1;stroke-width:6.08056307"
           id="g34181" />
        <g
           style="fill:#ffffff;fill-opacity:1;stroke-width:6.08056307"
           id="g34183" />
        <g
           style="fill:#ffffff;fill-opacity:1;stroke-width:6.08056307"
           id="g34185" />
        <g
           style="fill:#ffffff;fill-opacity:1;stroke-width:6.08056307"
           id="g34187" />
        <g
           style="fill:#ffffff;fill-opacity:1;stroke-width:6.08056307"
           id="g34189" />
        <g
           style="fill:#ffffff;fill-opacity:1;stroke-width:6.08056307"
           id="g34191" />
      </g>
    </g>
  </g>
</svg>
